<svg viewBox="0 0 274 274" version="1.1" xmlns="http://www.w3.org/2000/svg" desc="Created with imagetracer-ts 1.0.2" >
 <path fill="rgb(240,245,241)" stroke="rgb(240,245,241)" stroke-width="1" d="M 29.5 28 L 245.5 28 L 247 29.5 Q 248.1 39.1 246 44 L 242 44 L 242 34.5 L 241.5 34 L 183.5 34 L 181.5 35 Q 179.8 32.2 173.5 34 L 173.5 35 L 176 36.5 L 174.5 36 L 172 36 Q 173.3 33 169.5 34 Q 168 36.5 166.5 33 L 143.5 33 L 141.5 35 Q 140 32.5 138.5 36 L 136.5 34 Q 132 33 131 35.5 L 132 37.5 L 129.5 36 L 126.5 34 Q 125 36.5 123.5 33 L 106.5 33 L 102.5 35 L 98.5 34 L 98.5 35 L 101 35.5 L 94.5 38 L 94.5 35 L 97.5 36 L 97.5 35 L 91.5 34 L 88.5 35 L 87.5 34 L 32 34 L 32 118.5 L 33 119.5 L 32 120.5 L 32 153.5 L 36 167.5 L 34 166.5 L 32.5 157 L 32 167.5 L 33 169.5 L 32 170.5 L 32 241 L 43 241 L 43 245.5 L 41.5 247 L 31.5 247 L 27 245.5 L 29 237.5 L 28 236.5 L 28 226.5 L 28 224.5 L 28 171.5 L 29 170.5 L 28 169.5 L 28 68.5 L 28 66.5 Q 26.3 58.3 29 54.5 L 28 53.5 L 28 29.5 L 29.5 28 Z" />
 <path fill="rgb(240,245,241)" stroke="rgb(240,245,241)" stroke-width="1" d="M 91.5 38 L 93 38.5 L 82.5 44 L 82.5 43 L 91.5 38 Z" />
 <path fill="rgb(240,245,241)" stroke="rgb(240,245,241)" stroke-width="1" d="M 186.5 39 L 185.5 41 L 186.5 39 Z" />
 <path fill="rgb(240,245,241)" stroke="rgb(240,245,241)" stroke-width="1" d="M 192.5 39 L 195 40.5 L 192 42.5 L 194 43 Q 195.7 47.1 191.5 46 L 191.5 45 L 193 44.5 Q 191.3 41.3 189.5 45 L 188 44.5 L 190 44 Q 188.9 41.3 191.5 42 L 191.5 41 L 190 40.5 L 192.5 39 Z" />
 <path fill="rgb(240,245,241)" stroke="rgb(240,245,241)" stroke-width="1" d="M 99 44 L 102 44.5 L 99.5 46 L 99 44 Z" />
 <path fill="rgb(240,245,241)" stroke="rgb(240,245,241)" stroke-width="1" d="M 109.5 44 L 113 45.5 L 106.5 48 L 106 46.5 L 109.5 44 Z" />
 <path fill="rgb(240,245,241)" stroke="rgb(240,245,241)" stroke-width="1" d="M 135.5 44 Q 141.3 44.7 144 48.5 L 142.5 49 L 135.5 45 L 135.5 44 Z" />
 <path fill="rgb(240,245,241)" stroke="rgb(240,245,241)" stroke-width="1" d="M 149.5 44 L 151 44.5 L 147.5 46 L 147.5 45 L 149.5 44 Z" />
 <path fill="rgb(240,245,241)" stroke="rgb(240,245,241)" stroke-width="1" d="M 182.5 44 L 184.5 44 L 186 44.5 L 184.5 47 Q 182.8 43.9 181 45.5 L 182.5 44 Z" />
 <path fill="rgb(240,245,241)" stroke="rgb(240,245,241)" stroke-width="1" d="M 144.5 46 Q 146.8 45.3 146 47.5 L 144.5 46 Z" />
 <path fill="rgb(240,245,241)" stroke="rgb(240,245,241)" stroke-width="1" d="M 186.5 46 L 189 46.5 Q 186.9 49.8 186.5 46 Z" />
 <path fill="rgb(240,245,241)" stroke="rgb(240,245,241)" stroke-width="1" d="M 190.5 47 L 195 50.5 L 193.5 50 L 190.5 47 Z" />
 <path fill="rgb(240,245,241)" stroke="rgb(240,245,241)" stroke-width="1" d="M 103.5 48 L 105 48.5 L 93.5 55 L 93.5 52 L 95 52.5 L 96.5 50 L 103.5 48 Z" />
 <path fill="rgb(240,245,241)" stroke="rgb(240,245,241)" stroke-width="1" d="M 201.5 50 L 205 50.5 L 201.5 51 L 201.5 50 Z" />
 <path fill="rgb(240,245,241)" stroke="rgb(240,245,241)" stroke-width="1" d="M 196.5 51 L 200.5 53 L 202 52.5 L 201.5 55 L 196.5 52 L 196.5 51 Z" />
 <path fill="rgb(240,245,241)" stroke="rgb(240,245,241)" stroke-width="1" d="M 87.5 55 L 87.5 57 L 91.5 55 L 90.5 57 L 77.5 67 L 76 64.5 L 77.5 65 L 79 64.5 L 78.5 63 L 80.5 63 L 82 63 L 82 61 Q 84.7 62.1 84 59.5 L 87 57.5 L 84 56.5 L 87.5 55 Z" />
 <path fill="rgb(240,245,241)" stroke="rgb(240,245,241)" stroke-width="1" d="M 207.5 55 L 210 56.5 L 208.5 56 Q 206.3 55.3 207 57.5 L 207.5 59 L 206 56.5 L 207.5 55 Z" />
 <path fill="rgb(240,245,241)" stroke="rgb(240,245,241)" stroke-width="1" d="M 215.5 64 L 220 67.5 L 219 65.5 L 222 65 L 223 69.5 L 222 70.5 L 223.5 73 L 215.5 64 Z M 220.5 68 L 222 69.5 Q 222.8 67.3 220.5 68 Z" />
 <path fill="rgb(240,245,241)" stroke="rgb(240,245,241)" stroke-width="1" d="M 75.5 68 L 67 77.5 L 63.5 82 L 66 78.5 L 65.5 77 L 67 76.5 L 66.5 75 Q 67.8 77.3 69 74.5 L 68 72 Q 73.3 72 75.5 68 Z" />
 <path fill="rgb(240,245,241)" stroke="rgb(240,245,241)" stroke-width="1" d="M 130.5 72 L 132 73.5 L 133 80.5 L 132 80.5 L 130.5 72 Z" />
 <path fill="rgb(240,245,241)" stroke="rgb(240,245,241)" stroke-width="1" d="M 228.5 78 L 233 81.5 L 232.5 84 L 232 81 L 228.5 78 Z" />
 <path fill="rgb(240,245,241)" stroke="rgb(240,245,241)" stroke-width="1" d="M 62.5 83 L 61.5 85 L 62.5 83 Z" />
 <path fill="rgb(240,245,241)" stroke="rgb(240,245,241)" stroke-width="1" d="M 237.5 85 L 239 87.5 L 236 89.5 Q 235.3 87.3 237.5 88 L 237 86.5 L 237.5 85 Z" />
 <path fill="rgb(240,245,241)" stroke="rgb(240,245,241)" stroke-width="1" d="M 60.5 86 L 59.5 88 L 60.5 86 Z" />
 <path fill="rgb(240,245,241)" stroke="rgb(240,245,241)" stroke-width="1" d="M 39.5 89 L 42 90.5 L 41 94 L 39 93.5 L 40 90.5 L 39.5 89 Z" />
 <path fill="rgb(240,245,241)" stroke="rgb(240,245,241)" stroke-width="1" d="M 58.5 89 L 57.5 91 L 58.5 89 Z" />
 <path fill="rgb(240,245,241)" stroke="rgb(240,245,241)" stroke-width="1" d="M 139.5 92 L 141.5 96 L 142.5 95 L 154 106.5 Q 153.3 108.8 155.5 108 L 155.5 109 L 152 109.5 L 152.5 111 Q 150.3 111.8 151 109.5 L 152 107.5 L 151.5 105 L 149.5 106 L 148.5 105 L 146 106.5 L 146.5 104 L 149 102.5 L 143 98.5 Q 145.3 97.2 142.5 96 L 142 98 L 139 96.5 L 140 93.5 L 139.5 92 Z" />
 <path fill="rgb(240,245,241)" stroke="rgb(240,245,241)" stroke-width="1" d="M 240.5 93 L 241.5 95 L 239 94.5 L 240.5 93 Z" />
 <path fill="rgb(240,245,241)" stroke="rgb(240,245,241)" stroke-width="1" d="M 54.5 94 L 55 95.5 L 46.5 114 L 47 112.5 L 50 104.5 L 50 100 L 53 98.5 L 54.5 94 Z" />
 <path fill="rgb(240,245,241)" stroke="rgb(240,245,241)" stroke-width="1" d="M 138.5 94 L 136.5 97 L 135 96.5 L 138.5 94 Z" />
 <path fill="rgb(240,245,241)" stroke="rgb(240,245,241)" stroke-width="1" d="M 242.5 96 L 244 98.5 L 241 98.5 L 242.5 96 Z" />
 <path fill="rgb(240,245,241)" stroke="rgb(240,245,241)" stroke-width="1" d="M 133.5 98 L 136 99.5 L 132 100 L 130 103.5 L 130.5 105 L 128.5 105 L 126 106.5 Q 127.9 111.9 124.5 111 L 122 109.5 L 133.5 98 Z" />
 <path fill="rgb(240,245,241)" stroke="rgb(240,245,241)" stroke-width="1" d="M 36.5 101 L 38 101.5 L 36 102 L 37 104.5 L 35 103.5 L 36.5 101 Z" />
 <path fill="rgb(240,245,241)" stroke="rgb(240,245,241)" stroke-width="1" d="M 34.5 105 L 36 108.5 L 35 108.5 L 34.5 105 Z" />
 <path fill="rgb(240,245,241)" stroke="rgb(240,245,241)" stroke-width="1" d="M 247.5 105 L 249 107.5 L 246 107.5 L 247.5 105 Z" />
 <path fill="rgb(240,245,241)" stroke="rgb(240,245,241)" stroke-width="1" d="M 246.5 109 L 247.5 111 L 246.5 109 Z" />
 <path fill="rgb(240,245,241)" stroke="rgb(240,245,241)" stroke-width="1" d="M 120.5 112 L 121 116 Q 117.3 114.5 118 117.5 L 118 119.5 L 114 123.5 L 115 124.5 L 114 126.5 L 114.5 128 L 113.5 127 L 110 129.5 L 120.5 112 Z" />
 <path fill="rgb(240,245,241)" stroke="rgb(240,245,241)" stroke-width="1" d="M 162.5 114 L 164.5 117 L 162.5 114 Z" />
 <path fill="rgb(240,245,241)" stroke="rgb(240,245,241)" stroke-width="1" d="M 248.5 114 L 250 116.5 L 248 115.5 L 248.5 114 Z" />
 <path fill="rgb(240,245,241)" stroke="rgb(240,245,241)" stroke-width="1" d="M 33.5 115 L 34 117.5 L 33 117.5 L 33.5 115 Z" />
 <path fill="rgb(240,245,241)" stroke="rgb(240,245,241)" stroke-width="1" d="M 45.5 116 L 44.5 118 L 45.5 116 Z" />
 <path fill="rgb(240,245,241)" stroke="rgb(240,245,241)" stroke-width="1" d="M 159 118 Q 163.1 116.7 162 120 Q 157.9 121.3 159 118 Z" />
 <path fill="rgb(240,245,241)" stroke="rgb(240,245,241)" stroke-width="1" d="M 166.5 120 L 167.5 122 L 169 121.5 L 166 123 L 166.5 120 Z" />
 <path fill="rgb(240,245,241)" stroke="rgb(240,245,241)" stroke-width="1" d="M 170.5 122 L 174 125.5 L 173.5 128 L 171 127.5 L 173 125.5 L 170.5 122 Z" />
 <path fill="rgb(240,245,241)" stroke="rgb(240,245,241)" stroke-width="1" d="M 44.5 123 L 45 125.5 L 44 125.5 L 44.5 123 Z" />
 <path fill="rgb(240,245,241)" stroke="rgb(240,245,241)" stroke-width="1" d="M 251 127 Q 254 126 253 129 Q 250 130 251 127 Z" />
 <path fill="rgb(240,245,241)" stroke="rgb(240,245,241)" stroke-width="1" d="M 177.5 129 L 179 133.5 L 177 132.5 L 177.5 129 Z" />
 <path fill="rgb(240,245,241)" stroke="rgb(240,245,241)" stroke-width="1" d="M 109.5 131 L 110 133.5 L 109 137 L 107 136.5 L 109.5 131 Z" />
 <path fill="rgb(240,245,241)" stroke="rgb(240,245,241)" stroke-width="1" d="M 180.5 132 L 181.5 134 L 180.5 132 Z" />
 <path fill="rgb(240,245,241)" stroke="rgb(240,245,241)" stroke-width="1" d="M 183.5 137 L 185.5 137 L 188 139.5 L 185.5 138 L 184.5 139 L 183.5 137 Z" />
 <path fill="rgb(240,245,241)" stroke="rgb(240,245,241)" stroke-width="1" d="M 93.5 138 L 95.5 141 L 93.5 138 Z" />
 <path fill="rgb(240,245,241)" stroke="rgb(240,245,241)" stroke-width="1" d="M 107.5 139 L 107 140.5 L 108 142.5 L 106.5 147 L 105 143 L 107 142.5 L 106 140.5 L 107.5 139 Z" />
 <path fill="rgb(240,245,241)" stroke="rgb(240,245,241)" stroke-width="1" d="M 188.5 141 L 191 142.5 Q 191.8 144.8 189.5 144 L 188 144.5 L 189 142.5 L 188.5 141 Z" />
 <path fill="rgb(240,245,241)" stroke="rgb(240,245,241)" stroke-width="1" d="M 97.5 143 L 98.5 145 L 97.5 143 Z" />
 <path fill="rgb(240,245,241)" stroke="rgb(240,245,241)" stroke-width="1" d="M 191.5 145 L 195 147.5 L 192.5 146 L 191.5 145 Z" />
 <path fill="rgb(240,245,241)" stroke="rgb(240,245,241)" stroke-width="1" d="M 104.5 147 L 105 149.5 L 105 151.5 L 106.5 154 L 108 153.5 Q 106 157 104 152.5 L 102 149.5 L 104 149.5 L 104.5 147 Z" />
 <path fill="rgb(240,245,241)" stroke="rgb(240,245,241)" stroke-width="1" d="M 189.5 147 L 191 149.5 L 190 154 L 188 153.5 L 189 149.5 Q 186.8 148.3 189.5 147 Z" />
 <path fill="rgb(240,245,241)" stroke="rgb(240,245,241)" stroke-width="1" d="M 109.5 149 L 109.5 152 Q 106.5 150.5 109.5 149 Z" />
 <path fill="rgb(240,245,241)" stroke="rgb(240,245,241)" stroke-width="1" d="M 196.5 150 L 198.5 153 L 196.5 150 Z" />
 <path fill="rgb(240,245,241)" stroke="rgb(240,245,241)" stroke-width="1" d="M 200.5 155 L 201.5 157 L 200.5 155 Z" />
 <path fill="rgb(240,245,241)" stroke="rgb(240,245,241)" stroke-width="1" d="M 108.5 156 L 112.5 158 L 114 157.5 L 114 159.5 L 116.5 163 Q 119.1 162.3 118 165 L 120 165 L 120 166.5 L 121 168.5 L 108.5 156 Z" />
 <path fill="rgb(240,245,241)" stroke="rgb(240,245,241)" stroke-width="1" d="M 184 158 L 188 158 L 188 159.5 L 186.5 159 L 185 159.5 L 187 162.5 L 185 162.5 L 186 164.5 L 183.5 168 L 184 166.5 L 183 164.5 L 183 162.5 L 184 158 Z" />
 <path fill="rgb(240,245,241)" stroke="rgb(240,245,241)" stroke-width="1" d="M 202.5 158 L 203.5 160 L 202.5 158 Z" />
 <path fill="rgb(240,245,241)" stroke="rgb(240,245,241)" stroke-width="1" d="M 43.5 165 L 44 167.5 L 43 167.5 L 43.5 165 Z" />
 <path fill="rgb(240,245,241)" stroke="rgb(240,245,241)" stroke-width="1" d="M 122 169 L 125 170.5 L 128.5 175 L 130.5 174 L 130 175.5 Q 128.9 178.8 131.5 178 Q 133 181.5 134.5 179 L 136.5 178 L 137.5 180 Q 136.3 177.8 135 180.5 L 137 183.5 L 133.5 181 L 122 170.5 L 122 169 Z" />
 <path fill="rgb(240,245,241)" stroke="rgb(240,245,241)" stroke-width="1" d="M 36.5 170 L 40 178.5 L 38 177.5 L 36.5 170 Z" />
 <path fill="rgb(240,245,241)" stroke="rgb(240,245,241)" stroke-width="1" d="M 44.5 170 L 47 178.5 L 45 177.5 L 43 172.5 L 44.5 170 Z" />
 <path fill="rgb(240,245,241)" stroke="rgb(240,245,241)" stroke-width="1" d="M 178.5 172 L 180.5 173 L 182 172.5 L 180.5 175 Q 178.7 171.9 177 173.5 L 178.5 172 Z" />
 <path fill="rgb(240,245,241)" stroke="rgb(240,245,241)" stroke-width="1" d="M 177.5 176 L 180 176.5 Q 177.9 179.8 177.5 176 Z" />
 <path fill="rgb(240,245,241)" stroke="rgb(240,245,241)" stroke-width="1" d="M 173.5 179 L 176 182.5 L 173.5 184 L 172 181.5 L 173.5 179 Z" />
 <path fill="rgb(240,245,241)" stroke="rgb(240,245,241)" stroke-width="1" d="M 40.5 180 L 42 182.5 L 39 182.5 L 40.5 180 Z" />
 <path fill="rgb(240,245,241)" stroke="rgb(240,245,241)" stroke-width="1" d="M 47.5 182 L 52 192.5 L 51 192.5 L 47 184.5 L 47.5 182 Z" />
 <path fill="rgb(240,245,241)" stroke="rgb(240,245,241)" stroke-width="1" d="M 138.5 185 L 142.5 187 L 144 186.5 L 142.5 189 L 144 189.5 L 142.5 190 L 138.5 185 Z" />
 <path fill="rgb(240,245,241)" stroke="rgb(240,245,241)" stroke-width="1" d="M 171.5 185 L 170.5 187 L 171.5 185 Z" />
 <path fill="rgb(240,245,241)" stroke="rgb(240,245,241)" stroke-width="1" d="M 168.5 188 L 171 188.5 L 167 191 L 166.5 193 L 166 191.5 L 168.5 188 Z" />
 <path fill="rgb(240,245,241)" stroke="rgb(240,245,241)" stroke-width="1" d="M 245.5 190 L 245 191.5 L 243 196.5 L 244 198.5 L 243 198.5 L 242 195.5 L 245.5 190 Z" />
 <path fill="rgb(240,245,241)" stroke="rgb(240,245,241)" stroke-width="1" d="M 146.5 191 L 149 191.5 L 148 193.5 Q 150 197.2 152 195.5 L 151.5 197 Q 153.8 196.3 153 198.5 L 154.5 201 L 156.5 197 L 156.5 199 L 158.5 198 L 158 199.5 L 155.5 203 L 150.5 197 Q 148.3 197.8 149 195.5 Q 144.8 194.3 146.5 191 Z" />
 <path fill="rgb(240,245,241)" stroke="rgb(240,245,241)" stroke-width="1" d="M 51.5 194 L 54 195.5 L 55 198.5 L 53 197.5 Q 54.1 194.2 51.5 195 L 51.5 194 Z" />
 <path fill="rgb(240,245,241)" stroke="rgb(240,245,241)" stroke-width="1" d="M 162.5 194 L 165 194.5 Q 162.9 197.8 162.5 194 Z" />
 <path fill="rgb(240,245,241)" stroke="rgb(240,245,241)" stroke-width="1" d="M 219.5 195 L 220 199.5 L 219 199.5 L 219.5 195 Z" />
 <path fill="rgb(240,245,241)" stroke="rgb(240,245,241)" stroke-width="1" d="M 241.5 198 L 240.5 200 L 241.5 198 Z" />
 <path fill="rgb(240,245,241)" stroke="rgb(240,245,241)" stroke-width="1" d="M 55.5 200 L 59 206.5 L 58 206.5 L 55.5 200 Z" />
 <path fill="rgb(240,245,241)" stroke="rgb(240,245,241)" stroke-width="1" d="M 238.5 203 L 239 206 L 237 205.5 L 238.5 203 Z" />
 <path fill="rgb(240,245,241)" stroke="rgb(240,245,241)" stroke-width="1" d="M 158.5 207 L 161.5 211 Q 159.3 211.8 160 209.5 L 158.5 207 Z" />
 <path fill="rgb(240,245,241)" stroke="rgb(240,245,241)" stroke-width="1" d="M 237.5 207 L 239 209.5 L 238 212 Q 235 213.3 236 209.5 L 237.5 207 Z" />
 <path fill="rgb(240,245,241)" stroke="rgb(240,245,241)" stroke-width="1" d="M 61.5 209 L 60.5 211 L 61.5 209 Z" />
 <path fill="rgb(240,245,241)" stroke="rgb(240,245,241)" stroke-width="1" d="M 62.5 211 L 63.5 213 L 62.5 211 Z" />
 <path fill="rgb(240,245,241)" stroke="rgb(240,245,241)" stroke-width="1" d="M 233.5 211 L 235 211.5 L 232.5 213 L 233.5 211 Z" />
 <path fill="rgb(240,245,241)" stroke="rgb(240,245,241)" stroke-width="1" d="M 161.5 212 Q 164.1 211.2 163 214.5 L 162 214.5 L 161.5 212 Z" />
 <path fill="rgb(240,245,241)" stroke="rgb(240,245,241)" stroke-width="1" d="M 231.5 214 L 232 215.5 L 231.5 218 L 228 220.5 L 226.5 223 Q 224.3 223.8 225 221.5 L 227 221.5 Q 227.5 216 231.5 214 Z" />
 <path fill="rgb(240,245,241)" stroke="rgb(240,245,241)" stroke-width="1" d="M 65.5 215 L 74.5 226 Q 77.1 225.2 76 228.5 Q 78.5 226.7 81 231.5 L 75.5 229 L 71 225.5 Q 71.8 220.8 68.5 220 L 67 220.5 L 67.5 219 L 65 217.5 L 65.5 215 Z" />
 <path fill="rgb(240,245,241)" stroke="rgb(240,245,241)" stroke-width="1" d="M 223.5 223 L 221 226.5 L 222 228.5 L 220 227.5 L 223.5 223 Z" />
 <path fill="rgb(240,245,241)" stroke="rgb(240,245,241)" stroke-width="1" d="M 218.5 228 L 217.5 230 L 218.5 228 Z" />
 <path fill="rgb(240,245,241)" stroke="rgb(240,245,241)" stroke-width="1" d="M 215.5 230 L 217 231.5 L 216.5 234 L 213.5 235 L 214 233.5 L 215.5 230 Z" />
 <path fill="rgb(240,245,241)" stroke="rgb(240,245,241)" stroke-width="1" d="M 81.5 233 L 86 235.5 L 84.5 235 Q 80.7 235.5 81.5 233 Z" />
 <path fill="rgb(240,245,241)" stroke="rgb(240,245,241)" stroke-width="1" d="M 209 235 L 211 235.5 L 210.5 240 Q 206.3 238.3 209 236.5 L 209 235 Z" />
 <path fill="rgb(240,245,241)" stroke="rgb(240,245,241)" stroke-width="1" d="M 87 237 Q 99.9 247.4 120 251.5 L 117.5 252 L 108.5 250 L 105.5 251 L 104 247 L 98.5 245 L 97 245.5 L 97.5 244 L 87 239 L 87 237 Z" />
 <path fill="rgb(240,245,241)" stroke="rgb(240,245,241)" stroke-width="1" d="M 198.5 242 L 201.5 244 L 201.5 242 L 204 243.5 L 198.5 246 L 197.5 244 L 199 243.5 L 198.5 242 Z" />
 <path fill="rgb(240,245,241)" stroke="rgb(240,245,241)" stroke-width="1" d="M 150.5 247 L 151 248.5 L 149.5 250 L 140.5 252 L 140.5 251 L 148.5 248 L 150 248.5 L 150.5 247 Z" />
 <path fill="rgb(240,245,241)" stroke="rgb(240,245,241)" stroke-width="1" d="M 186.5 248 Q 189.5 249.5 186.5 251 L 184.5 250 L 183 250.5 Q 182.3 248.3 184.5 249 L 186.5 250 L 186.5 248 Z" />
 <path fill="rgb(240,245,241)" stroke="rgb(240,245,241)" stroke-width="1" d="M 157.5 249 L 156.5 251 L 157.5 249 Z" />
 <path fill="rgb(240,245,241)" stroke="rgb(240,245,241)" stroke-width="1" d="M 179.5 250 L 178.5 252 L 175 251.5 L 179.5 250 Z" />
 <path fill="rgb(240,245,241)" stroke="rgb(240,245,241)" stroke-width="1" d="M 189.5 250 L 192 250.5 L 189.5 251 L 189.5 250 Z" />
 <path fill="rgb(240,245,241)" stroke="rgb(240,245,241)" stroke-width="1" d="M 160.5 251 L 163 251.5 L 160.5 252 L 160.5 251 Z" />
 <path fill="rgb(253,253,253)" stroke="rgb(253,253,253)" stroke-width="1" d="M 0 0 L 274 0 L 274 274 L 0 274 L 0 0 Z M 29.5 28 L 28 29.5 L 28 53.5 L 29 54.5 Q 26.3 58.3 28 66.5 L 28 68.5 L 28 169.5 L 29 170.5 L 28 171.5 L 28 224.5 L 28 226.5 L 28 236.5 L 29 237.5 L 27 245.5 L 31.5 247 L 41.5 247 L 43 245.5 L 43 241 L 32 241 L 32 170.5 L 33 169.5 L 32 167.5 L 32.5 157 L 37 175.5 L 42.5 184 L 43 180.5 L 43 178.5 L 43.5 173 L 47 179.5 L 47 184.5 L 51 192.5 L 51 194.5 L 53 195 L 53 197.5 L 58 204.5 Q 56.9 207.8 59.5 207 L 65 214.5 L 65 217.5 L 67.5 219 L 74.5 229 L 76.5 228 L 81.5 232 L 81 233.5 L 85.5 236 Q 88.5 235.2 87 239 L 102.5 247 Q 105.1 246.2 104 249.5 L 105.5 249 L 107 249.5 L 105.5 250 L 105.5 251 L 108.5 250 L 117.5 252 L 142.5 252 L 149.5 250 L 149 248.5 L 150.5 249 L 151 247 L 157.5 250 Q 161.3 249 160 252 L 178.5 252 L 180.5 250 L 183.5 251 L 206.5 238 Q 208 234.5 209.5 237 L 211 234.5 L 214 232.5 Q 213.2 235.1 216.5 234 L 216 230.5 L 217.5 230 L 219 227.5 L 220.5 228 L 224 222.5 L 225.5 223 L 227 222.5 L 226 220.5 Q 227.3 217.7 228.5 220 L 231.5 218 L 231 216.5 L 232 213.5 L 234.5 212 L 234 210.5 L 235 208.5 L 239 206 L 239 202.5 L 244 195.5 L 245 191.5 L 245 189.5 L 249 180.5 L 253 164.5 L 253 131.5 L 252 130.5 L 253 128.5 Q 253.7 125.9 251 127 L 250 118.5 L 250 116.5 L 247 112.5 L 248 110.5 L 245 107.5 L 244 102.5 L 244 100.5 L 242 100 L 237 90.5 L 238 88.5 L 235 88 L 233 84.5 L 233 81.5 L 231.5 82 L 232 80.5 L 228 77.5 Q 228.8 75.3 226.5 76 L 224 72.5 L 211.5 61 Q 208.9 61.8 210 58.5 L 208.5 59 L 207 56.5 L 205.5 57 L 204 54.5 L 202.5 55 L 190.5 47 L 190.5 49 L 188.5 48 Q 186.8 44.9 185 46.5 L 186.5 44 L 189.5 45 L 191.5 42 L 189.5 43 L 173.5 35 L 173.5 34 Q 179.8 32.2 181.5 35 L 183.5 34 L 241.5 34 L 242 34.5 L 242 44 L 246 44 Q 248.1 39.1 247 29.5 L 245.5 28 L 29.5 28 Z M 192.5 43 L 193 44.5 L 191 45.5 L 194 46 Q 195.5 42.2 192.5 43 Z M 201.5 50 L 201.5 51 L 205 50.5 L 201.5 50 Z M 219.5 65 L 220 66.5 Q 219.3 69.1 222 68 Q 223.7 63.9 219.5 65 Z M 247.5 105 L 246 107.5 L 248 106.5 L 247.5 105 Z M 236.5 209 Q 234.5 213.1 238 212 L 236.5 209 Z M 201.5 242 L 202.5 244 L 204 243.5 L 201.5 242 Z M 197.5 244 L 198.5 246 L 200 245.5 L 197.5 244 Z M 189.5 250 L 189.5 251 L 192 250.5 L 189.5 250 Z" />
 <path fill="rgb(253,253,253)" stroke="rgb(253,253,253)" stroke-width="1" d="M 32 34 L 87.5 34 L 90.5 35 L 95.5 34 L 97.5 35 L 101.5 34 L 101.5 35 L 88.5 39 L 82 43.5 L 99 44 L 99.5 46 Q 101.8 42.8 108.5 44 L 108.5 45 L 106 46.5 Q 106.8 49.1 103.5 48 L 95 51.5 L 92.5 55 L 84 59.5 L 84 61 L 82 61 Q 83.1 63.7 80.5 63 L 77 65 Q 78.5 68.8 75.5 68 Q 73.3 72 68 72 L 69 74.5 L 65 77.5 L 66 78.5 L 63 81.5 L 57 92 L 55 92.5 L 55.5 94 Q 53.3 93.3 54 95.5 L 51.5 100 Q 48.1 99.1 50 104.5 L 46 113.5 L 47 116.5 L 45 119.5 L 43.5 128 L 43 112.5 L 43 110.5 L 42.5 88 L 42 90 Q 39 88.8 40 92.5 L 40 94.5 Q 37.2 96.5 38 101 L 36 101.5 L 37 103.5 L 35.5 106 L 34 105.5 L 35 111 L 33 111.5 L 34 114.5 L 32.5 119 L 32 34 Z M 84.5 56 L 84.5 57 L 87 56.5 L 84.5 56 Z" />
 <path fill="rgb(253,253,253)" stroke="rgb(253,253,253)" stroke-width="1" d="M 130.5 34 L 132.5 34 Q 137 33 138 35.5 L 135.5 37 L 134 36.5 Q 134.8 38.8 132.5 38 L 130.5 34 Z" />
 <path fill="rgb(253,253,253)" stroke="rgb(253,253,253)" stroke-width="1" d="M 169.5 34 L 172 34.5 L 169.5 35 L 169.5 34 Z" />
 <path fill="rgb(253,253,253)" stroke="rgb(253,253,253)" stroke-width="1" d="M 110.5 44 L 114 44.5 L 110.5 45 L 110.5 44 Z" />
 <path fill="rgb(253,253,253)" stroke="rgb(253,253,253)" stroke-width="1" d="M 138.5 44 L 143.5 45 L 148.5 44 L 148.5 45 L 147 45.5 L 147.5 47 L 144.5 46 L 144.5 48 L 142.5 48 L 138.5 44 Z" />
 <path fill="rgb(253,253,253)" stroke="rgb(253,253,253)" stroke-width="1" d="M 179.5 44 L 182.5 45 L 184 44.5 Q 182.8 47.3 181.5 45 Q 178.5 45.5 179.5 44 Z" />
 <path fill="rgb(253,253,253)" stroke="rgb(253,253,253)" stroke-width="1" d="M 139.5 93 L 140 95.5 Q 137.8 96.8 140.5 98 Q 142.8 98.8 142 96.5 L 141 94.5 L 142 94.5 L 144 97.5 Q 141.2 99.2 145.5 101 L 146.5 100 L 150 103.5 Q 149.3 105.8 151.5 105 Q 154.3 106.3 152 107.5 Q 151.1 110.9 156.5 109 L 166 117 Q 164.9 119.7 167.5 119 L 173.5 126 L 177 128.5 Q 176 133 178.5 134 L 179 131.5 L 178.5 130 L 181.5 134 L 183 134 L 183 136 Q 185.7 134.9 185 137.5 L 189 140.5 L 189 142.5 Q 188.2 145.1 191.5 144 L 191 145.5 L 190.5 148 Q 189.3 145.8 188 148.5 L 189 152.5 L 189 156.5 L 187.5 158 Q 182.7 156.3 184 160.5 L 183 162.5 L 185 163.5 L 185.5 162 L 186 163.5 L 183 167.5 Q 185.5 169 182 170.5 L 180.5 173 L 178.5 172 L 180 174.5 L 175.5 182 L 174 181.5 L 175 183.5 L 169.5 189 L 168 188.5 L 167 190.5 L 167.5 192 L 166 191.5 Q 167.1 194.8 164.5 194 L 161 196 L 158.5 200 L 156.5 199 L 156.5 201 L 154 200.5 L 153 197 L 148 193.5 L 146.5 191 Q 145.3 193.3 144 190.5 Q 144.8 188.3 142.5 189 L 141.5 186 L 137 185 L 135 180.5 L 135.5 179 L 133.5 180 L 130 178 Q 131.5 174.2 128.5 175 L 123.5 169 L 121.5 170 L 120 165 L 118 165 Q 119.1 162.3 116.5 163 L 112.5 158 L 107 156 L 104 150.5 L 105.5 146 L 107 146.5 L 106 142.5 L 108 139.5 L 107 137 Q 110 138.3 109 134.5 L 110 130.5 L 115 124.5 L 114 123.5 L 118 119.5 L 118 117.5 Q 117.2 114.5 121 116 L 121 111.5 L 124.5 109 L 124.5 111 Q 127.9 111.9 126 106.5 L 132 101.5 Q 131.1 98.5 135.5 100 L 135 98.5 Q 134.3 96.3 136.5 97 L 139.5 93 Z M 148.5 103 L 146 104.5 Q 147.5 107.5 149 104.5 L 148.5 103 Z M 151.5 109 Q 149.7 111.7 152.5 111 L 151.5 109 Z M 159 118 Q 157.9 121.3 162 120 Q 163.1 116.7 159 118 Z M 166.5 120 L 166 123 L 168 122.5 L 166.5 120 Z" />
 <path fill="rgb(253,253,253)" stroke="rgb(253,253,253)" stroke-width="1" d="M 185.5 159 Q 187.8 158.3 187 160.5 L 185.5 159 Z" />
 <path fill="rgb(253,253,253)" stroke="rgb(253,253,253)" stroke-width="1" d="M 43.5 168 L 44 171.5 L 43 171.5 L 43.5 168 Z" />
 <path fill="rgb(31,124,37)" stroke="rgb(31,124,37)" stroke-width="1" d="M 95.5 39 L 100 40 Q 98.9 42.7 101.5 42 L 102.5 44 L 86 43.5 L 92.5 40 Q 94 42.5 95.5 39 Z" />
 <path fill="rgb(31,124,37)" stroke="rgb(31,124,37)" stroke-width="1" d="M 106.5 49 L 108.5 50 L 110 49.5 L 111 51.5 L 110.5 53 Q 113.8 51.9 113 54.5 L 113 56.5 Q 112.3 58.8 114.5 58 L 118 59.5 Q 117.3 63.3 119.5 64 Q 123.3 63.3 124 65.5 L 126 73.5 L 125 75.5 L 128.5 81 L 133 84.5 L 138 92.5 L 136 96 L 134.5 96 L 124.5 106 L 125 104.5 L 122.5 101 L 121 101.5 L 121.5 99 L 123 98.5 L 121 98 Q 123.2 92.4 117.5 94 L 116 90 L 110 87.5 Q 110.8 85.3 108.5 86 L 107 83 L 104 81.5 L 104 78 L 99 78 L 99 76.5 L 96 70.5 L 101 63.5 L 99 62.5 L 100 60.5 L 98.5 61 Q 95.9 61.7 97 59 L 95 59 L 95 56.5 L 94 56.5 L 92.5 60 L 91 59.5 L 90.5 61 L 89.5 59 L 87 60.5 L 95.5 54 L 101.5 51 L 104.5 51 L 106.5 49 Z" />
 <path fill="rgb(31,124,37)" stroke="rgb(31,124,37)" stroke-width="1" d="M 85.5 61 L 86.5 63 L 84 62.5 L 85.5 61 Z" />
 <path fill="rgb(31,124,37)" stroke="rgb(31,124,37)" stroke-width="1" d="M 95.5 143 L 95.5 145 L 103 151.5 L 103 153.5 L 101.5 168 L 100.5 165 L 98 166 L 98 163.5 L 93 158.5 L 93 153.5 Q 95.5 152 92 150.5 Q 91.2 147.5 95 149 L 95 146.5 L 94 146.5 L 93.5 148 L 93 145.5 L 95.5 143 Z" />
 <path fill="rgb(31,124,37)" stroke="rgb(31,124,37)" stroke-width="1" d="M 59.5 192 L 58.5 194 L 59.5 192 Z" />
 <path fill="rgb(31,124,37)" stroke="rgb(31,124,37)" stroke-width="1" d="M 154.5 204 L 158 208.5 L 153.5 211 L 151 210 L 150.5 212 L 150 209.5 L 154.5 204 Z" />
 <path fill="rgb(7,149,208)" stroke="rgb(7,149,208)" stroke-width="1" d="M 144.5 34 L 163.5 40 L 170 43.5 L 156 44.5 L 180 53 L 182 57.5 L 179 66 L 182 67.5 L 174.5 68 Q 171.3 64.7 164.5 65 L 163.5 68 L 161 69.5 Q 161.8 71.8 165.5 71 L 167.5 71 Q 170.8 73.7 177.5 73 L 182.5 76 L 186.5 76 L 191.5 75 Q 212.3 81.2 227.5 93 L 228 91.5 Q 219.9 78.6 208.5 69 L 205.5 67 L 204.5 65 Q 205.9 62.4 210.5 63 L 213 63.5 Q 210.3 65.3 214.5 67 L 222 72 L 225 78 Q 227.7 76.9 227 79.5 L 231 82.5 L 244 105.5 L 240.5 103 L 231.5 96 L 232 97.5 L 241 116.5 L 243 128 L 238.5 131 L 231 125.5 L 221 107.5 L 206 89 L 196 83 Q 197.1 80.3 194.5 81 Q 192 76.7 185 78 L 184 90.5 Q 186.5 92 183 93.5 L 184 95.5 L 183 98.5 L 183 121.5 L 186 122 L 186 125 L 181 125.5 L 188 134.5 L 175.5 123 L 174 123.5 L 173.5 122 Q 171.8 124.8 170 120.5 Q 172.8 118.7 168.5 117 L 159 110.5 Q 161.3 109.3 158.5 108 L 157 108.5 Q 157.7 105.9 155 107 L 155 105 L 153.5 105 L 147 97 L 141 92.5 L 141 90 Q 138.3 91.1 139 88.5 L 138 86 L 135 84.5 L 134 80.5 Q 136.8 78.8 136 73.5 L 132 71 L 134 61.5 L 143.5 50 Q 147.5 46.3 154 46 L 153.5 44 L 129.5 44 L 133.5 39 L 144.5 34 Z" />
 <path fill="rgb(7,149,208)" stroke="rgb(7,149,208)" stroke-width="1" d="M 201.5 55 L 200.5 57 L 199 56.5 L 201.5 55 Z" />
 <path fill="rgb(7,149,208)" stroke="rgb(7,149,208)" stroke-width="1" d="M 202.5 59 Q 207.8 57.5 206 62 L 200.5 64 L 199 61 L 202.5 59 Z" />
 <path fill="rgb(7,149,208)" stroke="rgb(7,149,208)" stroke-width="1" d="M 189.5 87 Q 192.1 86.3 191 89 L 188 88.5 L 189.5 87 Z" />
 <path fill="rgb(7,149,208)" stroke="rgb(7,149,208)" stroke-width="1" d="M 187.5 125 L 188 127.5 L 186 126.5 L 187.5 125 Z" />
 <path fill="rgb(7,149,208)" stroke="rgb(7,149,208)" stroke-width="1" d="M 252.5 138 L 253 157.5 L 250.5 163 L 250 155.5 L 252 151.5 L 252.5 138 Z" />
 <path fill="rgb(7,149,208)" stroke="rgb(7,149,208)" stroke-width="1" d="M 165.5 198 L 167 201 L 163.5 200 L 162 200.5 L 165.5 198 Z" />
 <path fill="rgb(7,149,208)" stroke="rgb(7,149,208)" stroke-width="1" d="M 160.5 201 L 165 204.5 L 165.5 207 L 166 203 L 167.5 203 L 188 222.5 L 188 226 L 193 226 L 193 228.5 L 192 230.5 L 193 232.5 L 188 236 L 186 242 Q 189 243 188 240 L 191.5 240 L 191 241.5 Q 191.8 244.1 188.5 243 L 188.5 245 L 186 246.5 L 186.5 248 L 183.5 247 L 180 248 Q 181.3 251 177.5 250 L 176.5 251 L 162.5 251 L 158.5 248 L 156.5 248 Q 153.5 248.9 155 244.5 L 165 231.5 L 165 227.5 L 166 216.5 L 161.5 207 L 160 207.5 L 161 205.5 L 159 202.5 L 160.5 201 Z" />
 <path fill="rgb(18,116,175)" stroke="rgb(18,116,175)" stroke-width="1" d="M 146.5 34 Q 154.5 37.5 165.5 38 L 165.5 37 L 164 36.5 L 168.5 35 L 173 36.5 L 171 37.5 L 177.5 38 L 179.5 40 L 181.5 40 L 185 41 L 185.5 43 L 187.5 43 L 189 43.5 L 176 44 Q 177 47 174 46 Q 175.3 42.7 170.5 44 Q 161.8 37.7 148.5 36 L 146.5 34 Z" />
 <path fill="rgb(18,116,175)" stroke="rgb(18,116,175)" stroke-width="1" d="M 156.5 44 L 160.5 46 L 174.5 48 L 178.5 46 L 180.5 46 L 183.5 48 L 185 47.5 L 184.5 49 L 188 48 L 188.5 50 L 190 49.5 L 190.5 51 L 192.5 51 L 195.5 53 Q 197 50.5 198.5 54 Q 211.8 60.7 221 71.5 L 215.5 67 L 210.5 63 L 207.5 63 L 204 65.5 L 207 67 Q 205.9 69.7 208.5 69 L 225 86.5 L 228 92.5 L 226.5 92 L 222 89.5 L 224 89 L 222 84.5 L 213.5 75 Q 211.3 75.8 212 73.5 L 202.5 68 L 200 68 L 201 70.5 L 196 72.5 L 198 73 L 199.5 77 L 207 80.5 L 205.5 81 Q 198.7 75.7 187.5 75 L 182.5 76 L 180.5 74 L 172.5 73 L 166.5 70 L 162.5 71 Q 159.5 69.5 162.5 68 L 164 67.5 Q 161.8 66.3 164.5 65 Q 171.3 64.7 174.5 68 L 181.5 68 L 180.5 66 Q 178.3 66.8 179 64.5 L 182 56.5 L 180 53 L 157.5 46 L 156.5 44 Z M 202.5 59 L 199 61 L 200.5 64 L 206 62 Q 207.8 57.5 202.5 59 Z" />
 <path fill="rgb(18,116,175)" stroke="rgb(18,116,175)" stroke-width="1" d="M 222.5 73 L 226.5 78 Q 224.3 78.8 225 76.5 L 222.5 73 Z" />
 <path fill="rgb(18,116,175)" stroke="rgb(18,116,175)" stroke-width="1" d="M 183.5 77 L 190.5 78 L 196 81 Q 194.9 83.7 197.5 83 L 206 89 L 221 107.5 L 231 125.5 L 234.5 129 L 238.5 131 L 243 128 L 243 123.5 L 238 108.5 L 235 105.5 L 231 96.5 L 232.5 96 L 241.5 104 L 243 103.5 L 242 104.5 L 244.5 108 L 235.5 100 L 235 102.5 L 239 108.5 L 244.5 123 L 246 122.5 L 245 126 L 248 127.5 L 251 132.5 L 250.5 134 L 252 134.5 L 252 151.5 Q 248.8 154.8 250 162.5 L 251 164.5 L 249.5 173 L 248.5 170 L 247 170.5 L 248 162.5 L 247 159 L 245 159.5 L 245 166.5 L 244 166.5 L 242.5 163 L 241 163.5 L 242 161.5 L 240 159.5 L 238 147.5 L 233 132.5 Q 228.5 120 220.5 111 Q 217.5 111.7 219 108 L 217 108 L 217 105.5 L 214.5 104 L 213 107.5 Q 215.7 108.6 215 112 Q 210.5 113.8 212 108.5 L 208.5 107 L 207 109.5 L 207.5 111 L 203.5 113 L 199.5 113 L 198 112.5 L 195.5 116 Q 193.3 116.8 194 114.5 L 193 114.5 L 192 123.5 L 193 124.5 L 193 138.5 L 191.5 142 L 184 133 L 179 129.5 Q 179.8 127.3 177.5 128 L 173 122.5 L 174 122.5 L 174.5 124 L 175.5 123 L 187 133.5 L 181 125.5 L 186 125 L 186 122 L 183 121.5 L 183 98.5 L 183 94.5 L 185 91.5 L 184 88.5 L 185 87.5 L 185 78 L 183.5 77 Z M 189.5 87 L 188 88.5 L 191 89 Q 192.1 86.3 189.5 87 Z M 187.5 125 L 186 126.5 L 188 127.5 L 187.5 125 Z" />
 <path fill="rgb(18,116,175)" stroke="rgb(18,116,175)" stroke-width="1" d="M 227.5 79 L 228.5 81 L 227.5 79 Z" />
 <path fill="rgb(18,116,175)" stroke="rgb(18,116,175)" stroke-width="1" d="M 212.5 83 L 215 84.5 L 213.5 84 L 212.5 83 Z" />
 <path fill="rgb(18,116,175)" stroke="rgb(18,116,175)" stroke-width="1" d="M 137.5 86 L 139 88.5 L 137 87.5 L 137.5 86 Z" />
 <path fill="rgb(18,116,175)" stroke="rgb(18,116,175)" stroke-width="1" d="M 218.5 86 L 220.5 89 L 218.5 86 Z" />
 <path fill="rgb(18,116,175)" stroke="rgb(18,116,175)" stroke-width="1" d="M 182.5 88 L 181.5 90 L 182.5 88 Z" />
 <path fill="rgb(18,116,175)" stroke="rgb(18,116,175)" stroke-width="1" d="M 158.5 108 L 159.5 110 Q 156.7 110.7 158.5 108 Z" />
 <path fill="rgb(18,116,175)" stroke="rgb(18,116,175)" stroke-width="1" d="M 162.5 112 L 172 120.5 L 170.5 120 L 162.5 112 Z" />
 <path fill="rgb(18,116,175)" stroke="rgb(18,116,175)" stroke-width="1" d="M 216.5 171 L 217 173.5 L 215 172.5 L 216.5 171 Z" />
 <path fill="rgb(18,116,175)" stroke="rgb(18,116,175)" stroke-width="1" d="M 220 176 Q 223 175 222 178 Q 219 179 220 176 Z" />
 <path fill="rgb(18,116,175)" stroke="rgb(18,116,175)" stroke-width="1" d="M 173.5 186 L 173.5 188 L 176.5 190 L 183 195.5 Q 182.3 197.8 184.5 197 L 194 204.5 L 197.5 209 L 202 212.5 L 203 216.5 L 197 229.5 L 200.5 236 L 204.5 234 L 204.5 235 L 203 235.5 L 203.5 239 L 202 238.5 L 200.5 241 L 199 240.5 Q 199.8 243.1 196.5 242 Q 190.6 247.6 180.5 249 L 180.5 248 Q 186.3 247.8 189 244.5 L 188.5 243 Q 191.8 244.1 191 241.5 L 191.5 240 L 188 240 Q 189 243 186 242 L 188 236 L 193 232.5 L 192 229.5 L 193 226 L 188 226 L 188 222.5 L 167.5 203 L 166 203 L 165.5 207 L 163.5 203 L 160.5 201 Q 157.8 202.3 160 203.5 L 162 208.5 L 161 208.5 L 157 202.5 Q 160.4 197.5 166 196 Q 164.9 193.3 167.5 194 L 171 191.5 L 173 188.5 Q 170.8 187.3 173.5 186 Z M 166.5 199 L 165 200.5 L 167 201 L 166.5 199 Z" />
 <path fill="rgb(18,116,175)" stroke="rgb(18,116,175)" stroke-width="1" d="M 164.5 214 L 166 218.5 L 165 218.5 L 164.5 214 Z" />
 <path fill="rgb(137,179,52)" stroke="rgb(137,179,52)" stroke-width="1" d="M 114.5 34 Q 121.6 33.3 125 35 L 125.5 37 L 127 36.5 L 127.5 38 Q 128.8 35.8 130 38.5 L 128.5 41 L 126 42.5 Q 125.4 45.3 131.5 44 L 141 49.5 L 136 53.5 L 135.5 55 L 134 52 Q 131.3 53.1 132 50.5 L 124 44.5 L 124 42.5 Q 123.3 40.3 125.5 41 L 125.5 40 L 123.5 39 L 122.5 41 L 122 39 L 119.5 39 L 114.5 34 Z M 134.5 49 L 133.5 51 L 136 49.5 L 134.5 49 Z" />
 <path fill="rgb(137,179,52)" stroke="rgb(137,179,52)" stroke-width="1" d="M 69.5 81 L 69 82.5 L 68.5 84 L 68 82.5 L 69.5 81 Z" />
 <path fill="rgb(137,179,52)" stroke="rgb(137,179,52)" stroke-width="1" d="M 72.5 82 L 73 86.5 L 72 86.5 L 72.5 82 Z" />
 <path fill="rgb(137,179,52)" stroke="rgb(137,179,52)" stroke-width="1" d="M 69.5 87 L 70 89.5 L 69 89.5 L 69.5 87 Z" />
 <path fill="rgb(137,179,52)" stroke="rgb(137,179,52)" stroke-width="1" d="M 57.5 94 L 58 96.5 L 55 108.5 L 55 122.5 L 54 123.5 L 54 130 L 50.5 129 L 48 130 L 47 124.5 L 48 122.5 L 47 119.5 L 51 105.5 L 57.5 94 Z" />
 <path fill="rgb(137,179,52)" stroke="rgb(137,179,52)" stroke-width="1" d="M 41.5 95 L 42 119 L 37 120 L 37 107.5 L 41.5 95 Z" />
 <path fill="rgb(137,179,52)" stroke="rgb(137,179,52)" stroke-width="1" d="M 86.5 132 L 88 134.5 L 86 133.5 L 86.5 132 Z" />
 <path fill="rgb(137,179,52)" stroke="rgb(137,179,52)" stroke-width="1" d="M 34.5 136 Q 37.9 135.1 36 140.5 L 34 141.5 L 35 139.5 L 33 139 L 34.5 136 Z" />
 <path fill="rgb(137,179,52)" stroke="rgb(137,179,52)" stroke-width="1" d="M 79.5 143 L 80 144.5 Q 76.9 148.4 77.5 156 L 77 148.5 L 79.5 143 Z" />
 <path fill="rgb(137,179,52)" stroke="rgb(137,179,52)" stroke-width="1" d="M 45.5 145 L 47 152.5 L 46 152.5 L 44 149.5 L 45.5 145 Z" />
 <path fill="rgb(137,179,52)" stroke="rgb(137,179,52)" stroke-width="1" d="M 42.5 153 L 43 159.5 L 42 159.5 L 42.5 153 Z" />
 <path fill="rgb(137,179,52)" stroke="rgb(137,179,52)" stroke-width="1" d="M 74 157 Q 77.7 155.7 76 161.5 L 76 163.5 L 75.5 166 L 74 164.5 L 74 157 Z" />
 <path fill="rgb(137,179,52)" stroke="rgb(137,179,52)" stroke-width="1" d="M 105 157 L 107 157.5 L 106 158.5 L 109 161.5 Q 109.8 163.8 107.5 163 Q 104 161.7 105 157 Z" />
 <path fill="rgb(137,179,52)" stroke="rgb(137,179,52)" stroke-width="1" d="M 61.5 164 L 66 171.5 L 64.5 171 L 62.5 170 L 60.5 171 L 58.5 171 L 52 171 L 52 167.5 Q 53.8 164.3 55.5 168 Q 60.3 166.8 61.5 169 L 62 166.5 L 61.5 164 Z" />
 <path fill="rgb(137,179,52)" stroke="rgb(137,179,52)" stroke-width="1" d="M 103 165 L 112 170 L 112 176 L 107.5 176 Q 103.3 171.9 103 165 Z" />
 <path fill="rgb(137,179,52)" stroke="rgb(137,179,52)" stroke-width="1" d="M 69 167 Q 74.6 165.1 73 170 L 70.5 171 L 69 167 Z" />
 <path fill="rgb(137,179,52)" stroke="rgb(137,179,52)" stroke-width="1" d="M 114.5 167 L 116 169.5 L 114 170 L 114.5 167 Z" />
 <path fill="rgb(137,179,52)" stroke="rgb(137,179,52)" stroke-width="1" d="M 76.5 176 L 83 177 L 85 185 Q 82.3 183.9 83 186.5 L 88 189.5 L 86.5 189 L 83 190 L 81.5 194 L 76 190 L 74 186.5 L 75 183.5 L 73 183.5 L 74 179.5 L 73.5 178 L 76.5 176 Z" />
 <path fill="rgb(137,179,52)" stroke="rgb(137,179,52)" stroke-width="1" d="M 108.5 178 L 109 180.5 L 108 180.5 L 108.5 178 Z" />
 <path fill="rgb(137,179,52)" stroke="rgb(137,179,52)" stroke-width="1" d="M 83.5 223 L 86 224.5 Q 86.8 226.8 84.5 226 L 82.5 229 L 82 227 Q 78.3 228.5 79 225.5 Q 81.2 227.2 83.5 223 Z" />
 <path fill="rgb(137,179,52)" stroke="rgb(137,179,52)" stroke-width="1" d="M 121.5 228 L 124 229 Q 122.9 231.7 125.5 231 L 127 230.5 L 122.5 233 L 122.5 231 L 121 230.5 L 121.5 228 Z" />
 <path fill="rgb(137,179,52)" stroke="rgb(137,179,52)" stroke-width="1" d="M 110.5 233 L 115 233.5 L 110.5 234 L 110.5 233 Z" />
 <path fill="rgb(137,179,52)" stroke="rgb(137,179,52)" stroke-width="1" d="M 121.5 234 L 122 236.5 L 121 236.5 L 121.5 234 Z" />
 <path fill="rgb(137,179,52)" stroke="rgb(137,179,52)" stroke-width="1" d="M 147.5 234 L 150 234.5 L 146.5 236 L 147.5 234 Z" />
 <path fill="rgb(137,179,52)" stroke="rgb(137,179,52)" stroke-width="1" d="M 117.5 238 Q 122.3 236.3 121 240.5 L 119.5 240 Q 117.3 239.3 118 241.5 L 118.5 243 L 116 239.5 L 117.5 238 Z" />
 <path fill="rgb(2,50,31)" stroke="rgb(2,50,31)" stroke-width="1" d="M 94.5 56 L 95 59 L 97 59 Q 95.9 61.7 98.5 61 L 100 60.5 L 99 62.5 L 101 63.5 L 96 71.5 L 99 78 L 104 78 L 104 81.5 L 107 83 L 108.5 86 Q 110.8 85.3 110 87.5 L 116 90 L 116.5 93 L 118 92.5 L 117.5 94 L 121 94 L 121 98 L 122.5 98 L 122.5 99 L 121 99.5 Q 122.2 102.3 123.5 100 L 125.5 101 L 127.5 100 L 127.5 101 L 125.5 102 L 123.5 101 L 125 103.5 L 124 107 Q 121.3 105.9 122 108.5 L 117.5 114 L 116 114.5 Q 118.5 116 115 117.5 Q 106.5 130.3 104 148 L 100 145.5 L 86 125.5 L 79 109.5 L 76 94.5 L 76 82.5 L 79 70.5 L 83 63 L 89.5 59 L 90.5 61 L 91.5 59 Q 92.8 61.3 94 58.5 L 94.5 56 Z" />
 <path fill="rgb(2,50,31)" stroke="rgb(2,50,31)" stroke-width="1" d="M 192.5 147 Q 205.9 160.6 214 179.5 L 219 198.5 L 219 214.5 L 216 225 L 212 222.5 Q 213.3 218.8 209.5 220 L 206 217.5 L 207 195.5 L 206 191.5 L 202.5 187 Q 197.8 187.8 197 184.5 L 193.5 180 L 188 178 L 185.5 171 L 183.5 174 L 184 172.5 L 189 159.5 L 191 148.5 L 192.5 147 Z" />
 <path fill="rgb(28,83,144)" stroke="rgb(28,83,144)" stroke-width="1" d="M 149.5 34 Q 160.9 32.6 168 35.5 L 164 36.5 L 166 37.5 L 162.5 38 L 149.5 35 L 149.5 34 Z" />
 <path fill="rgb(28,83,144)" stroke="rgb(28,83,144)" stroke-width="1" d="M 171.5 37 L 176 37.5 L 171.5 38 L 171.5 37 Z" />
 <path fill="rgb(28,83,144)" stroke="rgb(28,83,144)" stroke-width="1" d="M 159.5 44 L 173.5 44 L 174 46 L 176.5 46 L 176.5 47 L 172.5 48 L 171.5 47 L 160.5 46 L 159.5 44 Z" />
 <path fill="rgb(28,83,144)" stroke="rgb(28,83,144)" stroke-width="1" d="M 182.5 47 L 186 48.5 L 184.5 49 L 182.5 47 Z" />
 <path fill="rgb(28,83,144)" stroke="rgb(28,83,144)" stroke-width="1" d="M 200 68 L 202.5 68 L 212 73.5 Q 211.3 75.8 213.5 75 L 222 84.5 L 224 89 L 221.5 89 L 213.5 83 L 198 75.5 Q 199.1 72.2 196.5 73 L 196.5 72 Q 200.3 72.8 201 70.5 L 200 68 Z" />
 <path fill="rgb(28,83,144)" stroke="rgb(28,83,144)" stroke-width="1" d="M 235.5 100 L 245 108.5 Q 249.5 118.5 251 131.5 L 249 130.5 L 246.5 126 Q 243.9 126.8 245 123.5 L 240 113.5 L 239 108.5 L 235 102.5 L 235.5 100 Z" />
 <path fill="rgb(28,83,144)" stroke="rgb(28,83,144)" stroke-width="1" d="M 214.5 104 L 217 105.5 L 217 108 L 219 108 Q 217.5 111.8 220.5 111 Q 228.5 120 233 132.5 L 238 147.5 L 240 159.5 L 242 161.5 L 241 163.5 L 244 164.5 L 244.5 167 L 245 159 Q 248 157.8 247 161.5 L 248 166.5 L 247 170.5 L 249 170.5 L 248 180.5 L 240 199.5 Q 230.7 216.7 216.5 229 L 217 227.5 L 221 216.5 L 221 197.5 L 215 176.5 L 210 166.5 L 192 143.5 L 192 139.5 L 193 138.5 L 193 124.5 Q 190.3 122.7 192 116.5 L 193.5 114 L 194 116 L 198 113.5 L 198.5 112 L 203.5 113 L 208 110.5 L 207 108.5 L 210.5 107 Q 213 108.2 212 112 Q 216.1 113.7 215 109.5 L 213 105.5 L 214.5 104 Z M 216.5 171 L 215 172.5 L 217 173.5 L 216.5 171 Z M 220 176 Q 219 179 222 178 Q 223 175 220 176 Z" />
 <path fill="rgb(28,83,144)" stroke="rgb(28,83,144)" stroke-width="1" d="M 201.5 158 L 202.5 160 L 201.5 158 Z" />
 <path fill="rgb(28,83,144)" stroke="rgb(28,83,144)" stroke-width="1" d="M 186.5 169 L 187 170.5 L 186 172.5 L 188 172.5 L 187 174.5 L 188 178 L 190.5 178 L 197 183.5 L 199.5 187 Q 203.3 186.3 204 188.5 Q 209.3 195.8 207 210.5 Q 204.5 212 206 217.5 L 212 220 L 213.5 224 L 215 223.5 L 214.5 225 Q 217.1 224.3 216 227 L 214 227.5 Q 216.5 229 213 230.5 L 211.5 233 L 202.5 239 L 204 236.5 L 202.5 235 L 200.5 236 L 197 228.5 Q 202 223.5 203 214.5 L 198.5 209 L 194 205.5 L 191.5 202 L 183 197 L 178.5 191 L 175 190 Q 176 187 173 188 L 173 190 Q 170.3 188.9 171 191.5 L 167.5 194 L 174 186.5 L 183.5 171 L 184.5 173 L 186.5 169 Z" />
 <path fill="rgb(28,83,144)" stroke="rgb(28,83,144)" stroke-width="1" d="M 217.5 219 L 218 221.5 L 216.5 224 L 216 222.5 L 217.5 219 Z" />
 <path fill="rgb(28,83,144)" stroke="rgb(28,83,144)" stroke-width="1" d="M 200.5 239 L 199.5 241 L 200.5 239 Z" />
 <path fill="rgb(162,192,86)" stroke="rgb(162,192,86)" stroke-width="1" d="M 130.5 39 L 126.5 44 L 130.5 39 Z" />
 <path fill="rgb(162,192,86)" stroke="rgb(162,192,86)" stroke-width="1" d="M 117.5 44 L 118 46 L 116 45.5 L 117.5 44 Z" />
 <path fill="rgb(162,192,86)" stroke="rgb(162,192,86)" stroke-width="1" d="M 132.5 44 L 135 45.5 L 133.5 45 L 132.5 44 Z" />
 <path fill="rgb(162,192,86)" stroke="rgb(162,192,86)" stroke-width="1" d="M 140.5 50 L 136.5 55 L 140.5 50 Z" />
 <path fill="rgb(162,192,86)" stroke="rgb(162,192,86)" stroke-width="1" d="M 135.5 56 L 134.5 58 L 135.5 56 Z" />
 <path fill="rgb(162,192,86)" stroke="rgb(162,192,86)" stroke-width="1" d="M 77.5 68 L 78 69.5 L 75 76.5 L 73.5 92 L 72.5 89 Q 71.3 91.3 70 88.5 L 69.5 87 L 69 89.5 L 72 102.5 L 77.5 113 L 79 112.5 L 78 114.5 L 80 115.5 L 79.5 117 Q 82.1 116.2 81 119.5 L 91 136.5 L 90 136.5 L 89.5 135 L 88 135.5 L 88.5 134 Q 86.3 133.3 87 135.5 L 80.5 143 Q 78.3 142.3 79 144.5 Q 75.8 147.8 77 155.5 L 78 156.5 L 79 167.5 L 79 169.5 L 80.5 173 Q 83.5 172.1 82 176.5 L 80.5 176 Q 74.7 175.2 73 178.5 L 74 180.5 L 73 183.5 L 75 183.5 L 74.5 186 L 67 175.5 L 62.5 166 L 61.5 169 Q 60.3 166.8 55.5 168 L 53.5 166 L 51.5 169 L 47 156.5 L 47 154.5 L 45.5 145 L 44 149.5 L 45 152.5 L 44 152.5 L 43.5 151 Q 40.9 153.4 42 159.5 L 44 159.5 L 42.5 167 L 42 160.5 L 39 154.5 L 36 141.5 L 36 136 L 33 137.5 L 33.5 140 L 35 139.5 L 32.5 146 L 32 124.5 L 34 122.5 L 34 116.5 L 37 103.5 L 42.5 91 L 43.5 134 L 46.5 120 L 48 123.5 L 47 127.5 L 48 130 L 51.5 129 L 54 130 L 54 123.5 L 55 122.5 L 55 108.5 L 58 94.5 L 56 94.5 Q 64.7 79.2 77.5 68 Z M 72.5 82 L 72 86.5 L 73 86.5 L 72.5 82 Z M 41.5 95 L 37 107.5 L 37 120 L 42 119 L 41.5 95 Z M 74 157 L 74 164.5 L 75.5 166 L 76 163.5 L 76 161.5 Q 77.7 155.7 74 157 Z M 69 167 L 70.5 171 L 73 170 Q 74.6 165.1 69 167 Z" />
 <path fill="rgb(162,192,86)" stroke="rgb(162,192,86)" stroke-width="1" d="M 129.5 71 Q 128.8 77.7 132 80.5 L 129.5 79 L 127 77.5 Q 126.4 72.4 129.5 71 Z" />
 <path fill="rgb(162,192,86)" stroke="rgb(162,192,86)" stroke-width="1" d="M 74.5 93 L 75 96.5 L 74 96.5 L 74.5 93 Z" />
 <path fill="rgb(162,192,86)" stroke="rgb(162,192,86)" stroke-width="1" d="M 53.5 100 L 54 101.5 L 51.5 105 L 52 103.5 L 53.5 100 Z" />
 <path fill="rgb(162,192,86)" stroke="rgb(162,192,86)" stroke-width="1" d="M 75.5 100 L 76 102.5 L 75 102.5 L 75.5 100 Z" />
 <path fill="rgb(162,192,86)" stroke="rgb(162,192,86)" stroke-width="1" d="M 50.5 107 L 51 108.5 L 49.5 111 L 49 109.5 L 50.5 107 Z" />
 <path fill="rgb(162,192,86)" stroke="rgb(162,192,86)" stroke-width="1" d="M 48.5 112 L 49 114.5 L 48 114.5 L 48.5 112 Z" />
 <path fill="rgb(162,192,86)" stroke="rgb(162,192,86)" stroke-width="1" d="M 47.5 116 L 48 118.5 L 47 118.5 L 47.5 116 Z" />
 <path fill="rgb(162,192,86)" stroke="rgb(162,192,86)" stroke-width="1" d="M 95.5 142 L 96.5 144 L 95.5 142 Z" />
 <path fill="rgb(162,192,86)" stroke="rgb(162,192,86)" stroke-width="1" d="M 32.5 148 Q 34.8 148.8 34 152.5 L 32 151.5 L 32.5 148 Z" />
 <path fill="rgb(162,192,86)" stroke="rgb(162,192,86)" stroke-width="1" d="M 103.5 153 L 127.5 178 L 122 174 L 121.5 172 Q 120.3 174.3 119 171.5 Q 119.8 169.3 117.5 170 L 114 167.5 L 115 173.5 L 113.5 176 Q 110.8 174.6 112 170 L 103 165 L 103.5 153 Z M 105 157 Q 104 161.7 107.5 163 Q 109.8 163.8 109 161.5 L 106 158.5 L 107 157.5 L 105 157 Z" />
 <path fill="rgb(162,192,86)" stroke="rgb(162,192,86)" stroke-width="1" d="M 103.5 168 L 107 175.5 L 107 178.5 L 105 179.5 L 103.5 168 Z" />
 <path fill="rgb(162,192,86)" stroke="rgb(162,192,86)" stroke-width="1" d="M 42.5 169 L 43 173.5 L 42 173.5 L 42.5 169 Z" />
 <path fill="rgb(162,192,86)" stroke="rgb(162,192,86)" stroke-width="1" d="M 45.5 170 L 46 172.5 L 45 172.5 L 45.5 170 Z" />
 <path fill="rgb(162,192,86)" stroke="rgb(162,192,86)" stroke-width="1" d="M 42.5 176 L 43 180 Q 40.3 181.1 41 178.5 L 40.5 177 L 42 177.5 L 42.5 176 Z" />
 <path fill="rgb(162,192,86)" stroke="rgb(162,192,86)" stroke-width="1" d="M 130.5 179 L 136.5 186 L 130.5 179 Z" />
 <path fill="rgb(162,192,86)" stroke="rgb(162,192,86)" stroke-width="1" d="M 50.5 187 Q 67.6 206.4 93.5 217 L 116.5 223 L 131.5 223 L 134.5 224 L 137.5 223 L 139.5 224 L 140.5 223 L 152 223 L 151 233.5 L 152 236 L 148 235.5 L 150 234.5 L 147.5 234 Q 146 236.5 140.5 235 L 122.5 229 L 121 231.5 L 121 233.5 Q 123.2 239.8 117.5 238 Q 114.8 239.3 117 240.5 L 118 242.5 L 116.5 242 Q 100.2 236.3 87.5 227 L 87.5 229 L 84 226.5 L 86 226 L 84.5 223 L 80.5 226 L 79 225.5 L 80.5 228 L 82 227.5 L 81 229.5 L 84.5 234 L 75 225.5 L 73 222.5 L 60 206.5 L 50.5 187 Z M 110.5 233 L 110.5 234 L 115 233.5 L 110.5 233 Z" />
 <path fill="rgb(162,192,86)" stroke="rgb(162,192,86)" stroke-width="1" d="M 140.5 188 L 151.5 200 L 140.5 188 Z" />
 <path fill="rgb(162,192,86)" stroke="rgb(162,192,86)" stroke-width="1" d="M 85.5 189 Q 88.1 188.2 87 191.5 L 84 193.5 L 84 195.5 L 85 198.5 L 84 198.5 Q 84.8 196.3 82.5 197 L 77 190.5 L 82 193.5 L 83 190 L 85.5 189 Z" />
 <path fill="rgb(162,192,86)" stroke="rgb(162,192,86)" stroke-width="1" d="M 159.5 210 L 162 214.5 L 160.5 214 L 158 212.5 L 159.5 210 Z" />
 <path fill="rgb(162,192,86)" stroke="rgb(162,192,86)" stroke-width="1" d="M 86.5 234 L 88.5 237 L 86.5 234 Z" />
 <path fill="rgb(162,192,86)" stroke="rgb(162,192,86)" stroke-width="1" d="M 91.5 238 L 92.5 240 L 91.5 238 Z" />
 <path fill="rgb(93,160,56)" stroke="rgb(93,160,56)" stroke-width="1" d="M 108.5 34 L 113.5 34 L 119.5 39 L 122 39 L 122.5 41 L 123.5 39 L 126 40.5 L 124 41 L 125 43.5 Q 122.7 44.7 125.5 46 L 132 50.5 L 134 53.5 Q 138 55.5 134 57.5 Q 130.2 62.2 130 70.5 L 127 74.5 L 127 77.5 L 132 81.5 L 133 83.5 L 129.5 81 L 126 78.5 L 125 74.5 L 126 70.5 L 122.5 64 Q 118.8 64.8 118 62.5 Q 118.8 58.8 116.5 58 L 114.5 58 L 111.5 59 L 110.5 57 L 113 58 L 112 55.5 L 113 53 L 110 52.5 L 110 50.5 L 109.5 49 L 107 50 Q 105.8 47 109.5 48 L 119 44.5 L 103.5 44 L 100 42 Q 101.1 39.3 98.5 40 L 95.5 39 L 93 40.5 Q 92.3 38.3 94.5 39 L 99.5 37 L 101 37.5 Q 100.1 34.5 104.5 36 L 108.5 34 Z" />
 <path fill="rgb(93,160,56)" stroke="rgb(93,160,56)" stroke-width="1" d="M 129.5 37 L 130.5 39 L 129.5 37 Z" />
 <path fill="rgb(93,160,56)" stroke="rgb(93,160,56)" stroke-width="1" d="M 127.5 41 L 126.5 43 L 127.5 41 Z" />
 <path fill="rgb(93,160,56)" stroke="rgb(93,160,56)" stroke-width="1" d="M 135.5 46 L 139 47.5 L 136.5 48 L 135.5 46 Z" />
 <path fill="rgb(93,160,56)" stroke="rgb(93,160,56)" stroke-width="1" d="M 140.5 48 L 141.5 50 L 140.5 48 Z" />
 <path fill="rgb(93,160,56)" stroke="rgb(93,160,56)" stroke-width="1" d="M 105.5 49 L 104.5 51 L 102 50.5 L 105.5 49 Z" />
 <path fill="rgb(93,160,56)" stroke="rgb(93,160,56)" stroke-width="1" d="M 134.5 49 L 136 49.5 L 135.5 52 L 133 50.5 L 134.5 49 Z" />
 <path fill="rgb(93,160,56)" stroke="rgb(93,160,56)" stroke-width="1" d="M 100.5 51 L 99.5 53 L 98 52.5 L 100.5 51 Z" />
 <path fill="rgb(93,160,56)" stroke="rgb(93,160,56)" stroke-width="1" d="M 137.5 52 L 136.5 54 L 137.5 52 Z" />
 <path fill="rgb(93,160,56)" stroke="rgb(93,160,56)" stroke-width="1" d="M 134.5 87 L 135.5 89 L 134.5 87 Z" />
 <path fill="rgb(93,160,56)" stroke="rgb(93,160,56)" stroke-width="1" d="M 70.5 89 L 73 89.5 L 78 112.5 L 77 112.5 L 71 98.5 L 70.5 89 Z" />
 <path fill="rgb(93,160,56)" stroke="rgb(93,160,56)" stroke-width="1" d="M 136.5 90 L 137.5 92 L 136.5 90 Z" />
 <path fill="rgb(93,160,56)" stroke="rgb(93,160,56)" stroke-width="1" d="M 137.5 93 L 136.5 95 L 137.5 93 Z" />
 <path fill="rgb(93,160,56)" stroke="rgb(93,160,56)" stroke-width="1" d="M 122.5 108 L 121.5 110 L 122.5 108 Z" />
 <path fill="rgb(93,160,56)" stroke="rgb(93,160,56)" stroke-width="1" d="M 88.5 134 L 90 137 Q 92.7 135.9 92 138.5 Q 95.8 139.8 95 144 L 100 147.5 L 96.5 145 L 94.5 144 L 93 147.5 L 94 147.5 L 94.5 146 L 95 149 Q 91.3 147.5 92 150.5 L 94 150.5 L 93 153.5 L 93 158.5 L 98 163.5 L 98 166 L 100.5 165 L 101.5 168 L 102.5 157 L 103 170.5 L 105.5 180 L 107 176 L 112.5 175 L 114 175.5 L 116 169.5 Q 113.7 168.3 116.5 167 L 117.5 170 Q 119.8 169.3 119 171.5 L 122 172.5 Q 121.3 174.8 123.5 174 L 156 204.5 Q 153.5 202.7 151 207.5 L 150 211.5 L 151 211.5 Q 150.3 209.3 152.5 210 L 154.5 211 L 159 209 L 158 212.5 L 162 215.5 L 164 225.5 Q 161.1 239.1 151.5 246 L 139.5 251 L 120.5 251 Q 116.5 248 109.5 248 L 96.5 242 L 81 229.5 L 84 228.5 L 83.5 227 L 86.5 228 L 88.5 227 Q 101.2 237.3 118.5 243 L 118 241.5 Q 117.3 239.3 119.5 240 L 121 240.5 L 122 234.5 L 121.5 233 L 123 232.5 L 121 231.5 L 122.5 231 L 125.5 232 L 125.5 231 L 124 230.5 L 125.5 230 L 140.5 235 L 151.5 236 L 152.5 234 Q 149.1 234.9 151 229.5 L 152 223 L 139.5 223 L 138.5 224 L 135.5 223 L 132.5 224 L 131.5 223 L 117.5 223 L 111.5 221 L 106.5 221 L 89.5 215 Q 65.7 204.8 50 186.5 L 44 165.5 L 43 151.5 L 44 151.5 L 44.5 153 L 45.5 151 L 52 171 L 58.5 171 L 59.5 170 L 61.5 171 L 63.5 171 L 66 172.5 Q 72.3 186.7 82.5 197 L 85 195.5 L 88 189.5 L 83 186.5 Q 82.3 183.9 85 185 L 85 182.5 L 82 176.5 L 82 173 L 79 171.5 L 78 148.5 Q 81.2 139.2 88.5 134 Z M 116 171 L 116 172.5 L 118 171.5 L 116 171 Z M 108.5 178 L 108 180.5 L 109 180.5 L 108.5 178 Z" />
 <path fill="rgb(93,160,56)" stroke="rgb(93,160,56)" stroke-width="1" d="M 35.5 141 L 39 154.5 L 42 160.5 L 43 168.5 L 42 173.5 L 43 175.5 L 41.5 178 Q 38.5 177.5 39 173.5 L 39.5 172 Q 37.3 172.8 38 170.5 L 35 162.5 L 34 149.5 L 32 147.5 L 33 142 L 35.5 141 Z" />
 <path fill="rgb(93,160,56)" stroke="rgb(93,160,56)" stroke-width="1" d="M 192.5 146 L 191.5 148 L 192.5 146 Z" />
 <path fill="rgb(93,160,56)" stroke="rgb(93,160,56)" stroke-width="1" d="M 195.5 150 L 196.5 152 L 195.5 150 Z" />
 <path fill="rgb(93,160,56)" stroke="rgb(93,160,56)" stroke-width="1" d="M 156.5 206 L 157.5 208 L 156.5 206 Z" />
 <path fill="rgb(193,222,199)" stroke="rgb(193,222,199)" stroke-width="1" d="M 106.5 33 L 123.5 33 L 125 34.5 L 123.5 34 L 106.5 34 L 105.5 35 L 106.5 33 Z" />
 <path fill="rgb(193,222,199)" stroke="rgb(193,222,199)" stroke-width="1" d="M 143.5 33 L 146 33.5 L 143.5 34 L 143.5 33 Z" />
 <path fill="rgb(193,222,199)" stroke="rgb(193,222,199)" stroke-width="1" d="M 151.5 33 L 154 33.5 L 151.5 34 L 151.5 33 Z" />
 <path fill="rgb(193,222,199)" stroke="rgb(193,222,199)" stroke-width="1" d="M 155.5 33 L 166.5 33 L 168 34.5 L 166.5 34 L 155.5 34 L 155.5 33 Z" />
 <path fill="rgb(193,222,199)" stroke="rgb(193,222,199)" stroke-width="1" d="M 130.5 40 L 127.5 44 L 130.5 40 Z" />
 <path fill="rgb(193,222,199)" stroke="rgb(193,222,199)" stroke-width="1" d="M 188.5 42 L 189.5 44 L 188.5 42 Z" />
 <path fill="rgb(193,222,199)" stroke="rgb(193,222,199)" stroke-width="1" d="M 116.5 44 L 115.5 46 L 113 45.5 L 116.5 44 Z" />
 <path fill="rgb(193,222,199)" stroke="rgb(193,222,199)" stroke-width="1" d="M 134.5 44 L 137 45.5 L 135.5 46 L 134.5 44 Z" />
 <path fill="rgb(193,222,199)" stroke="rgb(193,222,199)" stroke-width="1" d="M 152.5 44 L 151.5 46 L 150 45.5 L 152.5 44 Z" />
 <path fill="rgb(193,222,199)" stroke="rgb(193,222,199)" stroke-width="1" d="M 141.5 50 L 137 55.5 L 132.5 64 L 132 62.5 Q 135.3 54.8 141.5 50 Z" />
 <path fill="rgb(193,222,199)" stroke="rgb(193,222,199)" stroke-width="1" d="M 204.5 56 L 205.5 58 L 204.5 56 Z" />
 <path fill="rgb(193,222,199)" stroke="rgb(193,222,199)" stroke-width="1" d="M 86.5 59 L 85.5 61 L 86.5 59 Z" />
 <path fill="rgb(193,222,199)" stroke="rgb(193,222,199)" stroke-width="1" d="M 211.5 61 L 213.5 64 L 211.5 61 Z" />
 <path fill="rgb(193,222,199)" stroke="rgb(193,222,199)" stroke-width="1" d="M 81.5 64 L 80 66.5 L 76.5 75 L 76 73.5 L 78 68.5 L 68 77.5 L 59.5 89 L 61 86.5 Q 68.3 73.8 79.5 65 L 81.5 64 Z" />
 <path fill="rgb(193,222,199)" stroke="rgb(193,222,199)" stroke-width="1" d="M 131.5 65 L 132 67.5 L 131 70.5 L 134 76.5 L 131.5 80 L 132 78.5 L 132 73.5 Q 129.3 72.8 130 68.5 L 131.5 65 Z" />
 <path fill="rgb(193,222,199)" stroke="rgb(193,222,199)" stroke-width="1" d="M 130.5 74 L 131 77.5 L 130 77.5 L 130.5 74 Z" />
 <path fill="rgb(193,222,199)" stroke="rgb(193,222,199)" stroke-width="1" d="M 75 76 L 77 76.5 L 75.5 80 L 75 76 Z" />
 <path fill="rgb(193,222,199)" stroke="rgb(193,222,199)" stroke-width="1" d="M 226.5 76 L 227.5 78 L 226.5 76 Z" />
 <path fill="rgb(193,222,199)" stroke="rgb(193,222,199)" stroke-width="1" d="M 75.5 82 L 76 95.5 L 75 95.5 L 74 83.5 L 75.5 82 Z" />
 <path fill="rgb(193,222,199)" stroke="rgb(193,222,199)" stroke-width="1" d="M 133.5 83 L 134 85 L 136 85.5 L 134.5 86 L 133.5 83 Z" />
 <path fill="rgb(193,222,199)" stroke="rgb(193,222,199)" stroke-width="1" d="M 135.5 87 L 138 88.5 L 136.5 89 L 135.5 87 Z" />
 <path fill="rgb(193,222,199)" stroke="rgb(193,222,199)" stroke-width="1" d="M 42.5 89 L 43 90.5 L 41 91.5 L 42.5 89 Z" />
 <path fill="rgb(193,222,199)" stroke="rgb(193,222,199)" stroke-width="1" d="M 58.5 90 L 57.5 92 L 58.5 90 Z" />
 <path fill="rgb(193,222,199)" stroke="rgb(193,222,199)" stroke-width="1" d="M 137.5 90 L 141 92.5 L 139.5 92 L 137.5 90 Z" />
 <path fill="rgb(193,222,199)" stroke="rgb(193,222,199)" stroke-width="1" d="M 56.5 93 L 56 94.5 L 54.5 98 L 54 96.5 L 56.5 93 Z" />
 <path fill="rgb(193,222,199)" stroke="rgb(193,222,199)" stroke-width="1" d="M 138.5 93 L 136.5 96 L 138.5 93 Z" />
 <path fill="rgb(193,222,199)" stroke="rgb(193,222,199)" stroke-width="1" d="M 75.5 97 L 77 100.5 L 75 99.5 L 75.5 97 Z" />
 <path fill="rgb(193,222,199)" stroke="rgb(193,222,199)" stroke-width="1" d="M 53.5 99 L 53 100.5 L 52.5 102 L 52 100.5 L 53.5 99 Z" />
 <path fill="rgb(193,222,199)" stroke="rgb(193,222,199)" stroke-width="1" d="M 76.5 103 L 78 105.5 L 76 104.5 L 76.5 103 Z" />
 <path fill="rgb(193,222,199)" stroke="rgb(193,222,199)" stroke-width="1" d="M 77.5 107 L 78.5 109 Q 75.7 109.7 77.5 107 Z" />
 <path fill="rgb(193,222,199)" stroke="rgb(193,222,199)" stroke-width="1" d="M 157.5 109 L 161.5 114 L 157.5 109 Z" />
 <path fill="rgb(193,222,199)" stroke="rgb(193,222,199)" stroke-width="1" d="M 78.5 110 L 79.5 112 Q 76.7 112.7 78.5 110 Z" />
 <path fill="rgb(193,222,199)" stroke="rgb(193,222,199)" stroke-width="1" d="M 34.5 112 L 35 115.5 L 34 115.5 L 34.5 112 Z" />
 <path fill="rgb(193,222,199)" stroke="rgb(193,222,199)" stroke-width="1" d="M 47.5 113 L 48 115.5 L 47 115.5 L 47.5 113 Z" />
 <path fill="rgb(193,222,199)" stroke="rgb(193,222,199)" stroke-width="1" d="M 79.5 114 Q 81.8 113.3 81 115.5 L 81.5 117 Q 79.3 117.8 80 115.5 L 79.5 114 Z" />
 <path fill="rgb(193,222,199)" stroke="rgb(193,222,199)" stroke-width="1" d="M 46.5 117 L 47 119.5 L 46 119.5 L 46.5 117 Z" />
 <path fill="rgb(193,222,199)" stroke="rgb(193,222,199)" stroke-width="1" d="M 33.5 118 L 34 122.5 L 32 123.5 L 33.5 118 Z" />
 <path fill="rgb(193,222,199)" stroke="rgb(193,222,199)" stroke-width="1" d="M 81.5 119 Q 83.8 118.3 83 120.5 L 83.5 123 L 85 123.5 L 84.5 125 Q 87.1 124.2 86 127.5 L 88.5 131 L 86 129.5 L 81.5 119 Z" />
 <path fill="rgb(193,222,199)" stroke="rgb(193,222,199)" stroke-width="1" d="M 115.5 119 L 114.5 121 L 115.5 119 Z" />
 <path fill="rgb(193,222,199)" stroke="rgb(193,222,199)" stroke-width="1" d="M 169.5 120 L 183.5 135 L 169.5 120 Z" />
 <path fill="rgb(193,222,199)" stroke="rgb(193,222,199)" stroke-width="1" d="M 45.5 121 L 46 124.5 L 45 124.5 L 45.5 121 Z" />
 <path fill="rgb(193,222,199)" stroke="rgb(193,222,199)" stroke-width="1" d="M 44.5 126 L 45 129.5 L 43.5 134 L 43 130.5 L 44.5 126 Z" />
 <path fill="rgb(193,222,199)" stroke="rgb(193,222,199)" stroke-width="1" d="M 88.5 132 L 91 133.5 L 90.5 135 L 88.5 132 Z" />
 <path fill="rgb(193,222,199)" stroke="rgb(193,222,199)" stroke-width="1" d="M 91.5 136 L 94 137.5 L 92.5 138 L 91.5 136 Z" />
 <path fill="rgb(193,222,199)" stroke="rgb(193,222,199)" stroke-width="1" d="M 185.5 136 L 186.5 138 L 185.5 136 Z" />
 <path fill="rgb(193,222,199)" stroke="rgb(193,222,199)" stroke-width="1" d="M 94.5 140 L 97 141 L 96.5 143 L 94.5 140 Z" />
 <path fill="rgb(193,222,199)" stroke="rgb(193,222,199)" stroke-width="1" d="M 191.5 143 L 192.5 145 L 191.5 143 Z" />
 <path fill="rgb(193,222,199)" stroke="rgb(193,222,199)" stroke-width="1" d="M 97.5 144 L 101 146.5 L 99.5 147 L 97.5 144 Z" />
 <path fill="rgb(193,222,199)" stroke="rgb(193,222,199)" stroke-width="1" d="M 194.5 148 L 197 149.5 L 195.5 150 L 194.5 148 Z" />
 <path fill="rgb(193,222,199)" stroke="rgb(193,222,199)" stroke-width="1" d="M 102.5 150 L 103.5 152 L 102.5 150 Z" />
 <path fill="rgb(193,222,199)" stroke="rgb(193,222,199)" stroke-width="1" d="M 32.5 152 Q 34.8 152.8 34 156.5 L 33 156.5 L 32.5 152 Z" />
 <path fill="rgb(193,222,199)" stroke="rgb(193,222,199)" stroke-width="1" d="M 104.5 153 L 129.5 179 L 104.5 153 Z" />
 <path fill="rgb(193,222,199)" stroke="rgb(193,222,199)" stroke-width="1" d="M 198.5 153 Q 200.8 152.3 200 154.5 L 198.5 153 Z" />
 <path fill="rgb(193,222,199)" stroke="rgb(193,222,199)" stroke-width="1" d="M 34.5 159 L 35 161.5 L 34 161.5 L 34.5 159 Z" />
 <path fill="rgb(193,222,199)" stroke="rgb(193,222,199)" stroke-width="1" d="M 204.5 160 L 205.5 162 Q 202.7 162.7 204.5 160 Z" />
 <path fill="rgb(193,222,199)" stroke="rgb(193,222,199)" stroke-width="1" d="M 43.5 162 L 44 164.5 L 43 164.5 L 43.5 162 Z" />
 <path fill="rgb(193,222,199)" stroke="rgb(193,222,199)" stroke-width="1" d="M 252.5 162 L 253 164.5 L 251.5 167 L 251 165.5 L 252.5 162 Z" />
 <path fill="rgb(193,222,199)" stroke="rgb(193,222,199)" stroke-width="1" d="M 206.5 163 L 207.5 165 L 206.5 163 Z" />
 <path fill="rgb(193,222,199)" stroke="rgb(193,222,199)" stroke-width="1" d="M 44.5 167 L 45 169.5 L 44 169.5 L 44.5 167 Z" />
 <path fill="rgb(193,222,199)" stroke="rgb(193,222,199)" stroke-width="1" d="M 40.5 178 L 41 180 Q 44.3 178.7 43 183.5 L 42 183.5 L 40.5 178 Z" />
 <path fill="rgb(193,222,199)" stroke="rgb(193,222,199)" stroke-width="1" d="M 133.5 181 L 139.5 188 L 133.5 181 Z" />
 <path fill="rgb(193,222,199)" stroke="rgb(193,222,199)" stroke-width="1" d="M 215.5 182 L 216.5 184 L 215.5 182 Z" />
 <path fill="rgb(193,222,199)" stroke="rgb(193,222,199)" stroke-width="1" d="M 173.5 185 L 171.5 188 L 173.5 185 Z" />
 <path fill="rgb(193,222,199)" stroke="rgb(193,222,199)" stroke-width="1" d="M 216.5 185 L 217.5 187 L 216.5 185 Z" />
 <path fill="rgb(193,222,199)" stroke="rgb(193,222,199)" stroke-width="1" d="M 50.5 188 L 54 194.5 L 52 193.5 L 50.5 188 Z" />
 <path fill="rgb(193,222,199)" stroke="rgb(193,222,199)" stroke-width="1" d="M 217.5 189 L 218.5 191 L 217.5 189 Z" />
 <path fill="rgb(193,222,199)" stroke="rgb(193,222,199)" stroke-width="1" d="M 145.5 192 L 148.5 196 L 145.5 192 Z" />
 <path fill="rgb(193,222,199)" stroke="rgb(193,222,199)" stroke-width="1" d="M 218.5 193 Q 220.8 192.3 220 194.5 L 218.5 193 Z" />
 <path fill="rgb(193,222,199)" stroke="rgb(193,222,199)" stroke-width="1" d="M 54.5 196 L 59 203.5 L 57 202.5 L 54 197.5 L 54.5 196 Z" />
 <path fill="rgb(193,222,199)" stroke="rgb(193,222,199)" stroke-width="1" d="M 162.5 196 L 159.5 200 L 162.5 196 Z" />
 <path fill="rgb(193,222,199)" stroke="rgb(193,222,199)" stroke-width="1" d="M 150.5 197 L 151.5 199 L 150.5 197 Z" />
 <path fill="rgb(193,222,199)" stroke="rgb(193,222,199)" stroke-width="1" d="M 152.5 200 Q 154.8 204.2 157 202.5 L 158 204.5 L 156.5 205 L 152.5 200 Z" />
 <path fill="rgb(193,222,199)" stroke="rgb(193,222,199)" stroke-width="1" d="M 219.5 200 Q 221.8 200.8 221 204.5 L 220 204.5 L 219.5 200 Z" />
 <path fill="rgb(193,222,199)" stroke="rgb(193,222,199)" stroke-width="1" d="M 59.5 205 L 73 222.5 L 66 216.5 L 59 206.5 L 59.5 205 Z" />
 <path fill="rgb(193,222,199)" stroke="rgb(193,222,199)" stroke-width="1" d="M 236.5 206 L 235.5 208 L 236.5 206 Z" />
 <path fill="rgb(193,222,199)" stroke="rgb(193,222,199)" stroke-width="1" d="M 220.5 207 L 221 212.5 L 219 213.5 L 220.5 207 Z" />
 <path fill="rgb(193,222,199)" stroke="rgb(193,222,199)" stroke-width="1" d="M 234.5 209 L 233.5 211 L 234.5 209 Z" />
 <path fill="rgb(193,222,199)" stroke="rgb(193,222,199)" stroke-width="1" d="M 231.5 213 L 230.5 215 L 231.5 213 Z" />
 <path fill="rgb(193,222,199)" stroke="rgb(193,222,199)" stroke-width="1" d="M 163.5 218 Q 165.8 217.3 165 219.5 L 163.5 218 Z" />
 <path fill="rgb(193,222,199)" stroke="rgb(193,222,199)" stroke-width="1" d="M 219.5 218 L 219 219.5 L 218.5 222 L 218 219.5 L 219.5 218 Z" />
 <path fill="rgb(193,222,199)" stroke="rgb(193,222,199)" stroke-width="1" d="M 227.5 218 L 224.5 222 L 227.5 218 Z" />
 <path fill="rgb(193,222,199)" stroke="rgb(193,222,199)" stroke-width="1" d="M 164.5 222 L 165 227.5 L 164 227.5 L 164.5 222 Z" />
 <path fill="rgb(193,222,199)" stroke="rgb(193,222,199)" stroke-width="1" d="M 217.5 223 L 218 224.5 L 216.5 227 L 216 225.5 L 217.5 223 Z" />
 <path fill="rgb(193,222,199)" stroke="rgb(193,222,199)" stroke-width="1" d="M 73.5 224 Q 75.8 223.3 75 225.5 L 73.5 224 Z" />
 <path fill="rgb(193,222,199)" stroke="rgb(193,222,199)" stroke-width="1" d="M 219.5 226 L 216.5 230 L 215.5 228 L 216.5 229 L 219.5 226 Z" />
 <path fill="rgb(193,222,199)" stroke="rgb(193,222,199)" stroke-width="1" d="M 79.5 229 L 83.5 234 L 79.5 229 Z" />
 <path fill="rgb(193,222,199)" stroke="rgb(193,222,199)" stroke-width="1" d="M 214.5 230 L 210.5 235 L 214.5 230 Z" />
 <path fill="rgb(193,222,199)" stroke="rgb(193,222,199)" stroke-width="1" d="M 163.5 231 L 162.5 233 L 163.5 231 Z" />
 <path fill="rgb(193,222,199)" stroke="rgb(193,222,199)" stroke-width="1" d="M 85.5 234 L 87.5 237 L 85.5 234 Z" />
 <path fill="rgb(193,222,199)" stroke="rgb(193,222,199)" stroke-width="1" d="M 161.5 234 L 162 235.5 L 160 236.5 L 161.5 234 Z" />
 <path fill="rgb(193,222,199)" stroke="rgb(193,222,199)" stroke-width="1" d="M 89.5 237 L 91.5 240 L 89.5 237 Z" />
 <path fill="rgb(193,222,199)" stroke="rgb(193,222,199)" stroke-width="1" d="M 93.5 240 L 97 242.5 L 95.5 242 L 93.5 240 Z" />
 <path fill="rgb(193,222,199)" stroke="rgb(193,222,199)" stroke-width="1" d="M 201.5 240 L 200.5 242 L 201.5 240 Z" />
 <path fill="rgb(193,222,199)" stroke="rgb(193,222,199)" stroke-width="1" d="M 151.5 246 L 154 247.5 L 152.5 247 L 151.5 246 Z" />
 <path fill="rgb(193,222,199)" stroke="rgb(193,222,199)" stroke-width="1" d="M 112.5 249 L 115 249.5 L 112.5 250 L 112.5 249 Z" />
 <path fill="rgb(193,222,199)" stroke="rgb(193,222,199)" stroke-width="1" d="M 120.5 251 L 140 251.5 L 120.5 252 L 120.5 251 Z" />
 <path fill="rgb(193,222,199)" stroke="rgb(193,222,199)" stroke-width="1" d="M 163.5 251 L 171 251.5 L 163.5 252 L 163.5 251 Z" />
 <path fill="rgb(120,178,194)" stroke="rgb(120,178,194)" stroke-width="1" d="M 146.5 33 L 151 33.5 L 146.5 34 L 146.5 33 Z" />
 <path fill="rgb(120,178,194)" stroke="rgb(120,178,194)" stroke-width="1" d="M 142.5 34 L 144 34.5 L 140.5 36 L 140.5 35 L 142.5 34 Z" />
 <path fill="rgb(120,178,194)" stroke="rgb(120,178,194)" stroke-width="1" d="M 135.5 37 L 134.5 39 L 135.5 37 Z" />
 <path fill="rgb(120,178,194)" stroke="rgb(120,178,194)" stroke-width="1" d="M 131.5 38 L 133 39.5 L 128.5 44 L 131 40.5 L 131.5 38 Z" />
 <path fill="rgb(120,178,194)" stroke="rgb(120,178,194)" stroke-width="1" d="M 153.5 44 L 154 46 L 152 45.5 L 153.5 44 Z" />
 <path fill="rgb(120,178,194)" stroke="rgb(120,178,194)" stroke-width="1" d="M 176.5 44 L 179 45.5 L 176 46 L 176.5 44 Z" />
 <path fill="rgb(120,178,194)" stroke="rgb(120,178,194)" stroke-width="1" d="M 145.5 48 L 144.5 50 L 138 55.5 L 135.5 59 L 137 56.5 L 142 49 L 145.5 48 Z" />
 <path fill="rgb(120,178,194)" stroke="rgb(120,178,194)" stroke-width="1" d="M 192.5 50 L 195 51.5 L 193.5 51 L 192.5 50 Z" />
 <path fill="rgb(120,178,194)" stroke="rgb(120,178,194)" stroke-width="1" d="M 88.5 58 L 87.5 60 L 88.5 58 Z" />
 <path fill="rgb(120,178,194)" stroke="rgb(120,178,194)" stroke-width="1" d="M 206.5 58 L 207.5 60 L 206.5 58 Z" />
 <path fill="rgb(120,178,194)" stroke="rgb(120,178,194)" stroke-width="1" d="M 209.5 60 L 211.5 63 L 209.5 60 Z" />
 <path fill="rgb(120,178,194)" stroke="rgb(120,178,194)" stroke-width="1" d="M 84.5 61 L 82.5 64 L 84.5 61 Z" />
 <path fill="rgb(120,178,194)" stroke="rgb(120,178,194)" stroke-width="1" d="M 131.5 64 Q 133.8 63.3 133 65.5 L 131.5 64 Z" />
 <path fill="rgb(120,178,194)" stroke="rgb(120,178,194)" stroke-width="1" d="M 214.5 64 L 225.5 76 L 214.5 64 Z" />
 <path fill="rgb(120,178,194)" stroke="rgb(120,178,194)" stroke-width="1" d="M 130.5 67 L 132 71 L 136 73.5 Q 136.8 79.3 133.5 81 L 133 77.5 L 134 74.5 Q 130.3 71.5 130.5 67 Z" />
 <path fill="rgb(120,178,194)" stroke="rgb(120,178,194)" stroke-width="1" d="M 227.5 78 L 230.5 82 L 227.5 78 Z" />
 <path fill="rgb(120,178,194)" stroke="rgb(120,178,194)" stroke-width="1" d="M 231.5 83 L 232.5 85 L 231.5 83 Z" />
 <path fill="rgb(120,178,194)" stroke="rgb(120,178,194)" stroke-width="1" d="M 233.5 86 L 234.5 88 L 233.5 86 Z" />
 <path fill="rgb(120,178,194)" stroke="rgb(120,178,194)" stroke-width="1" d="M 138.5 89 L 139.5 91 L 138.5 89 Z" />
 <path fill="rgb(120,178,194)" stroke="rgb(120,178,194)" stroke-width="1" d="M 235.5 89 L 238 92.5 L 236 91.5 L 235.5 89 Z" />
 <path fill="rgb(120,178,194)" stroke="rgb(120,178,194)" stroke-width="1" d="M 141.5 93 L 156.5 109 L 141.5 93 Z" />
 <path fill="rgb(120,178,194)" stroke="rgb(120,178,194)" stroke-width="1" d="M 238.5 94 L 242 100.5 L 241 100.5 L 238.5 94 Z" />
 <path fill="rgb(120,178,194)" stroke="rgb(120,178,194)" stroke-width="1" d="M 131.5 99 L 128.5 103 L 131.5 99 Z" />
 <path fill="rgb(120,178,194)" stroke="rgb(120,178,194)" stroke-width="1" d="M 126.5 104 L 123.5 108 L 126.5 104 Z" />
 <path fill="rgb(120,178,194)" stroke="rgb(120,178,194)" stroke-width="1" d="M 120.5 111 L 119.5 113 L 120.5 111 Z" />
 <path fill="rgb(120,178,194)" stroke="rgb(120,178,194)" stroke-width="1" d="M 160.5 111 L 168.5 120 L 160.5 111 Z" />
 <path fill="rgb(120,178,194)" stroke="rgb(120,178,194)" stroke-width="1" d="M 251.5 131 L 253 137.5 L 252 137.5 L 251.5 131 Z" />
 <path fill="rgb(120,178,194)" stroke="rgb(120,178,194)" stroke-width="1" d="M 94.5 138 L 93.5 140 L 94.5 138 Z" />
 <path fill="rgb(120,178,194)" stroke="rgb(120,178,194)" stroke-width="1" d="M 187.5 138 L 191.5 143 L 187.5 138 Z" />
 <path fill="rgb(120,178,194)" stroke="rgb(120,178,194)" stroke-width="1" d="M 97.5 142 L 98.5 144 L 97.5 142 Z" />
 <path fill="rgb(120,178,194)" stroke="rgb(120,178,194)" stroke-width="1" d="M 193.5 145 L 195.5 148 L 193 147.5 L 193.5 145 Z" />
 <path fill="rgb(120,178,194)" stroke="rgb(120,178,194)" stroke-width="1" d="M 101.5 147 L 103.5 150 L 100 148.5 L 101.5 147 Z" />
 <path fill="rgb(120,178,194)" stroke="rgb(120,178,194)" stroke-width="1" d="M 197.5 150 Q 200.5 151.5 197.5 153 L 197.5 150 Z" />
 <path fill="rgb(120,178,194)" stroke="rgb(120,178,194)" stroke-width="1" d="M 200.5 154 Q 203.5 155.5 200.5 157 L 200.5 154 Z" />
 <path fill="rgb(120,178,194)" stroke="rgb(120,178,194)" stroke-width="1" d="M 203.5 158 Q 206.5 159.5 203.5 161 L 203.5 158 Z" />
 <path fill="rgb(120,178,194)" stroke="rgb(120,178,194)" stroke-width="1" d="M 252.5 158 L 253 161.5 L 251.5 165 L 251 162.5 L 252.5 158 Z" />
 <path fill="rgb(120,178,194)" stroke="rgb(120,178,194)" stroke-width="1" d="M 206.5 162 L 206.5 165 Q 203.5 163.5 206.5 162 Z" />
 <path fill="rgb(120,178,194)" stroke="rgb(120,178,194)" stroke-width="1" d="M 208.5 165 L 207.5 167 L 208.5 165 Z" />
 <path fill="rgb(120,178,194)" stroke="rgb(120,178,194)" stroke-width="1" d="M 250.5 167 L 251 169.5 L 250 169.5 L 250.5 167 Z" />
 <path fill="rgb(120,178,194)" stroke="rgb(120,178,194)" stroke-width="1" d="M 211.5 170 L 210.5 172 L 211.5 170 Z" />
 <path fill="rgb(120,178,194)" stroke="rgb(120,178,194)" stroke-width="1" d="M 214.5 177 L 213.5 179 L 214.5 177 Z" />
 <path fill="rgb(120,178,194)" stroke="rgb(120,178,194)" stroke-width="1" d="M 216.5 182 L 215.5 184 L 216.5 182 Z" />
 <path fill="rgb(120,178,194)" stroke="rgb(120,178,194)" stroke-width="1" d="M 175.5 183 L 174.5 185 L 175.5 183 Z" />
 <path fill="rgb(120,178,194)" stroke="rgb(120,178,194)" stroke-width="1" d="M 217.5 185 L 217 186.5 L 216.5 188 L 216 186.5 L 217.5 185 Z" />
 <path fill="rgb(120,178,194)" stroke="rgb(120,178,194)" stroke-width="1" d="M 171.5 188 L 162.5 198 L 171.5 188 Z" />
 <path fill="rgb(120,178,194)" stroke="rgb(120,178,194)" stroke-width="1" d="M 218.5 188 L 219 189.5 L 217 190.5 L 218.5 188 Z" />
 <path fill="rgb(120,178,194)" stroke="rgb(120,178,194)" stroke-width="1" d="M 220.5 198 L 221 200.5 L 220 200.5 L 220.5 198 Z" />
 <path fill="rgb(120,178,194)" stroke="rgb(120,178,194)" stroke-width="1" d="M 158.5 200 L 157.5 202 L 158.5 200 Z" />
 <path fill="rgb(120,178,194)" stroke="rgb(120,178,194)" stroke-width="1" d="M 219.5 202 L 221 215.5 L 220 215.5 Q 217.5 210.3 219.5 202 Z" />
 <path fill="rgb(120,178,194)" stroke="rgb(120,178,194)" stroke-width="1" d="M 238.5 202 L 237.5 204 L 238.5 202 Z" />
 <path fill="rgb(120,178,194)" stroke="rgb(120,178,194)" stroke-width="1" d="M 156.5 205 L 160 206.5 L 157.5 207 L 156.5 205 Z" />
 <path fill="rgb(120,178,194)" stroke="rgb(120,178,194)" stroke-width="1" d="M 160.5 208 L 164 210.5 L 163.5 215 L 160.5 208 Z" />
 <path fill="rgb(120,178,194)" stroke="rgb(120,178,194)" stroke-width="1" d="M 232.5 211 L 231.5 213 L 232.5 211 Z" />
 <path fill="rgb(120,178,194)" stroke="rgb(120,178,194)" stroke-width="1" d="M 229.5 215 L 228.5 217 L 229.5 215 Z" />
 <path fill="rgb(120,178,194)" stroke="rgb(120,178,194)" stroke-width="1" d="M 218.5 217 L 220 219.5 L 218 218.5 L 218.5 217 Z" />
 <path fill="rgb(120,178,194)" stroke="rgb(120,178,194)" stroke-width="1" d="M 216.5 224 L 217.5 226 L 216.5 224 Z" />
 <path fill="rgb(120,178,194)" stroke="rgb(120,178,194)" stroke-width="1" d="M 221.5 224 L 220.5 226 L 221.5 224 Z" />
 <path fill="rgb(120,178,194)" stroke="rgb(120,178,194)" stroke-width="1" d="M 163.5 228 Q 165.8 227.3 165 229.5 L 163.5 228 Z" />
 <path fill="rgb(120,178,194)" stroke="rgb(120,178,194)" stroke-width="1" d="M 214.5 229 L 216 229.5 L 213.5 231 L 214.5 229 Z" />
 <path fill="rgb(120,178,194)" stroke="rgb(120,178,194)" stroke-width="1" d="M 162.5 231 Q 165.3 232.3 163 233.5 L 162.5 235 L 161.5 233 L 163 232.5 L 162.5 231 Z" />
 <path fill="rgb(120,178,194)" stroke="rgb(120,178,194)" stroke-width="1" d="M 209.5 234 L 208.5 236 L 209.5 234 Z" />
 <path fill="rgb(120,178,194)" stroke="rgb(120,178,194)" stroke-width="1" d="M 160.5 235 Q 163.8 236.8 160 238.5 L 154 246.5 L 154.5 248 L 152 245.5 L 157.5 240 L 159 240 Q 157.5 236.2 160.5 237 L 160.5 235 Z" />
 <path fill="rgb(120,178,194)" stroke="rgb(120,178,194)" stroke-width="1" d="M 205.5 237 L 204.5 239 L 205.5 237 Z" />
 <path fill="rgb(120,178,194)" stroke="rgb(120,178,194)" stroke-width="1" d="M 159.5 249 L 162 250.5 L 160.5 251 L 159.5 249 Z" />
</svg>