<svg viewBox="0 0 274 274" version="1.1" xmlns="http://www.w3.org/2000/svg" desc="Created with imagetracer-ts 1.0.2" >
 <path fill="rgb(252,253,253)" stroke="rgb(252,253,253)" stroke-width="1" d="M 0 0 L 274 0 L 274 274 L 0 274 L 0 0 Z M 168.5 28 L 168 30 L 157.5 31 L 151.5 35 L 149.5 34 L 149 35.5 L 140.5 41 L 129 52.5 L 127 56.5 L 124 58 L 124 60.5 Q 118 65.1 116 73 Q 108.4 73.9 103.5 71 L 90.5 71 L 72.5 75 L 55.5 87 L 53.5 87 L 54 88.5 L 52 89 L 40 105.5 L 34 126.5 L 34 144.5 Q 36.3 145.8 35 150.5 L 41 163.5 L 51 177.5 L 57.5 184 L 73.5 193 L 92.5 197 L 111.5 198 L 113.5 198 L 118 211.5 L 125 222.5 L 139.5 236 Q 142.1 235.3 141 238 L 151.5 242 Q 153.8 241.3 153 243.5 L 154.5 243 L 165.5 246 L 189.5 245 L 207.5 238 L 215.5 231 Q 218.8 232.1 218 229.5 L 221.5 227 Q 219.6 224.3 225 221.5 Q 224.3 218.9 227 220 L 227 217.5 L 233 206.5 L 236 195.5 L 236 173.5 L 234 165.5 L 232 158.5 L 221 138.5 Q 219.5 134.1 222.5 135 Q 228.8 129.8 232 121.5 L 234 121.5 L 233 119.5 L 238 110.5 Q 237.3 104.8 240 102.5 L 240 80.5 L 236 66.5 L 231 58.5 Q 232 54.8 229 56 L 223 47.5 Q 223.8 45.3 221.5 46 L 218 41.5 Q 216.8 38.8 215.5 41 L 212.5 39 L 207.5 34 L 206.5 35 L 195.5 30 L 184.5 28 L 174.5 28 L 173.5 29 L 168.5 28 Z" />
 <path fill="rgb(252,253,253)" stroke="rgb(252,253,253)" stroke-width="1" d="M 177.5 84 L 178 85.5 L 170 106.5 L 166 123.5 L 166 147.5 L 181 185.5 L 177 182.5 L 175 179.5 L 171.5 174 Q 169.8 176.8 168 172.5 L 161 163 L 157 162 Q 158.1 159.3 155.5 160 L 151 157 L 149.5 154 L 127.5 143 L 93 138.5 L 98.5 136 L 103.5 136 L 120.5 132 L 140 125 Q 138.8 122 142.5 123 L 155 114 L 169.5 95 L 171 95 L 171 92 Q 173.7 93.1 173 90.5 L 177.5 84 Z" />
 <path fill="rgb(6,136,156)" stroke="rgb(6,136,156)" stroke-width="1" d="M 172.5 29 L 179 29.5 L 172.5 30 L 172.5 29 Z" />
 <path fill="rgb(6,136,156)" stroke="rgb(6,136,156)" stroke-width="1" d="M 183.5 29 L 187 29.5 L 183.5 30 L 183.5 29 Z" />
 <path fill="rgb(6,136,156)" stroke="rgb(6,136,156)" stroke-width="1" d="M 162.5 31 L 164 31.5 L 160 34 L 160 36 Q 162.7 34.9 162 37.5 L 166 45 Q 169 43.8 168 47.5 L 170 52 Q 173 50.8 172 54.5 L 175 59 L 187 68.5 L 182 75.5 L 182.5 77 Q 181.3 74.8 180 77.5 L 171.5 89 L 173 86.5 L 175 80.5 L 165 72.5 L 163.5 70 L 160 67.5 L 159 64 Q 155.3 65.5 156 62.5 L 154 59 L 149 55.5 L 145.5 50 L 143 48.5 Q 144.5 44.1 141.5 45 L 140 44.5 Q 141.3 48.3 137.5 47 L 135 48.5 Q 143.2 38.2 156.5 33 L 158.5 34 L 158.5 32 L 160.5 33 L 162.5 31 Z" />
 <path fill="rgb(6,136,156)" stroke="rgb(6,136,156)" stroke-width="1" d="M 90.5 72 L 97.5 73 L 101.5 72 L 115 75.5 L 102 101 L 88 92 Q 89.5 88.3 86.5 89 L 83 87 L 83 84 L 80 84 Q 81.7 79.9 77.5 81 L 74 79.5 L 86 74.5 L 84 73.5 L 85.5 73 L 88.5 74 L 90.5 72 Z" />
 <path fill="rgb(6,136,156)" stroke="rgb(6,136,156)" stroke-width="1" d="M 239.5 84 L 240 87.5 L 239 87.5 L 239.5 84 Z" />
 <path fill="rgb(6,136,156)" stroke="rgb(6,136,156)" stroke-width="1" d="M 239.5 95 L 240 97.5 L 239 97.5 L 239.5 95 Z" />
 <path fill="rgb(6,136,156)" stroke="rgb(6,136,156)" stroke-width="1" d="M 44.5 105 L 45 107.5 L 44 107.5 L 44.5 105 Z" />
 <path fill="rgb(6,136,156)" stroke="rgb(6,136,156)" stroke-width="1" d="M 44.5 110 L 45 112.5 L 44 112.5 L 44.5 110 Z" />
 <path fill="rgb(6,136,156)" stroke="rgb(6,136,156)" stroke-width="1" d="M 166.5 131 L 167 141.5 L 166 141.5 L 166.5 131 Z" />
 <path fill="rgb(6,136,156)" stroke="rgb(6,136,156)" stroke-width="1" d="M 224.5 131 L 223.5 133 L 224.5 131 Z" />
 <path fill="rgb(6,136,156)" stroke="rgb(6,136,156)" stroke-width="1" d="M 221.5 134 L 220 136.5 L 219.5 138 L 219 136.5 L 221.5 134 Z" />
 <path fill="rgb(6,136,156)" stroke="rgb(6,136,156)" stroke-width="1" d="M 80.5 135 L 78.5 138 L 77 137.5 L 80.5 135 Z" />
 <path fill="rgb(6,136,156)" stroke="rgb(6,136,156)" stroke-width="1" d="M 225.5 153 L 228.5 159 L 229.5 157 L 230 158.5 L 229 160.5 L 230.5 163 L 232 162.5 L 231 166 L 233 166.5 L 233 170.5 L 235 174.5 L 236 188.5 L 232 205.5 Q 227.5 217 219.5 225 L 222 221.5 L 230 206.5 L 229.5 205 L 231 204.5 L 230 202.5 L 231 199.5 L 229.5 194 L 228 200 L 224.5 198 L 224 200 L 202.5 200 L 199 201 Q 200.3 204 196.5 203 L 193.5 202 Q 190.3 203.3 190.5 208 Q 187.4 194.1 181 183.5 L 181.5 182 L 180 181.5 L 180.5 180 Q 177.9 180.8 179 177.5 L 179 175.5 L 178.5 174 L 177 174.5 L 178 171.5 L 177 171.5 L 176.5 173 L 176 171.5 L 179 169.5 Q 178.3 174.3 181.5 175 L 184.5 173 Q 185.8 170 190 171 Q 188.8 168 192.5 169 L 205 167 Q 203.6 163 210.5 165 L 214.5 162 Q 221.3 163.8 223 160.5 L 225 156.5 L 225 154.5 L 225.5 153 Z M 225.5 157 L 225 159.5 L 226 159.5 L 225.5 157 Z" />
 <path fill="rgb(6,136,156)" stroke="rgb(6,136,156)" stroke-width="1" d="M 153.5 160 L 154.5 162 L 153.5 160 Z" />
 <path fill="rgb(6,136,156)" stroke="rgb(6,136,156)" stroke-width="1" d="M 159.5 165 L 160.5 167 L 159.5 165 Z" />
 <path fill="rgb(6,136,156)" stroke="rgb(6,136,156)" stroke-width="1" d="M 162.5 168 L 166.5 173 L 164 172 L 162.5 168 Z" />
 <path fill="rgb(6,136,156)" stroke="rgb(6,136,156)" stroke-width="1" d="M 168.5 175 L 172 180 Q 174.7 178.9 174 181.5 L 184 193.5 L 185 197 L 182 195.5 L 183 193.5 L 181 193 L 178.5 188 Q 176.8 190.8 175 186.5 L 176 184.5 L 173 183.5 L 173.5 182 Q 171.3 182.8 172 180.5 L 168.5 175 Z" />
 <path fill="rgb(6,136,156)" stroke="rgb(6,136,156)" stroke-width="1" d="M 178.5 193 L 180.5 196 L 178.5 196 L 175 195.5 L 179 194.5 L 178.5 193 Z" />
 <path fill="rgb(6,136,156)" stroke="rgb(6,136,156)" stroke-width="1" d="M 156.5 194 L 162 194.5 L 156.5 195 L 156.5 194 Z" />
 <path fill="rgb(6,136,156)" stroke="rgb(6,136,156)" stroke-width="1" d="M 165.5 194 L 168 194.5 L 165.5 195 L 165.5 194 Z" />
 <path fill="rgb(6,136,156)" stroke="rgb(6,136,156)" stroke-width="1" d="M 137.5 195 L 146 195.5 L 137.5 196 L 137.5 195 Z" />
 <path fill="rgb(6,136,156)" stroke="rgb(6,136,156)" stroke-width="1" d="M 119.5 196 L 129 196.5 L 119.5 197 L 119.5 196 Z" />
 <path fill="rgb(6,136,156)" stroke="rgb(6,136,156)" stroke-width="1" d="M 191.5 210 L 192 212.5 L 191 212.5 L 191.5 210 Z" />
 <path fill="rgb(6,136,156)" stroke="rgb(6,136,156)" stroke-width="1" d="M 192.5 216 L 193 222.5 L 192 222.5 L 192.5 216 Z" />
 <path fill="rgb(6,136,156)" stroke="rgb(6,136,156)" stroke-width="1" d="M 175.5 243 L 176 245 L 173 244.5 L 175.5 243 Z" />
 <path fill="rgb(5,47,123)" stroke="rgb(5,47,123)" stroke-width="1" d="M 185.5 30 Q 191.3 29.3 194 31.5 L 191.5 32 Q 190.3 29.7 185.5 31 L 185.5 30 Z" />
 <path fill="rgb(5,47,123)" stroke="rgb(5,47,123)" stroke-width="1" d="M 195.5 32 L 198.5 32 L 208 36 Q 206.8 39 210.5 38 L 218 43 Q 216.9 45.7 219.5 45 L 228 54.5 L 230 59.5 L 228.5 59 L 217.5 54 L 210.5 54 L 202.5 56 L 196 60 Q 197.1 62.7 194.5 62 L 188 67.5 Q 196.8 55.9 211 51 Q 212.1 48.3 209.5 49 L 209.5 48 L 211 47.5 Q 209 43.8 207 45.5 L 207.5 42 L 209.5 43 L 209 41.5 L 206.5 38 L 203 38 Q 204.1 35.3 201.5 36 L 195.5 33 L 195.5 32 Z" />
 <path fill="rgb(5,47,123)" stroke="rgb(5,47,123)" stroke-width="1" d="M 231.5 60 L 230.5 62 L 231.5 60 Z" />
 <path fill="rgb(5,47,123)" stroke="rgb(5,47,123)" stroke-width="1" d="M 187.5 69 L 185.5 72 L 187.5 69 Z" />
 <path fill="rgb(5,47,123)" stroke="rgb(5,47,123)" stroke-width="1" d="M 183 75 Q 185.7 73.9 185 76.5 L 196 98.5 L 203.5 108 L 207 109 Q 205.6 105 212.5 107 L 214 103 L 231.5 103 L 233.5 102 Q 236.8 102.8 236 107.5 L 235 112 Q 231.7 110.7 233 115.5 L 227.5 126 Q 225.3 125.3 226 127.5 L 224 131 Q 221.3 129.9 222 132.5 L 218.5 137 L 218 133.5 L 205 115.5 L 204 112 Q 201.3 113.1 202 110.5 L 193.5 97 L 192.5 99 L 192 97.5 L 193 95.5 Q 189.3 94.2 190 90 Q 187.3 91.1 188 88.5 L 184.5 85 L 183 86.5 L 184 88.5 L 182.5 89 L 179.5 87 L 178.5 94 L 177 93.5 Q 177 100.5 173 103.5 L 174 105.5 L 172 109.5 L 168.5 123 L 168 119.5 L 176 91.5 L 183 75 Z" />
 <path fill="rgb(5,47,123)" stroke="rgb(5,47,123)" stroke-width="1" d="M 167.5 125 L 168 132.5 L 167 132.5 L 167.5 125 Z" />
 <path fill="rgb(3,94,94)" stroke="rgb(3,94,94)" stroke-width="1" d="M 93.5 72 L 98 72.5 L 93.5 73 L 93.5 72 Z" />
 <path fill="rgb(3,94,94)" stroke="rgb(3,94,94)" stroke-width="1" d="M 86.5 73 L 89 73.5 L 81 76.5 L 83 77.5 L 81.5 78 L 78.5 77 L 74 79.5 L 80 81 L 80 84 L 83 84 Q 81.5 87.8 84.5 87 L 88 89 Q 86.5 92.7 89.5 92 L 101 101.5 Q 92.7 120.2 80.5 135 L 79 135 L 78.5 137 L 73.5 137 Q 62.5 135 54.5 130 L 49 124.5 L 46 119.5 L 44 108.5 L 45 107.5 L 45 101 Q 48 102.3 47 98.5 L 50.5 93 L 52 93 L 52 91 L 54 91 L 54 89 Q 56.7 90.1 56 87.5 L 59 86.5 L 61.5 83 L 67.5 79 L 86.5 73 Z" />
 <path fill="rgb(3,94,94)" stroke="rgb(3,94,94)" stroke-width="1" d="M 239.5 88 L 240 94.5 L 239 94.5 L 239.5 88 Z" />
 <path fill="rgb(3,94,94)" stroke="rgb(3,94,94)" stroke-width="1" d="M 226.5 151 L 229 156.5 L 227 155.5 L 226.5 151 Z" />
 <path fill="rgb(3,94,94)" stroke="rgb(3,94,94)" stroke-width="1" d="M 230.5 160 L 231 162.5 L 230 162.5 L 230.5 160 Z" />
 <path fill="rgb(3,94,94)" stroke="rgb(3,94,94)" stroke-width="1" d="M 172.5 162 L 174 164.5 L 173 164.5 L 172.5 162 Z" />
 <path fill="rgb(3,94,94)" stroke="rgb(3,94,94)" stroke-width="1" d="M 146.5 195 L 175 195.5 L 163 197 L 162 201.5 L 163 206.5 L 162 213 Q 158 211.6 160 218.5 L 159 219.5 L 159 228.5 Q 155.8 230.5 156 235 Q 160.5 233.5 159 238 L 155.5 236 Q 151.8 238 153.5 240 L 150.5 238 L 148 239.5 Q 150.2 238.2 147.5 237 Q 144.2 238.1 145 235.5 L 144 235.5 L 143.5 237 L 142.5 235 L 141 235.5 L 139.5 233 L 136.5 231 L 135.5 232 L 127 223.5 L 127 221 Q 124.3 222.1 125 219.5 L 121 214.5 L 121.5 213 Q 119.3 213.8 120 211.5 Q 115.4 205.7 115 197 L 145.5 196 L 146.5 195 Z" />
 <path fill="rgb(3,94,94)" stroke="rgb(3,94,94)" stroke-width="1" d="M 179.5 196 L 183 196.5 L 179.5 197 L 179.5 196 Z" />
 <path fill="rgb(3,94,94)" stroke="rgb(3,94,94)" stroke-width="1" d="M 185.5 197 Q 187.8 196.3 187 198.5 L 188 200.5 L 187 200.5 L 185.5 197 Z" />
 <path fill="rgb(3,94,94)" stroke="rgb(3,94,94)" stroke-width="1" d="M 189.5 205 L 191 211.5 L 190 211.5 L 189.5 205 Z" />
 <path fill="rgb(3,94,94)" stroke="rgb(3,94,94)" stroke-width="1" d="M 191.5 213 L 192 215.5 L 191 215.5 L 191.5 213 Z" />
 <path fill="rgb(3,94,94)" stroke="rgb(3,94,94)" stroke-width="1" d="M 188.5 232 L 187.5 234 L 188.5 232 Z" />
 <path fill="rgb(3,94,94)" stroke="rgb(3,94,94)" stroke-width="1" d="M 186.5 235 L 182.5 240 L 186.5 235 Z" />
 <path fill="rgb(6,215,192)" stroke="rgb(6,215,192)" stroke-width="1" d="M 125.5 59 L 127.5 60 L 129 59.5 L 128 61.5 L 133 62 Q 131.2 66.9 137.5 65 Q 138.6 67.8 142 67 L 142 69 Q 144.7 67.9 144 70.5 L 146 75 L 148.5 74 L 155.5 83 L 157 82.5 L 156 84.5 L 162 87 Q 159.9 92.2 164.5 91 L 166 93.5 L 164 97.5 L 163 99.5 Q 165.3 100.8 162.5 102 Q 161.3 99.8 160 102.5 L 159 104.5 Q 161.3 105.8 158.5 107 L 157 106.5 L 156 108.5 L 157 109.5 L 152.5 114 L 151 113.5 L 146.5 119 Q 136.7 125.7 123.5 129 L 121 128 L 121.5 126 L 124.5 128 L 136.5 123 L 139 120.5 L 138 118 L 140 118 Q 138.9 120.7 141.5 120 L 144 118.5 L 143.5 117 Q 146.1 117.7 145 115 L 142.5 114 Q 141.3 116.3 140 113.5 Q 141.9 107.2 137 109 L 137 112 L 132 112 L 132 106 Q 135.7 107.5 135 104.5 L 131 101.5 L 132 99.5 Q 130.6 96.8 126 98 L 124.5 95 L 113 94 Q 114.3 89.9 111 91 L 110.5 94 L 110 90 Q 107.3 88.9 108 91.5 L 109 94.5 L 108 94.5 L 107 90.5 L 110 89 L 111 86.5 L 111 84.5 L 115.5 76 Q 117.8 76.8 117 74.5 Q 114.8 73.3 117.5 72 L 119 71.5 L 118.5 70 Q 120.2 72.8 122 68.5 L 121.5 65 L 122.5 66 L 126 62.5 L 125.5 59 Z M 111.5 88 L 110 89.5 L 112 90 L 111.5 88 Z M 144.5 112 L 144.5 113 L 147 112.5 L 144.5 112 Z" />
 <path fill="rgb(6,215,192)" stroke="rgb(6,215,192)" stroke-width="1" d="M 106.5 93 L 106.5 96 L 104.5 97 L 105 95.5 L 106.5 93 Z" />
 <path fill="rgb(6,215,192)" stroke="rgb(6,215,192)" stroke-width="1" d="M 44.5 102 L 44 103.5 L 42.5 107 L 42 105.5 L 44.5 102 Z" />
 <path fill="rgb(6,215,192)" stroke="rgb(6,215,192)" stroke-width="1" d="M 40.5 110 L 41 111.5 L 39.5 114 L 39 112.5 L 40.5 110 Z" />
 <path fill="rgb(6,215,192)" stroke="rgb(6,215,192)" stroke-width="1" d="M 96.5 111 L 97 112.5 L 94.5 116 L 95 114.5 L 96.5 111 Z" />
 <path fill="rgb(6,215,192)" stroke="rgb(6,215,192)" stroke-width="1" d="M 38.5 115 L 39 116.5 L 37.5 121 L 37 117.5 L 38.5 115 Z" />
 <path fill="rgb(6,215,192)" stroke="rgb(6,215,192)" stroke-width="1" d="M 90.5 122 L 89.5 124 L 90.5 122 Z" />
 <path fill="rgb(6,215,192)" stroke="rgb(6,215,192)" stroke-width="1" d="M 88.5 125 L 87.5 127 L 88.5 125 Z" />
 <path fill="rgb(6,215,192)" stroke="rgb(6,215,192)" stroke-width="1" d="M 35.5 129 L 36 141.5 L 35 141.5 L 35.5 129 Z" />
 <path fill="rgb(6,215,192)" stroke="rgb(6,215,192)" stroke-width="1" d="M 118.5 129 L 122 129.5 L 107.5 134 L 102.5 134 L 102.5 133 L 108 132.5 L 106 131.5 L 107.5 131 L 111.5 132 L 118.5 129 Z" />
 <path fill="rgb(6,215,192)" stroke="rgb(6,215,192)" stroke-width="1" d="M 54.5 130 L 53.5 132 L 54.5 130 Z" />
 <path fill="rgb(6,215,192)" stroke="rgb(6,215,192)" stroke-width="1" d="M 84.5 131 L 83.5 133 L 84.5 131 Z" />
 <path fill="rgb(6,215,192)" stroke="rgb(6,215,192)" stroke-width="1" d="M 96.5 134 L 101 134.5 L 92.5 136 L 92.5 135 L 96.5 134 Z" />
 <path fill="rgb(6,215,192)" stroke="rgb(6,215,192)" stroke-width="1" d="M 67.5 136 L 71 137.5 L 69.5 137 Q 66.5 137.5 67.5 136 Z" />
 <path fill="rgb(6,215,192)" stroke="rgb(6,215,192)" stroke-width="1" d="M 80.5 136 L 88 136.5 L 80.5 137 L 80.5 136 Z" />
 <path fill="rgb(6,215,192)" stroke="rgb(6,215,192)" stroke-width="1" d="M 73 137 L 78 138.5 L 73 139 L 73 137 Z" />
 <path fill="rgb(6,215,192)" stroke="rgb(6,215,192)" stroke-width="1" d="M 79.5 138 L 80.5 139 L 98.5 140 L 101.5 142 Q 102.8 139.8 107.5 141 L 107.5 143 Q 112.9 143.6 115 142 Q 113.7 145.7 119.5 144 L 121.5 143 L 121.5 145 L 128.5 146 L 130 145.5 Q 127.3 147.3 131.5 149 L 134.5 150 L 136 149.5 L 135 152 Q 138 151 137 154 L 134 155.5 L 136 162 L 134 162 L 134 168 L 129.5 168 Q 126.5 168.5 127 172.5 L 129 175.5 L 127 177.5 L 127 190 Q 130 188.8 129 192.5 L 129.5 194 L 123 194.5 L 123.5 196 L 100.5 195 L 95.5 196 Q 93.8 193.3 87.5 195 L 84.5 193 L 82.5 193 Q 62.5 189.5 52 176.5 L 50 173.5 L 46 168.5 L 48 169.5 L 50 172.5 L 58.5 181 L 69.5 187 L 71.5 187 L 75.5 190 L 76 186 L 79 187.5 L 77.5 190 L 82.5 190 L 87.5 192 L 87.5 191 L 84 190 L 84 187 L 87 186.5 L 87 179.5 L 86 178.5 L 86 168.5 Q 90 167.1 89 162 L 92 162 L 92 157 Q 88.2 158 87 155.5 L 87 151.5 L 85 148 L 91 146.5 L 88 146 Q 86.9 142.5 94.5 144 L 94.5 143 L 80.5 140 L 79.5 138 Z" />
 <path fill="rgb(6,215,192)" stroke="rgb(6,215,192)" stroke-width="1" d="M 36.5 143 L 37 147.5 L 36 147.5 L 36.5 143 Z" />
 <path fill="rgb(6,215,192)" stroke="rgb(6,215,192)" stroke-width="1" d="M 37.5 149 L 42 160.5 L 41 160.5 L 37 151.5 L 37.5 149 Z" />
 <path fill="rgb(6,215,192)" stroke="rgb(6,215,192)" stroke-width="1" d="M 147.5 154 L 148.5 156 L 147.5 154 Z" />
 <path fill="rgb(6,215,192)" stroke="rgb(6,215,192)" stroke-width="1" d="M 42.5 162 L 45 165.5 L 43 164.5 L 42.5 162 Z" />
 <path fill="rgb(6,215,192)" stroke="rgb(6,215,192)" stroke-width="1" d="M 159.5 164 L 161.5 167 L 159.5 164 Z" />
 <path fill="rgb(6,215,192)" stroke="rgb(6,215,192)" stroke-width="1" d="M 163.5 168 L 164.5 170 L 163.5 168 Z" />
 <path fill="rgb(6,215,192)" stroke="rgb(6,215,192)" stroke-width="1" d="M 172.5 178 L 173.5 180 L 172.5 178 Z" />
 <path fill="rgb(6,215,192)" stroke="rgb(6,215,192)" stroke-width="1" d="M 72.5 180 L 73 182 L 71 181.5 L 72.5 180 Z" />
 <path fill="rgb(189,239,239)" stroke="rgb(189,239,239)" stroke-width="1" d="M 168.5 28 L 171 29.5 L 168 30 L 168.5 28 Z" />
 <path fill="rgb(189,239,239)" stroke="rgb(189,239,239)" stroke-width="1" d="M 174.5 28 L 185 28.5 L 174.5 29 L 174.5 28 Z" />
 <path fill="rgb(189,239,239)" stroke="rgb(189,239,239)" stroke-width="1" d="M 188.5 29 L 191 29.5 L 188.5 30 L 188.5 29 Z" />
 <path fill="rgb(189,239,239)" stroke="rgb(189,239,239)" stroke-width="1" d="M 162.5 30 L 165 30.5 L 162.5 31 L 162.5 30 Z" />
 <path fill="rgb(189,239,239)" stroke="rgb(189,239,239)" stroke-width="1" d="M 193.5 30 L 196 30.5 L 193.5 31 L 193.5 30 Z" />
 <path fill="rgb(189,239,239)" stroke="rgb(189,239,239)" stroke-width="1" d="M 157.5 31 L 161 31.5 L 156.5 33 L 157.5 31 Z" />
 <path fill="rgb(189,239,239)" stroke="rgb(189,239,239)" stroke-width="1" d="M 153.5 33 L 155 33.5 L 152.5 35 L 153.5 33 Z" />
 <path fill="rgb(189,239,239)" stroke="rgb(189,239,239)" stroke-width="1" d="M 149.5 34 L 150.5 36 L 148.5 37 L 149 35.5 L 149.5 34 Z" />
 <path fill="rgb(189,239,239)" stroke="rgb(189,239,239)" stroke-width="1" d="M 205.5 34 L 207.5 34 L 211 37.5 L 209.5 37 Q 205.5 36.5 205.5 34 Z" />
 <path fill="rgb(189,239,239)" stroke="rgb(189,239,239)" stroke-width="1" d="M 146.5 37 L 145.5 39 L 131 51.5 L 116 75 L 110 73.5 L 116 73 Q 118 65.1 124 60.5 L 124 58 L 127 56.5 L 132 49.5 L 131.5 48 L 132.5 49 L 140.5 41 L 146.5 37 Z" />
 <path fill="rgb(189,239,239)" stroke="rgb(189,239,239)" stroke-width="1" d="M 213.5 39 L 214.5 41 L 213.5 39 Z" />
 <path fill="rgb(189,239,239)" stroke="rgb(189,239,239)" stroke-width="1" d="M 216.5 40 L 220.5 45 L 222 44.5 L 221.5 46 Q 223.8 45.3 223 47.5 L 229 54.5 L 226 52.5 L 216 41.5 L 216.5 40 Z" />
 <path fill="rgb(189,239,239)" stroke="rgb(189,239,239)" stroke-width="1" d="M 229.5 56 Q 231.8 55.3 231 57.5 L 229.5 56 Z" />
 <path fill="rgb(189,239,239)" stroke="rgb(189,239,239)" stroke-width="1" d="M 231.5 59 L 232.5 61 L 231.5 59 Z" />
 <path fill="rgb(189,239,239)" stroke="rgb(189,239,239)" stroke-width="1" d="M 90.5 71 Q 101.9 69.6 109 72.5 L 104.5 73 L 103.5 72 L 90.5 72 L 90.5 71 Z" />
 <path fill="rgb(189,239,239)" stroke="rgb(189,239,239)" stroke-width="1" d="M 84.5 72 L 88 72.5 L 84.5 73 L 84.5 72 Z" />
 <path fill="rgb(189,239,239)" stroke="rgb(189,239,239)" stroke-width="1" d="M 76.5 74 L 79 74.5 L 66.5 80 L 67.5 78 L 76.5 74 Z" />
 <path fill="rgb(189,239,239)" stroke="rgb(189,239,239)" stroke-width="1" d="M 182.5 75 L 182 76.5 L 178.5 85 Q 176.8 82.3 175 86.5 L 173 92 L 171 92 Q 172.5 95.8 169.5 95 L 155 114 L 144.5 122 L 140 123 Q 141.1 125.7 138.5 125 L 120.5 132 L 103.5 136 L 98.5 136 L 93 138.5 L 108 140.5 L 100.5 141 L 99.5 140 L 84.5 139 L 82 137.5 L 108.5 134 L 131.5 127 Q 147.3 121.3 157 109.5 L 160 104 Q 162.7 105.1 162 102.5 L 182.5 75 Z" />
 <path fill="rgb(189,239,239)" stroke="rgb(189,239,239)" stroke-width="1" d="M 63.5 79 Q 66.5 80.5 63.5 82 L 63.5 79 Z" />
 <path fill="rgb(189,239,239)" stroke="rgb(189,239,239)" stroke-width="1" d="M 239.5 80 L 240 82.5 L 239 82.5 L 239.5 80 Z" />
 <path fill="rgb(189,239,239)" stroke="rgb(189,239,239)" stroke-width="1" d="M 61.5 82 L 60.5 84 L 61.5 82 Z" />
 <path fill="rgb(189,239,239)" stroke="rgb(189,239,239)" stroke-width="1" d="M 58.5 84 L 54.5 89 L 53.5 87 Q 58 87.5 58.5 84 Z" />
 <path fill="rgb(189,239,239)" stroke="rgb(189,239,239)" stroke-width="1" d="M 177.5 86 L 178 87.5 L 176.5 90 L 176 88.5 L 177.5 86 Z" />
 <path fill="rgb(189,239,239)" stroke="rgb(189,239,239)" stroke-width="1" d="M 50.5 92 L 47.5 96 L 50.5 92 Z" />
 <path fill="rgb(189,239,239)" stroke="rgb(189,239,239)" stroke-width="1" d="M 239.5 99 L 240 102.5 L 239 102.5 L 239.5 99 Z" />
 <path fill="rgb(189,239,239)" stroke="rgb(189,239,239)" stroke-width="1" d="M 44.5 100 L 45 101.5 Q 38.7 109.3 36 120.5 Q 37.3 125.3 35 126.5 L 35 144.5 L 39 156.5 L 38 156.5 Q 31.7 145.8 34 126.5 L 40 105.5 L 39.5 104 Q 40.8 106.3 42 103.5 L 44.5 100 Z" />
 <path fill="rgb(189,239,239)" stroke="rgb(189,239,239)" stroke-width="1" d="M 237.5 108 L 238 110.5 L 237 110.5 L 237.5 108 Z" />
 <path fill="rgb(189,239,239)" stroke="rgb(189,239,239)" stroke-width="1" d="M 168.5 113 L 169 116.5 L 168 116.5 L 168.5 113 Z" />
 <path fill="rgb(189,239,239)" stroke="rgb(189,239,239)" stroke-width="1" d="M 234.5 116 L 235 117.5 L 233 118.5 L 234.5 116 Z" />
 <path fill="rgb(189,239,239)" stroke="rgb(189,239,239)" stroke-width="1" d="M 232.5 120 Q 234.8 119.3 234 121.5 L 232.5 120 Z" />
 <path fill="rgb(189,239,239)" stroke="rgb(189,239,239)" stroke-width="1" d="M 166.5 123 L 167 129.5 L 166 129.5 L 166.5 123 Z" />
 <path fill="rgb(189,239,239)" stroke="rgb(189,239,239)" stroke-width="1" d="M 230.5 124 L 231.5 126 L 229 125.5 L 230.5 124 Z" />
 <path fill="rgb(189,239,239)" stroke="rgb(189,239,239)" stroke-width="1" d="M 228.5 127 L 226.5 130 L 228.5 127 Z" />
 <path fill="rgb(189,239,239)" stroke="rgb(189,239,239)" stroke-width="1" d="M 224.5 132 L 223.5 136 Q 220 134 224.5 132 Z" />
 <path fill="rgb(189,239,239)" stroke="rgb(189,239,239)" stroke-width="1" d="M 109.5 141 Q 136.8 141.8 151 155.5 Q 150.3 157.8 152.5 157 L 157 160 Q 155.9 162.7 158.5 162 L 161 163 L 170.5 175 L 172 174.5 L 175 181 Q 177.7 179.9 177 182.5 Q 179.5 187.3 182 185.5 L 185 193.5 L 183 192.5 L 167 171 Q 164.3 172.1 165 169.5 L 162 168 L 159.5 164 Q 148.5 153 133.5 146 L 121.5 143 L 109.5 142 L 109.5 141 Z" />
 <path fill="rgb(189,239,239)" stroke="rgb(189,239,239)" stroke-width="1" d="M 222.5 141 L 224 143.5 L 223 143.5 L 222.5 141 Z" />
 <path fill="rgb(189,239,239)" stroke="rgb(189,239,239)" stroke-width="1" d="M 166.5 143 L 167 147.5 L 166 147.5 L 166.5 143 Z" />
 <path fill="rgb(189,239,239)" stroke="rgb(189,239,239)" stroke-width="1" d="M 224.5 145 L 230 155.5 L 229 155.5 L 224.5 145 Z" />
 <path fill="rgb(189,239,239)" stroke="rgb(189,239,239)" stroke-width="1" d="M 230.5 157 L 232 158.5 L 234 167.5 L 233 167.5 L 230.5 157 Z" />
 <path fill="rgb(189,239,239)" stroke="rgb(189,239,239)" stroke-width="1" d="M 39.5 158 Q 46.4 173.1 58.5 183 Q 69.5 191.5 86 194.5 L 81.5 195 Q 62.2 190.3 51 177.5 L 41 163.5 L 39.5 158 Z" />
 <path fill="rgb(189,239,239)" stroke="rgb(189,239,239)" stroke-width="1" d="M 234.5 169 L 235 171.5 L 234 171.5 L 234.5 169 Z" />
 <path fill="rgb(189,239,239)" stroke="rgb(189,239,239)" stroke-width="1" d="M 235.5 173 L 236 177.5 L 235 177.5 L 235.5 173 Z" />
 <path fill="rgb(189,239,239)" stroke="rgb(189,239,239)" stroke-width="1" d="M 176.5 174 L 181 183.5 L 180 183.5 L 176.5 174 Z" />
 <path fill="rgb(189,239,239)" stroke="rgb(189,239,239)" stroke-width="1" d="M 235.5 191 L 236 195.5 L 235 195.5 L 235.5 191 Z" />
 <path fill="rgb(189,239,239)" stroke="rgb(189,239,239)" stroke-width="1" d="M 87.5 195 L 108.5 196 L 115 198.5 L 114.5 200 L 113.5 198 L 111.5 198 L 92.5 197 L 87.5 196 L 87.5 195 Z" />
 <path fill="rgb(189,239,239)" stroke="rgb(189,239,239)" stroke-width="1" d="M 234.5 197 L 235 199.5 L 234 199.5 L 234.5 197 Z" />
 <path fill="rgb(189,239,239)" stroke="rgb(189,239,239)" stroke-width="1" d="M 233.5 201 L 234 203.5 L 227 220 Q 224.3 218.9 225 221.5 Q 219.6 224.3 221.5 227 L 218 229.5 Q 218.8 232.1 215.5 231 L 207.5 238 L 201.5 241 L 189.5 245 L 184.5 245 L 184.5 244 Q 209.8 240.3 222 223.5 Q 229.6 214.1 233.5 201 Z" />
 <path fill="rgb(189,239,239)" stroke="rgb(189,239,239)" stroke-width="1" d="M 118.5 210 L 120 212.5 L 118 211.5 L 118.5 210 Z" />
 <path fill="rgb(189,239,239)" stroke="rgb(189,239,239)" stroke-width="1" d="M 120.5 214 L 125 220.5 L 123 221.5 L 124 220.5 L 121 217.5 L 120.5 214 Z" />
 <path fill="rgb(189,239,239)" stroke="rgb(189,239,239)" stroke-width="1" d="M 125.5 222 Q 133.3 232.2 145 238.5 L 143.5 238 L 140.5 239 L 141 237.5 Q 141.8 235.3 139.5 236 L 132.5 230 L 131 230.5 L 132 229.5 L 125.5 222 Z" />
 <path fill="rgb(189,239,239)" stroke="rgb(189,239,239)" stroke-width="1" d="M 153 242 L 155 242.5 L 153 243.5 L 153 242 Z" />
 <path fill="rgb(189,239,239)" stroke="rgb(189,239,239)" stroke-width="1" d="M 159.5 244 L 162 244.5 L 159.5 245 L 159.5 244 Z" />
 <path fill="rgb(189,239,239)" stroke="rgb(189,239,239)" stroke-width="1" d="M 165.5 245 L 168 245.5 L 165.5 246 L 165.5 245 Z" />
 <path fill="rgb(189,239,239)" stroke="rgb(189,239,239)" stroke-width="1" d="M 170.5 245 L 183 245.5 L 170.5 246 L 170.5 245 Z" />
 <path fill="rgb(2,81,165)" stroke="rgb(2,81,165)" stroke-width="1" d="M 179.5 29 Q 184.1 28.4 185.5 31 L 190.5 31 L 192 30.5 L 191.5 32 L 195.5 31 L 195.5 33 L 203 36 Q 201.7 39.3 206.5 38 L 210 42.5 L 208.5 43 L 207 42.5 L 207.5 46 Q 209.2 43.3 211 47.5 L 209 48.5 L 211 49 Q 212.1 51.7 209.5 51 Q 196.5 57 188 67.5 L 185.5 71 L 186.5 68 L 175 59 L 172 54.5 L 172 52 Q 169.3 53.1 170 50.5 L 168 45 Q 165.3 46.1 166 43.5 Q 162 41.3 162 36 Q 159 37 160 34 L 164.5 31 L 178.5 30 L 179.5 29 Z" />
 <path fill="rgb(2,81,165)" stroke="rgb(2,81,165)" stroke-width="1" d="M 223.5 49 L 224.5 51 L 223.5 49 Z" />
 <path fill="rgb(2,81,165)" stroke="rgb(2,81,165)" stroke-width="1" d="M 184.5 85 L 188 90 Q 191 88.8 190 92.5 L 202 112 Q 204.7 110.9 204 113.5 L 218 133.5 L 219 139 Q 222.3 137.7 221 142.5 L 227 154.5 Q 223.5 156 226 157.5 L 225.5 160 L 224.5 157 L 221.5 162 L 214.5 162 Q 212 166.3 205 165 Q 206.4 169 199.5 167 L 190 169 Q 191.3 172.3 186.5 171 L 183 173 Q 184.1 175.7 181.5 175 Q 178.3 173.7 178.5 169 L 177.5 172 L 176 169.5 L 176.5 168 L 174 166.5 L 174 163.5 L 170 157.5 L 171 155 L 169 154.5 L 169 150.5 Q 165.8 148.2 167 141.5 L 167 139.5 L 168 135.5 L 167 133.5 Q 169.8 131.7 168 125.5 L 167 123 Q 170 124.3 169 120.5 L 171 111.5 L 174 107.5 L 174 105.5 L 172 102.5 L 174 102.5 L 177.5 93 L 179 93.5 Q 180.5 88 178 86.5 L 180.5 88 L 183.5 89 L 183 87.5 L 184.5 85 Z" />
 <path fill="rgb(2,81,165)" stroke="rgb(2,81,165)" stroke-width="1" d="M 227.5 156 L 230 160.5 L 229 160.5 L 227.5 156 Z" />
 <path fill="rgb(5,238,208)" stroke="rgb(5,238,208)" stroke-width="1" d="M 110.5 86 L 110 87.5 L 110.5 89 L 112 88.5 Q 112.7 91.1 110 90 L 110 93.5 L 111 93.5 Q 110 89.8 113 91 L 113 94 L 119.5 94 L 126 96.5 Q 125.1 99.9 130.5 98 L 132 100.5 Q 129.8 101.8 132.5 103 L 135 104.5 Q 135.7 107.5 132 106 L 132 112 L 137 112 Q 135.5 107.5 140 109 Q 138.8 113.6 141.5 115 L 143.5 115 Q 146.1 114.3 145 117 L 143 117.5 L 143.5 119 L 140 120 Q 141 117 138 118 L 139 120.5 L 136.5 123 L 124.5 128 L 121.5 126 L 121 128 Q 123.7 126.9 123 129.5 L 121.5 129 L 115 130.5 L 117 131.5 L 115.5 132 L 112.5 131 L 112.5 133 L 108.5 132 L 108.5 134 Q 107.2 131.7 102.5 133 L 102.5 135 L 96.5 134 L 96.5 135 L 98 135.5 L 96.5 136 L 92.5 135 L 88.5 137 L 81 135.5 Q 92.4 123.1 99 107 L 101 106.5 L 101 104.5 L 105.5 96 L 107 95.5 L 107 93.5 L 108 90 L 110 89.5 L 109 87.5 L 110.5 86 Z M 108.5 92 L 108 94.5 L 109 94.5 L 108.5 92 Z" />
 <path fill="rgb(5,238,208)" stroke="rgb(5,238,208)" stroke-width="1" d="M 43.5 105 Q 42.9 124.1 54.5 131 L 70.5 138 L 73 137 Q 71.7 140.7 77.5 139 L 81.5 137 L 84 138.5 L 80 139.5 L 95 143.5 L 88 144 Q 86.8 147 90.5 146 L 90.5 147 L 85 148 L 88.5 157 L 92 157 L 92 162 Q 87.5 160.3 89 165.5 L 86 168.5 L 86 178.5 L 87 179.5 L 87 187 Q 82.5 185.5 84 190 L 87.5 191 L 89 190.5 L 85.5 192 Q 83 189 77 189.5 L 77.5 186 Q 74.5 185.1 76 189.5 L 72.5 187 L 70.5 186 L 67.5 187 L 63.5 183 L 58.5 181 L 58.5 183 Q 55.8 181.8 58 180.5 L 52.5 175 L 51 175.5 Q 53.3 174.2 50.5 173 L 49 173.5 L 50 171 Q 47.3 172.1 48 169.5 L 46 169.5 L 46.5 168 L 44 166.5 L 44 164.5 L 42.5 162 L 41 161.5 L 42 159.5 L 40 159.5 L 41 157.5 L 38 149 L 36 148.5 L 37 143.5 L 36 143.5 L 35.5 145 L 35 142.5 L 36 141.5 L 36 129.5 L 35 126 L 37 125.5 L 36 120.5 L 38 120.5 L 39 115.5 L 38.5 114 Q 40.8 114.8 40 112.5 L 39.5 111 L 41 111.5 L 40 109.5 L 42 108.5 L 41.5 107 Q 44 107.7 43.5 105 Z M 72.5 180 L 71 181.5 L 73 182 L 72.5 180 Z" />
 <path fill="rgb(5,238,208)" stroke="rgb(5,238,208)" stroke-width="1" d="M 144.5 112 L 147 112.5 L 144.5 113 L 144.5 112 Z" />
 <path fill="rgb(5,238,208)" stroke="rgb(5,238,208)" stroke-width="1" d="M 151.5 114 L 149.5 117 L 151.5 114 Z" />
 <path fill="rgb(5,238,208)" stroke="rgb(5,238,208)" stroke-width="1" d="M 109.5 196 L 112 196.5 L 109.5 197 L 109.5 196 Z" />
 <path fill="rgb(1,44,68)" stroke="rgb(1,44,68)" stroke-width="1" d="M 210.5 54 L 217.5 54 L 229.5 60 L 231 59.5 L 235 66.5 L 239 80.5 L 239 101.5 Q 236.6 115.1 229.5 124 L 230 122.5 L 233 112 Q 236.3 113.3 235 108.5 L 236 104.5 L 232.5 102 L 231.5 103 L 214 103 L 212.5 107 L 207.5 107 L 207 109 L 205.5 109 L 202 106.5 Q 190.7 92.3 184 73.5 L 194.5 62 L 197.5 60 L 202.5 56 L 210.5 54 Z" />
 <path fill="rgb(1,44,68)" stroke="rgb(1,44,68)" stroke-width="1" d="M 47.5 97 L 47 98.5 L 46.5 101 L 46 98.5 L 47.5 97 Z" />
 <path fill="rgb(1,44,68)" stroke="rgb(1,44,68)" stroke-width="1" d="M 228.5 125 L 227 127.5 L 219.5 136 L 222 132.5 L 224 129.5 L 226 126 L 228.5 125 Z" />
 <path fill="rgb(1,44,68)" stroke="rgb(1,44,68)" stroke-width="1" d="M 170.5 196 L 184.5 197 L 187 199.5 L 192 216.5 L 192 223.5 Q 189.4 234.4 181.5 240 L 171.5 245 L 165.5 245 Q 162.6 242.4 156.5 243 L 144 236.5 L 144.5 235 L 145 237 L 148.5 238 Q 150 235.5 151.5 239 L 155.5 236 L 159 238 L 159 235 Q 155.3 236.5 156 233.5 L 159 228.5 L 160 213 Q 164 214.4 162 207.5 L 163 202.5 L 162 199.5 L 163 197 L 169.5 197 L 170.5 196 Z" />
 <path fill="rgb(1,44,68)" stroke="rgb(1,44,68)" stroke-width="1" d="M 136.5 231 L 141 234.5 L 139.5 234 L 136.5 231 Z" />
 <path fill="rgb(8,178,165)" stroke="rgb(8,178,165)" stroke-width="1" d="M 144.5 39 L 143.5 41 L 144.5 39 Z" />
 <path fill="rgb(8,178,165)" stroke="rgb(8,178,165)" stroke-width="1" d="M 138.5 44 L 137.5 47 Q 141.3 48.3 140 44.5 L 141.5 45 Q 144.5 44.1 143 48.5 L 148 52.5 L 152.5 59 Q 154.8 58.3 154 60.5 L 156 64 Q 159.8 62.5 159 65.5 L 162.5 70 L 165 71.5 L 167.5 75 L 174.5 80 L 176 79.5 L 174 84.5 L 174.5 86 L 173 85.5 L 171 88.5 L 171.5 90 Q 169.3 89.3 170 91.5 L 156.5 109 L 157 107.5 L 164 97.5 L 163 96.5 L 166 93.5 L 164.5 91 L 162 91 Q 164.1 85.8 159.5 87 L 156 84.5 L 157 82.5 Q 154.5 84.3 152 79.5 L 149.5 75 L 147.5 75 Q 145.3 75.8 146 73.5 L 144 69 Q 141 70 142 67 L 139.5 67 Q 138.1 63.8 133 65 Q 134.8 60.1 128.5 62 L 129 60.5 L 128.5 59 L 126 60 L 126 62.5 L 121 67.5 L 122 68.5 L 118.5 72 L 119 70.5 L 129 54 Q 131.7 55.1 131 52.5 L 138.5 44 Z" />
 <path fill="rgb(8,178,165)" stroke="rgb(8,178,165)" stroke-width="1" d="M 117.5 73 L 117 74.5 Q 117.8 76.8 115.5 76 L 114 76.5 L 117.5 73 Z" />
 <path fill="rgb(8,178,165)" stroke="rgb(8,178,165)" stroke-width="1" d="M 113.5 78 L 113 79.5 L 112.5 81 L 112 79.5 L 113.5 78 Z" />
 <path fill="rgb(8,178,165)" stroke="rgb(8,178,165)" stroke-width="1" d="M 177.5 81 L 176.5 83 L 177.5 81 Z" />
 <path fill="rgb(8,178,165)" stroke="rgb(8,178,165)" stroke-width="1" d="M 111.5 82 L 111 83.5 L 107.5 90 L 108 88.5 L 111.5 82 Z" />
 <path fill="rgb(8,178,165)" stroke="rgb(8,178,165)" stroke-width="1" d="M 53.5 89 L 51.5 92 L 53.5 89 Z" />
 <path fill="rgb(8,178,165)" stroke="rgb(8,178,165)" stroke-width="1" d="M 106.5 91 L 107 92.5 L 105 93.5 L 106.5 91 Z" />
 <path fill="rgb(8,178,165)" stroke="rgb(8,178,165)" stroke-width="1" d="M 154.5 110 L 151.5 114 L 154.5 110 Z" />
 <path fill="rgb(8,178,165)" stroke="rgb(8,178,165)" stroke-width="1" d="M 92.5 118 L 91.5 120 L 92.5 118 Z" />
 <path fill="rgb(8,178,165)" stroke="rgb(8,178,165)" stroke-width="1" d="M 49.5 125 L 53.5 130 L 49.5 125 Z" />
 <path fill="rgb(8,178,165)" stroke="rgb(8,178,165)" stroke-width="1" d="M 85.5 129 L 84.5 131 L 85.5 129 Z" />
 <path fill="rgb(8,178,165)" stroke="rgb(8,178,165)" stroke-width="1" d="M 82.5 133 L 81.5 135 L 82.5 133 Z" />
 <path fill="rgb(8,178,165)" stroke="rgb(8,178,165)" stroke-width="1" d="M 107.5 142 L 113 142.5 L 107.5 143 L 107.5 142 Z" />
 <path fill="rgb(8,178,165)" stroke="rgb(8,178,165)" stroke-width="1" d="M 115.5 143 L 120 143.5 L 115.5 144 L 115.5 143 Z" />
 <path fill="rgb(8,178,165)" stroke="rgb(8,178,165)" stroke-width="1" d="M 121.5 144 L 126.5 144 L 142.5 151 L 159 164.5 L 160.5 167 Q 162.8 166.3 162 168.5 L 164 172 Q 169.4 172.7 172 177.5 L 171 179.5 L 173 179.5 L 172 182 L 174.5 181 Q 178.7 182.8 176 184.5 L 177.5 187 Q 179.3 184.3 181 188.5 L 179 188.5 L 180.5 191 Q 181.8 188.8 183 191.5 L 181 191.5 Q 180.3 193.8 182.5 193 L 182 194.5 L 181.5 196 L 178.5 195 Q 170.3 196.2 165.5 194 L 162.5 195 Q 161.3 192.8 156.5 194 L 155.5 195 L 124.5 196 L 123.5 194 L 130 193.5 L 129 190 L 127 189.5 L 127 177.5 L 129 174.5 L 127 170.5 Q 128.5 166.8 134 168 L 134 162.5 L 136 162 L 136 159.5 L 134 155.5 L 137 154 L 137 152 Q 134.3 153.1 135 150.5 L 128.5 146 L 121.5 145 L 121.5 144 Z" />
 <path fill="rgb(8,178,165)" stroke="rgb(8,178,165)" stroke-width="1" d="M 229.5 194 L 230.5 199 L 231.5 197 L 232 198.5 L 230 203.5 L 230.5 205 L 229 205.5 L 229 207.5 L 225 216.5 L 225.5 218 L 224 217.5 L 223 219.5 L 223.5 221 L 222 220.5 L 221 222.5 L 222 223.5 L 213.5 232 L 207.5 236 L 206 235.5 L 204.5 238 L 197.5 241 L 196 240.5 Q 196.9 243.5 192.5 242 L 189.5 243 L 182.5 245 L 176 245 Q 174.9 242.3 177.5 243 L 188 234.5 Q 193.3 228.3 193 216.5 L 190 203.5 Q 191.8 205.1 193.5 202 L 199 203 Q 197.8 200 201.5 201 L 202.5 200 L 224 200 L 224.5 198 L 228 200 L 229.5 194 Z" />
 <path fill="rgb(8,178,165)" stroke="rgb(8,178,165)" stroke-width="1" d="M 100.5 195 L 114.5 195 L 115 196.5 L 113.5 196 L 100.5 196 L 100.5 195 Z" />
</svg>