<svg viewBox="0 0 274 274" version="1.1" xmlns="http://www.w3.org/2000/svg" desc="Created with imagetracer-ts 1.0.2" >
 <path fill="rgb(252,253,253)" stroke="rgb(252,253,253)" stroke-width="1" d="M 0 0 L 274 0 L 274 274 L 0 274 L 0 0 Z M 31.5 28 L 28.5 29 L 28 31.5 L 29 34.5 L 28 37.5 L 28 53.5 L 29 54.5 L 28 57.5 Q 26.3 63.8 29 65.5 Q 30.5 71 28 72.5 L 28 167.5 L 29 168.5 L 28 171.5 L 28 201.5 L 29 202.5 L 29 211.5 L 28 212.5 L 28 223.5 L 29 224.5 L 28 227.5 L 28 235.5 L 29 236.5 L 28 246 L 75.5 246 L 76.5 247 L 77.5 246 L 89.5 246 L 91.5 246 L 246.5 246 L 247 244.5 L 247 242.5 L 246 241.5 L 246 229.5 L 246 227.5 L 246 212.5 L 247 211.5 L 247 202.5 L 246 201.5 L 246 32.5 L 247 31.5 L 246 29.5 L 245.5 28 L 31.5 28 Z" />
 <path fill="rgb(252,253,253)" stroke="rgb(252,253,253)" stroke-width="1" d="M 160.5 65 L 170 70.5 L 168.5 70 L 161 68 L 160.5 66 L 159 66.5 L 160.5 65 Z" />
 <path fill="rgb(252,253,253)" stroke="rgb(252,253,253)" stroke-width="1" d="M 111.5 69 L 116 69.5 L 111.5 70 L 111.5 69 Z" />
 <path fill="rgb(252,253,253)" stroke="rgb(252,253,253)" stroke-width="1" d="M 138.5 70 Q 141.5 71.5 138.5 73 L 136 72.5 L 138.5 70 Z" />
 <path fill="rgb(252,253,253)" stroke="rgb(252,253,253)" stroke-width="1" d="M 161.5 70 L 166 73 L 165.5 75 L 161.5 70 Z" />
 <path fill="rgb(252,253,253)" stroke="rgb(252,253,253)" stroke-width="1" d="M 108.5 71 L 110 71.5 L 107.5 73 L 108.5 71 Z" />
 <path fill="rgb(252,253,253)" stroke="rgb(252,253,253)" stroke-width="1" d="M 132 71 L 135 72.5 L 132 73 L 132 71 Z" />
 <path fill="rgb(252,253,253)" stroke="rgb(252,253,253)" stroke-width="1" d="M 86.5 90 L 87 91.5 L 82.5 97 L 83 95.5 L 86.5 90 Z" />
 <path fill="rgb(252,253,253)" stroke="rgb(252,253,253)" stroke-width="1" d="M 121.5 97 L 123.5 97 Q 126.8 95.9 126 98.5 L 115.5 103 L 111 100.5 L 121.5 97 Z" />
 <path fill="rgb(252,253,253)" stroke="rgb(252,253,253)" stroke-width="1" d="M 81.5 98 L 82 99.5 L 80 100.5 L 81.5 98 Z" />
 <path fill="rgb(252,253,253)" stroke="rgb(252,253,253)" stroke-width="1" d="M 84 99 L 86 99.5 L 84 100.5 L 84 99 Z" />
 <path fill="rgb(252,253,253)" stroke="rgb(252,253,253)" stroke-width="1" d="M 198.5 99 L 201 103.5 L 200 103.5 L 198.5 99 Z" />
 <path fill="rgb(252,253,253)" stroke="rgb(252,253,253)" stroke-width="1" d="M 109.5 103 L 113 103.5 L 110.5 105 L 109.5 103 Z" />
 <path fill="rgb(252,253,253)" stroke="rgb(252,253,253)" stroke-width="1" d="M 195.5 104 L 196 113.5 L 195 113.5 L 195.5 104 Z" />
 <path fill="rgb(252,253,253)" stroke="rgb(252,253,253)" stroke-width="1" d="M 107.5 106 Q 111 108 106.5 110 L 104 111.5 L 102.5 115 Q 99.8 113.7 102 112.5 L 104.5 107 L 107.5 106 Z" />
 <path fill="rgb(252,253,253)" stroke="rgb(252,253,253)" stroke-width="1" d="M 144.5 115 L 143.5 117 L 141 116.5 L 144.5 115 Z" />
 <path fill="rgb(252,253,253)" stroke="rgb(252,253,253)" stroke-width="1" d="M 67.5 120 L 68 121.5 L 65.5 132 L 65 126.5 L 67.5 120 Z" />
 <path fill="rgb(252,253,253)" stroke="rgb(252,253,253)" stroke-width="1" d="M 197.5 141 L 196.5 143 L 197.5 141 Z" />
 <path fill="rgb(252,253,253)" stroke="rgb(252,253,253)" stroke-width="1" d="M 64.5 144 L 65 147.5 L 64 147.5 L 64.5 144 Z" />
 <path fill="rgb(252,253,253)" stroke="rgb(252,253,253)" stroke-width="1" d="M 95.5 146 L 96.5 148 L 94 147.5 L 95.5 146 Z" />
 <path fill="rgb(252,253,253)" stroke="rgb(252,253,253)" stroke-width="1" d="M 65.5 151 L 66 154.5 L 65 154.5 L 65.5 151 Z" />
 <path fill="rgb(252,253,253)" stroke="rgb(252,253,253)" stroke-width="1" d="M 86.5 162 L 89 165.5 L 87 164.5 L 86.5 162 Z" />
 <path fill="rgb(252,253,253)" stroke="rgb(252,253,253)" stroke-width="1" d="M 90.5 175 L 91.5 177 Q 88.7 177.7 90.5 175 Z" />
 <path fill="rgb(252,253,253)" stroke="rgb(252,253,253)" stroke-width="1" d="M 100.5 175 L 101.5 177 L 100.5 175 Z" />
 <path fill="rgb(252,253,253)" stroke="rgb(252,253,253)" stroke-width="1" d="M 108.5 179 L 112 180.5 L 110.5 181 L 108.5 179 Z" />
 <path fill="rgb(252,253,253)" stroke="rgb(252,253,253)" stroke-width="1" d="M 111.5 203 L 116 203.5 L 111.5 204 L 111.5 203 Z" />
 <path fill="rgb(181,220,229)" stroke="rgb(181,220,229)" stroke-width="1" d="M 132 64 L 143.5 65 L 146.5 64 L 145.5 66 L 143 66.5 L 147.5 69 L 149 68.5 L 148 72 L 151 72.5 L 148.5 73 L 139.5 67 L 138.5 70 L 136.5 70 L 135 69.5 L 138 67.5 L 132 66 L 132 64 Z" />
 <path fill="rgb(181,220,229)" stroke="rgb(181,220,229)" stroke-width="1" d="M 153.5 66 L 157 66 Q 155.9 68.7 158.5 68 L 160 67.5 L 158.5 70 L 153.5 67 L 153.5 66 Z" />
 <path fill="rgb(181,220,229)" stroke="rgb(181,220,229)" stroke-width="1" d="M 126.5 67 L 130 68.5 L 126 69 Q 127.3 72.7 121.5 71 L 121.5 72 L 124 73.5 L 121 74.5 L 123 75.5 L 121.5 76 L 119 75 Q 120.3 78 116.5 77 Q 104.8 81.8 97 90.5 Q 88.1 101.1 83.5 116 L 83 111 L 79 112.5 L 77.5 120 L 76.5 118 L 75 118.5 Q 76.1 115.2 73.5 116 L 74 117.5 L 74 120 Q 68.8 117.9 70 122.5 L 69.5 124 L 71 124.5 L 69 125.5 L 70 126.5 L 67 129.5 L 66.5 135 L 66 129.5 L 70 114.5 L 78.5 102 L 79.5 105 Q 81.7 96.2 88 91.5 L 88 89.5 L 97.5 80 L 101 79 L 103.5 75 L 107.5 73 L 109.5 74 L 109.5 72 L 111.5 73 L 111.5 71 L 114 72 L 114.5 70 L 117.5 71 L 119.5 71 Q 122.1 71.7 121 69 L 119 68.5 L 122.5 68 L 126 69 L 126.5 67 Z M 86.5 95 L 81 104.5 L 81.5 108 L 83 105.5 L 84.5 106 L 86.5 105 Q 89 104 88 99.5 L 90 97.5 Q 91.3 93.3 86.5 95 Z M 83 109 Q 82 112 85 111 Q 86 108 83 109 Z" />
 <path fill="rgb(181,220,229)" stroke="rgb(181,220,229)" stroke-width="1" d="M 153.5 68 L 156 69 Q 154.8 72 158.5 71 L 161 75 L 158.5 74 L 158 75.5 L 161 79.5 L 159 78.5 L 153 71.5 L 155 70.5 L 153 70 L 153.5 68 Z" />
 <path fill="rgb(181,220,229)" stroke="rgb(181,220,229)" stroke-width="1" d="M 162.5 68 L 165 69.5 L 163 70.5 L 163 72.5 L 165.5 75 L 166 73.5 L 165.5 72 L 171.5 79 L 166.5 75 L 165.5 76 L 161 71.5 Q 164.1 69.8 162.5 68 Z" />
 <path fill="rgb(181,220,229)" stroke="rgb(181,220,229)" stroke-width="1" d="M 169.5 71 L 170.5 73 L 169.5 71 Z" />
 <path fill="rgb(181,220,229)" stroke="rgb(181,220,229)" stroke-width="1" d="M 161.5 81 L 162 83.5 L 161 83.5 L 161.5 81 Z" />
 <path fill="rgb(181,220,229)" stroke="rgb(181,220,229)" stroke-width="1" d="M 181.5 82 L 183.5 85 L 181.5 82 Z" />
 <path fill="rgb(181,220,229)" stroke="rgb(181,220,229)" stroke-width="1" d="M 153.5 83 L 159.5 86 Q 160.8 83.8 162 86.5 Q 163.4 95.9 158.5 99 L 154.5 101 L 152.5 100 L 152.5 102 L 125.5 110 L 125.5 109 L 127 108.5 L 116.5 106 Q 108.8 109.3 104 115.5 L 101.5 120 L 101 118.5 L 104 113 Q 106.7 114.1 106 111.5 L 114.5 105 L 117 105 Q 115.8 102 119.5 103 L 126.5 99 L 130 99 Q 128.9 96.3 131.5 97 Q 142.7 94.7 149 87.5 L 150 84 L 153.5 83 Z" />
 <path fill="rgb(181,220,229)" stroke="rgb(181,220,229)" stroke-width="1" d="M 174.5 83 L 175.5 85 L 174.5 83 Z" />
 <path fill="rgb(181,220,229)" stroke="rgb(181,220,229)" stroke-width="1" d="M 187.5 84 L 191 86.5 L 190.5 89 L 187.5 84 Z" />
 <path fill="rgb(181,220,229)" stroke="rgb(181,220,229)" stroke-width="1" d="M 184.5 86 L 185.5 88 L 184.5 86 Z" />
 <path fill="rgb(181,220,229)" stroke="rgb(181,220,229)" stroke-width="1" d="M 186.5 89 L 187.5 91 L 186.5 89 Z" />
 <path fill="rgb(181,220,229)" stroke="rgb(181,220,229)" stroke-width="1" d="M 192.5 89 L 193.5 91 L 191 90.5 L 192.5 89 Z" />
 <path fill="rgb(181,220,229)" stroke="rgb(181,220,229)" stroke-width="1" d="M 177.5 90 L 178 97.5 L 177 97.5 L 177.5 90 Z" />
 <path fill="rgb(181,220,229)" stroke="rgb(181,220,229)" stroke-width="1" d="M 194.5 92 L 195.5 94 L 194.5 92 Z" />
 <path fill="rgb(181,220,229)" stroke="rgb(181,220,229)" stroke-width="1" d="M 171.5 102 L 173.5 104 L 176 102.5 L 170.5 109 L 163.5 112 L 165.5 109 L 169 106.5 L 171.5 102 Z" />
 <path fill="rgb(181,220,229)" stroke="rgb(181,220,229)" stroke-width="1" d="M 192.5 103 L 193 106.5 L 192 106.5 L 192.5 103 Z" />
 <path fill="rgb(181,220,229)" stroke="rgb(181,220,229)" stroke-width="1" d="M 192.5 110 L 193 113.5 L 192 113.5 L 192.5 110 Z" />
 <path fill="rgb(181,220,229)" stroke="rgb(181,220,229)" stroke-width="1" d="M 145.5 114 Q 147.8 113.3 147 115.5 L 145.5 114 Z" />
 <path fill="rgb(181,220,229)" stroke="rgb(181,220,229)" stroke-width="1" d="M 157.5 114 L 159 114.5 L 156.5 116 L 157.5 114 Z" />
 <path fill="rgb(181,220,229)" stroke="rgb(181,220,229)" stroke-width="1" d="M 202.5 115 L 203 124.5 L 202 124.5 L 202.5 115 Z" />
 <path fill="rgb(181,220,229)" stroke="rgb(181,220,229)" stroke-width="1" d="M 153.5 116 L 155 116.5 L 151.5 118 L 151.5 117 L 153.5 116 Z" />
 <path fill="rgb(181,220,229)" stroke="rgb(181,220,229)" stroke-width="1" d="M 76.5 121 L 77 134.5 L 78 135.5 L 77 137.5 Q 79.7 139.8 79 145.5 L 78 145.5 L 77 139 L 75 138.5 L 76 135.5 Q 73.8 134.3 75 129.5 L 76.5 121 Z" />
 <path fill="rgb(181,220,229)" stroke="rgb(181,220,229)" stroke-width="1" d="M 100.5 121 L 101 124.5 L 100 124.5 L 100.5 121 Z" />
 <path fill="rgb(181,220,229)" stroke="rgb(181,220,229)" stroke-width="1" d="M 139.5 121 L 142 121.5 L 139.5 122 L 139.5 121 Z" />
 <path fill="rgb(181,220,229)" stroke="rgb(181,220,229)" stroke-width="1" d="M 151.5 121 L 150.5 123 L 149 122.5 L 151.5 121 Z" />
 <path fill="rgb(181,220,229)" stroke="rgb(181,220,229)" stroke-width="1" d="M 188.5 123 Q 191.5 124.5 188.5 126 Q 186.3 125.3 187 127.5 L 185 128.5 L 187.5 125 L 189 124.5 L 188.5 123 Z" />
 <path fill="rgb(181,220,229)" stroke="rgb(181,220,229)" stroke-width="1" d="M 85.5 128 L 90 136.5 L 87 138.5 L 87.5 137 Q 84.1 137.9 86 132.5 L 85.5 128 Z" />
 <path fill="rgb(181,220,229)" stroke="rgb(181,220,229)" stroke-width="1" d="M 183.5 129 L 184.5 131 L 183.5 129 Z" />
 <path fill="rgb(181,220,229)" stroke="rgb(181,220,229)" stroke-width="1" d="M 181.5 130 L 181 131.5 L 179.5 134 L 178.5 132 L 181.5 130 Z" />
 <path fill="rgb(181,220,229)" stroke="rgb(181,220,229)" stroke-width="1" d="M 107.5 132 L 111 144.5 L 108 142.5 L 106 133.5 L 107.5 132 Z" />
 <path fill="rgb(181,220,229)" stroke="rgb(181,220,229)" stroke-width="1" d="M 176.5 133 L 175 135.5 L 177 137.5 L 177.5 139 L 178.5 137 L 179 138.5 Q 177.8 141.3 176.5 139 L 175 139.5 L 175.5 141 L 163.5 148 L 165.5 145 Q 168.1 145.7 167 143 L 161.5 140 L 158.5 141 L 158.5 140 L 171.5 135 Q 173 137.5 174.5 134 L 176.5 133 Z" />
 <path fill="rgb(181,220,229)" stroke="rgb(181,220,229)" stroke-width="1" d="M 182.5 135 L 181.5 137 L 182.5 135 Z" />
 <path fill="rgb(181,220,229)" stroke="rgb(181,220,229)" stroke-width="1" d="M 65.5 137 L 67 138.5 L 68 157.5 L 74 174.5 Q 71.5 176 75 177.5 L 74 180.5 L 76 183.5 L 74 182.5 L 68 166.5 L 66 148.5 L 65 147.5 L 65.5 137 Z" />
 <path fill="rgb(181,220,229)" stroke="rgb(181,220,229)" stroke-width="1" d="M 90.5 138 L 93.5 142 L 90.5 138 Z" />
 <path fill="rgb(181,220,229)" stroke="rgb(181,220,229)" stroke-width="1" d="M 75.5 143 L 76 146.5 L 75 146.5 L 75.5 143 Z" />
 <path fill="rgb(181,220,229)" stroke="rgb(181,220,229)" stroke-width="1" d="M 193.5 147 L 193 148.5 L 178 171 Q 175.3 169.9 176 172.5 L 173 178 Q 170.3 176.9 171 179.5 L 167.5 184 L 168 182.5 L 184.5 159 Q 187.1 159.8 186 156.5 L 193.5 147 Z" />
 <path fill="rgb(181,220,229)" stroke="rgb(181,220,229)" stroke-width="1" d="M 93.5 149 L 94.5 151 L 93.5 149 Z" />
 <path fill="rgb(181,220,229)" stroke="rgb(181,220,229)" stroke-width="1" d="M 100.5 150 L 105.5 156 L 100.5 150 Z" />
 <path fill="rgb(181,220,229)" stroke="rgb(181,220,229)" stroke-width="1" d="M 97.5 153 L 100 156.5 L 97 154.5 L 97.5 153 Z" />
 <path fill="rgb(181,220,229)" stroke="rgb(181,220,229)" stroke-width="1" d="M 83.5 156 L 84.5 158 L 83.5 156 Z" />
 <path fill="rgb(181,220,229)" stroke="rgb(181,220,229)" stroke-width="1" d="M 112.5 157 L 115 160.5 L 113 159.5 L 112.5 158 L 110.5 159 L 110.5 158 L 112.5 157 Z" />
 <path fill="rgb(181,220,229)" stroke="rgb(181,220,229)" stroke-width="1" d="M 85.5 159 L 90 164.5 L 87 162.5 L 85.5 159 Z" />
 <path fill="rgb(181,220,229)" stroke="rgb(181,220,229)" stroke-width="1" d="M 114.5 162 Q 116.8 161.3 116 163.5 L 114.5 162 Z" />
 <path fill="rgb(181,220,229)" stroke="rgb(181,220,229)" stroke-width="1" d="M 90.5 166 L 95.5 172 L 90.5 166 Z" />
 <path fill="rgb(181,220,229)" stroke="rgb(181,220,229)" stroke-width="1" d="M 97.5 172 L 98.5 174 L 97.5 172 Z" />
 <path fill="rgb(181,220,229)" stroke="rgb(181,220,229)" stroke-width="1" d="M 123.5 173 L 126 176.5 L 124.5 176 Q 121.4 176.7 123.5 173 Z" />
 <path fill="rgb(181,220,229)" stroke="rgb(181,220,229)" stroke-width="1" d="M 88.5 176 L 93.5 182 L 88.5 176 Z" />
 <path fill="rgb(181,220,229)" stroke="rgb(181,220,229)" stroke-width="1" d="M 123.5 177 L 123.5 180 Q 120.5 178.5 123.5 177 Z" />
 <path fill="rgb(181,220,229)" stroke="rgb(181,220,229)" stroke-width="1" d="M 127.5 181 L 128 185.5 L 127 185.5 L 127.5 181 Z" />
 <path fill="rgb(181,220,229)" stroke="rgb(181,220,229)" stroke-width="1" d="M 96.5 183 L 97.5 185 L 96.5 183 Z" />
 <path fill="rgb(181,220,229)" stroke="rgb(181,220,229)" stroke-width="1" d="M 77.5 184 L 78 186.5 L 83 192.5 L 77 187.5 L 76 185.5 L 77.5 184 Z" />
 <path fill="rgb(181,220,229)" stroke="rgb(181,220,229)" stroke-width="1" d="M 166.5 185 L 165.5 187 L 166.5 185 Z" />
 <path fill="rgb(181,220,229)" stroke="rgb(181,220,229)" stroke-width="1" d="M 164.5 188 L 163.5 190 L 164.5 188 Z" />
 <path fill="rgb(181,220,229)" stroke="rgb(181,220,229)" stroke-width="1" d="M 162.5 191 L 161.5 193 L 162.5 191 Z" />
 <path fill="rgb(181,220,229)" stroke="rgb(181,220,229)" stroke-width="1" d="M 145.5 192 L 146.5 194 L 145.5 192 Z" />
 <path fill="rgb(181,220,229)" stroke="rgb(181,220,229)" stroke-width="1" d="M 84.5 194 L 92 200.5 L 90.5 200 L 84.5 194 Z" />
 <path fill="rgb(181,220,229)" stroke="rgb(181,220,229)" stroke-width="1" d="M 159.5 195 L 158.5 197 L 159.5 195 Z" />
 <path fill="rgb(181,220,229)" stroke="rgb(181,220,229)" stroke-width="1" d="M 93.5 196 L 104.5 200 L 117.5 201 L 125 204 Q 126.3 207.3 121.5 206 L 118.5 203 L 107.5 202 L 108.5 204 L 114 205.5 L 111.5 206 L 100.5 202 L 95.5 199 L 93.5 196 Z" />
 <path fill="rgb(181,220,229)" stroke="rgb(181,220,229)" stroke-width="1" d="M 139.5 202 Q 141.8 205.8 148.5 205 L 151.5 203 L 150.5 205 L 143.5 206 L 139.5 202 Z" />
 <path fill="rgb(181,220,229)" stroke="rgb(181,220,229)" stroke-width="1" d="M 97.5 203 L 100 204.5 L 98.5 205 L 97.5 203 Z" />
 <path fill="rgb(181,220,229)" stroke="rgb(181,220,229)" stroke-width="1" d="M 136.5 205 L 135.5 207 L 134 206.5 L 136.5 205 Z" />
 <path fill="rgb(181,220,229)" stroke="rgb(181,220,229)" stroke-width="1" d="M 112.5 208 L 118 208.5 L 112.5 209 L 112.5 208 Z" />
 <path fill="rgb(181,220,229)" stroke="rgb(181,220,229)" stroke-width="1" d="M 122.5 208 L 129 208.5 L 122.5 209 L 122.5 208 Z" />
 <path fill="rgb(240,243,242)" stroke="rgb(240,243,242)" stroke-width="1" d="M 31.5 28 L 245.5 28 L 246 29.5 L 247 31.5 L 246 32.5 L 246 201.5 L 247 202.5 L 247 211.5 L 246 212.5 L 246 227.5 L 246 229.5 L 246 241.5 L 247 242.5 L 247 244.5 L 246.5 246 L 91.5 246 L 89.5 246 L 77.5 246 L 76.5 247 L 75.5 246 L 28 246 L 29 236.5 L 28 235.5 L 28 227.5 L 29 224.5 L 28 223.5 L 28 212.5 L 29 211.5 L 29 202.5 L 28 201.5 L 28 171.5 L 29 168.5 L 28 167.5 L 28 72.5 Q 30.5 71 29 65.5 Q 26.3 63.8 28 57.5 L 29 54.5 L 28 53.5 L 28 37.5 L 29 34.5 L 28 31.5 L 28.5 29 L 31.5 28 Z M 132 63 L 132 65 L 128 65 L 128 66.5 L 126.5 66 L 126 68 L 122.5 67 Q 118.6 70.1 111 69.5 L 114 70.5 L 111.5 71 L 109.5 71 L 103.5 75 L 101 79 L 97.5 80 L 85 94.5 L 85.5 96 L 90 95 Q 90.8 98.4 88 99.5 L 88 103.5 L 85.5 105 L 83 105.5 Q 83.7 108.1 81 107 L 83 99.5 L 85 97.5 L 84.5 96 L 81 98 L 82 100.5 L 79.5 105 L 78.5 102 L 71 112.5 L 70 117.5 L 68 117.5 L 69 119.5 L 67 120 L 68 122.5 L 66 122.5 L 67 128.5 L 69 128.5 L 67.5 134 L 66 126.5 L 65 126.5 L 65 131.5 L 67 137.5 L 65.5 137 L 64 144.5 Q 62.7 149.3 66 148 L 65 151.5 L 68 161.5 L 67 163.5 L 74 182.5 L 87 199 L 98.5 205 L 112.5 209 Q 131.8 211.8 139.5 203 L 143.5 206 L 150.5 205 Q 162.9 194.4 171 179.5 Q 170.3 176.9 173 178 L 176 172.5 Q 175.3 169.9 178 171 L 184 161.5 Q 187.5 160 185 158.5 L 186.5 159 L 198 141.5 Q 196.5 137.1 199.5 138 L 199 136.5 L 203 124.5 L 203 115.5 L 201 108.5 L 202 106.5 Q 202.8 104.3 200.5 105 L 201 103.5 L 196 93.5 L 188.5 84 L 187 84.5 Q 191.7 88.3 193 95.5 L 193 97.5 L 196 103.5 L 195 104.5 Q 196.5 114 194 119.5 L 194 121.5 L 192 122 L 189 129.5 L 182.5 135 L 179.5 138 L 178.5 137 L 178 138.5 L 175.5 140 L 175.5 139 Q 177.8 139.8 177 137.5 L 175.5 138 L 174 136.5 L 177.5 133 L 179.5 134 L 182.5 130 Q 184.8 130.8 184 128.5 L 187 127.5 Q 186.3 125.3 188.5 126 L 188 124.5 L 193 113.5 Q 194.2 105.2 192 100.5 L 192 98.5 L 188 90.5 Q 184.5 89 187 87.5 L 185.5 87 L 180 79 L 174.5 75 L 171.5 73 L 170 70.5 L 168.5 71 L 169 69.5 L 165.5 69 L 163.5 69 L 164 67.5 L 161.5 66 L 160.5 68 L 160 66.5 L 158.5 67 L 155.5 66 L 153.5 66 L 150.5 65 L 148.5 65 L 143.5 63 L 141.5 64 Q 134.7 64.9 132 63 Z M 86.5 90 L 85 92.5 L 87 91.5 L 86.5 90 Z M 84 99 L 84 100.5 L 86 99.5 L 84 99 Z" />
 <path fill="rgb(240,243,242)" stroke="rgb(240,243,242)" stroke-width="1" d="M 145.5 66 L 148 67.5 L 146.5 67 L 145.5 66 Z" />
 <path fill="rgb(240,243,242)" stroke="rgb(240,243,242)" stroke-width="1" d="M 150.5 67 L 153 68.5 Q 152.3 70.8 154.5 70 L 154.5 71 Q 151.9 70.3 153 73 L 155 73 Q 153.9 75.7 156.5 75 Q 161.5 78 162 85.5 L 159.5 86 L 153.5 83 L 151 84 Q 152.8 81.6 152 75.5 L 152 73.5 L 152 72 L 148 72 L 148 70.5 L 150.5 67 Z" />
 <path fill="rgb(240,243,242)" stroke="rgb(240,243,242)" stroke-width="1" d="M 130.5 68 L 136 68.5 L 135.5 70 L 137.5 69 L 138 70.5 Q 135.8 75.3 133.5 71 Q 130.5 70.2 132 74 L 125.5 74 L 124 74.5 L 123.5 73 L 123 75 L 119.5 76 L 119.5 75 L 123 72.5 L 120 70.5 L 121.5 71 L 125.5 71 Q 124.5 68 129.5 69 L 130.5 68 Z" />
 <path fill="rgb(240,243,242)" stroke="rgb(240,243,242)" stroke-width="1" d="M 139.5 69 L 141 71.5 L 139 72.5 L 139 70.5 L 139.5 69 Z" />
 <path fill="rgb(240,243,242)" stroke="rgb(240,243,242)" stroke-width="1" d="M 159.5 69 L 160.5 71 L 159.5 69 Z" />
 <path fill="rgb(240,243,242)" stroke="rgb(240,243,242)" stroke-width="1" d="M 166.5 75 L 173 80.5 L 174 85 L 176 85.5 Q 173.5 87 177 88.5 Q 179 101 172.5 105 L 172 102.5 L 173 90.5 L 173 88.5 L 171 85.5 L 171.5 84 L 170 83.5 L 170 81.5 L 168 78.5 Q 165 77.5 166.5 75 Z" />
 <path fill="rgb(240,243,242)" stroke="rgb(240,243,242)" stroke-width="1" d="M 126 97 Q 131.2 95.3 130 99 L 126.5 99 L 124.5 101 L 117 103 Q 118.3 106 114.5 105 L 106 111.5 L 104 114.5 L 103 114.5 L 105.5 110 L 109 107.5 Q 107.8 104.8 106.5 107 Q 104.3 107.8 105 105.5 L 108 104 L 109.5 101 L 115.5 103 L 126 98.5 L 126 97 Z M 109.5 103 L 110.5 105 L 113 103.5 L 109.5 103 Z" />
 <path fill="rgb(240,243,242)" stroke="rgb(240,243,242)" stroke-width="1" d="M 140.5 116 L 141 118 L 137 117.5 L 140.5 116 Z" />
 <path fill="rgb(240,243,242)" stroke="rgb(240,243,242)" stroke-width="1" d="M 76.5 118 L 77 120.5 L 76 120.5 L 76.5 118 Z" />
 <path fill="rgb(240,243,242)" stroke="rgb(240,243,242)" stroke-width="1" d="M 135.5 118 L 136 120 L 132.5 121 L 132 119 L 135.5 118 Z" />
 <path fill="rgb(240,243,242)" stroke="rgb(240,243,242)" stroke-width="1" d="M 70 120 Q 73.8 118.5 73 121.5 L 71 121.5 Q 72.1 124.8 69.5 124 L 70 122.5 L 70 120 Z" />
 <path fill="rgb(240,243,242)" stroke="rgb(240,243,242)" stroke-width="1" d="M 87.5 134 L 94 142.5 L 93.5 144 L 100 149.5 L 105.5 156 L 110 158 Q 109 161 112 160 L 112.5 158 L 115 161.5 L 114.5 164 L 112.5 165 Q 103.5 161.5 98 154.5 Q 98.8 152.3 96.5 153 L 87 137.5 L 87 135.5 L 87.5 134 Z" />
 <path fill="rgb(240,243,242)" stroke="rgb(240,243,242)" stroke-width="1" d="M 75.5 135 L 76 137.5 L 75 137.5 L 75.5 135 Z" />
 <path fill="rgb(240,243,242)" stroke="rgb(240,243,242)" stroke-width="1" d="M 75 139 Q 78.3 137.7 77 142.5 L 80 148.5 Q 77.5 150 81 151.5 L 82 153.5 L 81.5 155 L 83 155 Q 81.5 158.8 84.5 158 L 84.5 160 L 87 161.5 L 87 163.5 L 88.5 166 L 90 165.5 L 93 169.5 L 92.5 171 L 97 172 L 97 174 Q 100.8 172.5 100 175.5 L 103 176.5 Q 102.1 179.5 106.5 178 L 109.5 180 L 111 179.5 L 110.5 181 L 113.5 180 Q 114.8 182.3 119.5 181 L 124 177.5 L 123.5 176 L 126 177.5 L 127 186.5 L 126 189 L 115.5 191 L 101.5 187 L 86 173.5 L 87 171.5 L 84 170.5 L 77 154.5 L 75 139 Z M 90.5 175 Q 88.7 177.7 91.5 177 L 90.5 175 Z" />
 <path fill="rgb(240,243,242)" stroke="rgb(240,243,242)" stroke-width="1" d="M 107.5 202 L 113 202.5 L 111 203.5 L 115.5 204 L 118.5 203 L 120.5 206 L 114.5 206 L 108.5 204 L 107.5 202 Z" />
 <path fill="rgb(173,172,175)" stroke="rgb(173,172,175)" stroke-width="1" d="M 137.5 64 L 144 64.5 L 137.5 65 L 137.5 64 Z" />
 <path fill="rgb(173,172,175)" stroke="rgb(173,172,175)" stroke-width="1" d="M 131.5 65 L 135 66.5 L 127.5 68 L 128.5 66 L 131.5 65 Z" />
 <path fill="rgb(173,172,175)" stroke="rgb(173,172,175)" stroke-width="1" d="M 157.5 67 L 163 69.5 L 161.5 70 L 157.5 68 L 156 68.5 L 157.5 67 Z" />
 <path fill="rgb(173,172,175)" stroke="rgb(173,172,175)" stroke-width="1" d="M 123.5 68 L 126 68.5 L 123.5 69 L 123.5 68 Z" />
 <path fill="rgb(173,172,175)" stroke="rgb(173,172,175)" stroke-width="1" d="M 117.5 69 L 121 69.5 L 115.5 71 L 115.5 70 L 117.5 69 Z" />
 <path fill="rgb(173,172,175)" stroke="rgb(173,172,175)" stroke-width="1" d="M 159.5 70 L 160.5 72 L 159.5 70 Z" />
 <path fill="rgb(173,172,175)" stroke="rgb(173,172,175)" stroke-width="1" d="M 164 70 L 166 70.5 L 164 71.5 L 164 70 Z" />
 <path fill="rgb(173,172,175)" stroke="rgb(173,172,175)" stroke-width="1" d="M 112.5 71 L 114 71.5 L 108.5 74 L 108.5 73 L 112.5 71 Z" />
 <path fill="rgb(173,172,175)" stroke="rgb(173,172,175)" stroke-width="1" d="M 167.5 71 Q 169.8 70.3 169 72.5 L 167.5 71 Z" />
 <path fill="rgb(173,172,175)" stroke="rgb(173,172,175)" stroke-width="1" d="M 158.5 74 L 160.5 75 Q 161.7 72.8 163 75.5 Q 167.5 80 166 90.5 L 161.5 97 L 159 95.5 L 161 95.5 L 162 93.5 L 162 81.5 L 158 75.5 L 158.5 74 Z" />
 <path fill="rgb(173,172,175)" stroke="rgb(173,172,175)" stroke-width="1" d="M 164.5 75 L 166.5 78 L 164.5 75 Z" />
 <path fill="rgb(173,172,175)" stroke="rgb(173,172,175)" stroke-width="1" d="M 151.5 76 L 152 80.5 L 151 80.5 L 151.5 76 Z" />
 <path fill="rgb(173,172,175)" stroke="rgb(173,172,175)" stroke-width="1" d="M 175.5 76 L 180.5 82 L 177 79.5 L 185 94.5 L 185 104.5 Q 182.5 112.5 176.5 117 Q 168.5 123.5 156.5 126 L 155 125.5 Q 155.8 128.1 152.5 127 L 150.5 128 L 148.5 127 L 148.5 129 L 141.5 131 L 140 130.5 Q 140.8 132.8 138.5 132 L 129 137.5 L 127.5 140 Q 125.3 139.3 126 141.5 L 122 148.5 L 125 155 Q 128.8 153.5 128 156.5 L 129.5 158 L 135.5 152 Q 144.6 144.1 157.5 140 L 160.5 141 L 160.5 140 L 159 139.5 L 160.5 139 L 167 143 L 168 145.5 L 166.5 145 L 165 145.5 Q 167.3 146.8 164.5 148 L 163 147.5 L 161.5 150 Q 152.6 153.6 147 160.5 L 143 167.5 L 145.5 166 L 147 166.5 L 146.5 168 L 149 168.5 L 148.5 170 Q 151.8 168.9 151 171.5 L 163.5 180 L 166.5 180 L 171 176.5 L 173.5 173 L 172 175.5 Q 164.4 191.4 152.5 203 Q 150.2 205.7 144.5 205 L 139 202 L 137.5 205 L 130.5 208 L 118.5 209 L 100.5 205 L 83 194 L 74 180.5 L 75 177.5 L 73.5 175 Q 75.8 174.3 75 176.5 Q 79.7 186.3 87.5 193 L 90 193 Q 88.9 195.7 91.5 195 Q 101.4 207.1 124.5 206 L 135 203 L 138 197.5 L 138 192.5 L 130.5 180 L 127.5 181 L 116.5 159 L 115.5 162 L 104 141.5 L 102 135.5 L 101 120.5 L 109.5 110 L 116.5 106 L 129 109.5 L 116.5 115 L 114 117.5 Q 106.9 123.9 106 136.5 L 113 150.5 L 113 152.5 L 115.5 157 L 116 155.5 L 114 144.5 L 121 130 L 127.5 126 L 129 126.5 Q 128.3 124.3 130.5 125 L 136 124 Q 134.6 120 141.5 122 L 141.5 120 L 144.5 121 L 144.5 119 L 147.5 120 L 147.5 118 L 149.5 119 L 150.5 117 L 152.5 118 L 152.5 116 L 154.5 117 L 154.5 115 L 156.5 114 L 158.5 115 L 158.5 113 L 160.5 112 L 162 112.5 L 163.5 110 L 167.5 111 L 174 105.5 Q 179.2 101.2 178 90.5 Q 176.7 83.3 172 79.5 L 173.5 80 L 177 78.5 L 175.5 76 Z M 127.5 172 L 128 175.5 L 129 175.5 L 127.5 172 Z M 140.5 173 L 140 175.5 L 141 175.5 L 140.5 173 Z" />
 <path fill="rgb(173,172,175)" stroke="rgb(173,172,175)" stroke-width="1" d="M 108.5 81 L 107.5 83 L 108.5 81 Z" />
 <path fill="rgb(173,172,175)" stroke="rgb(173,172,175)" stroke-width="1" d="M 105.5 83 L 104.5 85 L 105.5 83 Z" />
 <path fill="rgb(173,172,175)" stroke="rgb(173,172,175)" stroke-width="1" d="M 100.5 87 L 97.5 91 L 100.5 87 Z" />
 <path fill="rgb(173,172,175)" stroke="rgb(173,172,175)" stroke-width="1" d="M 190.5 87 L 196 94.5 L 195.5 96 L 197 96.5 L 196.5 98 Q 198.8 97.3 198 99.5 L 197 101.5 L 199 101.5 L 196.5 112 L 195 98.5 L 190.5 87 Z" />
 <path fill="rgb(173,172,175)" stroke="rgb(173,172,175)" stroke-width="1" d="M 172.5 92 L 173 96.5 L 172 96.5 L 172.5 92 Z" />
 <path fill="rgb(173,172,175)" stroke="rgb(173,172,175)" stroke-width="1" d="M 154.5 99 L 154.5 102 L 152 100.5 L 154.5 99 Z" />
 <path fill="rgb(173,172,175)" stroke="rgb(173,172,175)" stroke-width="1" d="M 157.5 99 L 156.5 101 L 157.5 99 Z" />
 <path fill="rgb(173,172,175)" stroke="rgb(173,172,175)" stroke-width="1" d="M 170.5 103 L 169.5 105 L 170.5 103 Z" />
 <path fill="rgb(173,172,175)" stroke="rgb(173,172,175)" stroke-width="1" d="M 168.5 106 L 166.5 109 L 168.5 106 Z" />
 <path fill="rgb(173,172,175)" stroke="rgb(173,172,175)" stroke-width="1" d="M 192.5 107 L 193 109.5 L 192 109.5 L 192.5 107 Z" />
 <path fill="rgb(173,172,175)" stroke="rgb(173,172,175)" stroke-width="1" d="M 201.5 110 L 202 112.5 L 201 112.5 L 201.5 110 Z" />
 <path fill="rgb(173,172,175)" stroke="rgb(173,172,175)" stroke-width="1" d="M 84.5 115 L 87 129.5 L 86 129.5 L 85.5 128 L 84.5 130 L 84.5 115 Z" />
 <path fill="rgb(173,172,175)" stroke="rgb(173,172,175)" stroke-width="1" d="M 73.5 116 Q 75.8 115.3 75 117.5 L 73.5 116 Z" />
 <path fill="rgb(173,172,175)" stroke="rgb(173,172,175)" stroke-width="1" d="M 75.5 119 L 76 122.5 L 75 122.5 L 75.5 119 Z" />
 <path fill="rgb(173,172,175)" stroke="rgb(173,172,175)" stroke-width="1" d="M 187.5 124 L 186.5 126 L 187.5 124 Z" />
 <path fill="rgb(173,172,175)" stroke="rgb(173,172,175)" stroke-width="1" d="M 75.5 125 L 76 128.5 L 75 128.5 L 75.5 125 Z" />
 <path fill="rgb(173,172,175)" stroke="rgb(173,172,175)" stroke-width="1" d="M 191.5 126 L 190.5 128 L 191.5 126 Z" />
 <path fill="rgb(173,172,175)" stroke="rgb(173,172,175)" stroke-width="1" d="M 183.5 128 L 182.5 130 L 183.5 128 Z" />
 <path fill="rgb(173,172,175)" stroke="rgb(173,172,175)" stroke-width="1" d="M 189.5 129 L 183.5 136 L 189.5 129 Z" />
 <path fill="rgb(173,172,175)" stroke="rgb(173,172,175)" stroke-width="1" d="M 85.5 132 L 86 134.5 L 85 134.5 L 85.5 132 Z" />
 <path fill="rgb(173,172,175)" stroke="rgb(173,172,175)" stroke-width="1" d="M 180.5 137 L 179.5 139 L 180.5 137 Z" />
 <path fill="rgb(173,172,175)" stroke="rgb(173,172,175)" stroke-width="1" d="M 88.5 142 L 89.5 144 L 88.5 142 Z" />
 <path fill="rgb(173,172,175)" stroke="rgb(173,172,175)" stroke-width="1" d="M 97.5 146 L 99.5 149 L 97.5 146 Z" />
 <path fill="rgb(173,172,175)" stroke="rgb(173,172,175)" stroke-width="1" d="M 193.5 146 L 192.5 148 L 193.5 146 Z" />
 <path fill="rgb(173,172,175)" stroke="rgb(173,172,175)" stroke-width="1" d="M 91.5 147 L 92.5 149 L 91.5 147 Z" />
 <path fill="rgb(173,172,175)" stroke="rgb(173,172,175)" stroke-width="1" d="M 101.5 150 L 102.5 152 L 101.5 150 Z" />
 <path fill="rgb(173,172,175)" stroke="rgb(173,172,175)" stroke-width="1" d="M 94.5 151 L 96.5 154 L 94.5 151 Z" />
 <path fill="rgb(173,172,175)" stroke="rgb(173,172,175)" stroke-width="1" d="M 188.5 153 L 187.5 155 L 188.5 153 Z" />
 <path fill="rgb(173,172,175)" stroke="rgb(173,172,175)" stroke-width="1" d="M 106.5 155 L 108.5 158 L 106.5 155 Z" />
 <path fill="rgb(173,172,175)" stroke="rgb(173,172,175)" stroke-width="1" d="M 100.5 157 L 102.5 160 L 100.5 157 Z" />
 <path fill="rgb(173,172,175)" stroke="rgb(173,172,175)" stroke-width="1" d="M 185.5 157 L 183.5 160 L 185.5 157 Z" />
 <path fill="rgb(173,172,175)" stroke="rgb(173,172,175)" stroke-width="1" d="M 181.5 162 L 179.5 165 L 181.5 162 Z" />
 <path fill="rgb(173,172,175)" stroke="rgb(173,172,175)" stroke-width="1" d="M 90.5 165 L 96.5 172 L 90.5 165 Z" />
 <path fill="rgb(173,172,175)" stroke="rgb(173,172,175)" stroke-width="1" d="M 178.5 166 L 176.5 169 L 178.5 166 Z" />
 <path fill="rgb(173,172,175)" stroke="rgb(173,172,175)" stroke-width="1" d="M 83.5 170 L 84.5 172 L 83.5 170 Z" />
 <path fill="rgb(173,172,175)" stroke="rgb(173,172,175)" stroke-width="1" d="M 175.5 170 L 174.5 172 L 175.5 170 Z" />
 <path fill="rgb(173,172,175)" stroke="rgb(173,172,175)" stroke-width="1" d="M 85.5 173 L 87.5 176 L 85.5 173 Z" />
 <path fill="rgb(173,172,175)" stroke="rgb(173,172,175)" stroke-width="1" d="M 99.5 173 L 100.5 175 L 99.5 173 Z" />
 <path fill="rgb(173,172,175)" stroke="rgb(173,172,175)" stroke-width="1" d="M 122.5 177 L 120.5 180 L 122.5 177 Z" />
 <path fill="rgb(173,172,175)" stroke="rgb(173,172,175)" stroke-width="1" d="M 94.5 182 L 95.5 184 L 94.5 182 Z" />
 <path fill="rgb(173,172,175)" stroke="rgb(173,172,175)" stroke-width="1" d="M 104.5 199 L 107 199.5 L 104.5 200 L 104.5 199 Z" />
 <path fill="rgb(21,167,179)" stroke="rgb(21,167,179)" stroke-width="1" d="M 147.5 65 L 151 66.5 L 150.5 68 L 154.5 67 L 164 74.5 Q 173.3 81.7 172 99.5 Q 169.8 106.3 164.5 110 L 149.5 118 L 131.5 124 L 121 130 L 115 140.5 L 114 148.5 L 116 156.5 L 114 155.5 L 112 151.5 L 113 149.5 L 111 147.5 L 111 143.5 L 107 129.5 Q 109.9 120.4 116.5 115 L 129.5 109 L 154.5 102 L 163 95.5 Q 167.7 91.7 166 81.5 Q 163.8 74.8 158.5 71 L 152.5 68 L 150.5 69 L 148.5 68 L 146.5 68 L 143 66.5 L 144.5 66 L 147.5 68 L 148.5 66 L 147.5 65 Z M 145.5 114 L 133.5 119 Q 130.9 118.3 132 121 L 149 114.5 L 145.5 114 Z" />
 <path fill="rgb(21,167,179)" stroke="rgb(21,167,179)" stroke-width="1" d="M 128.5 67 L 141.5 68 L 151 74.5 Q 152.5 86 146.5 90 L 135.5 96 L 121.5 97 L 107 102 L 101 113.5 Q 104.5 115 102 116.5 L 100 124.5 L 102 128.5 Q 101.1 136.9 104 141.5 L 112 158 L 109.5 158 L 103 152.5 L 101.5 150 Q 99.3 150.8 100 148.5 L 88 133.5 L 84 113.5 L 85 111 Q 81.3 109.7 83 115.5 L 84 116.5 L 84 129.5 L 88 142.5 Q 93.7 152.8 102.5 160 L 110.5 165 L 116 165 L 116.5 159 L 123 170.5 L 123 176.5 Q 121.3 181.8 112.5 180 L 102.5 176 L 88 162.5 L 81 151.5 L 77 136.5 L 77 134.5 Q 75.1 119.1 80.5 111 L 83 111 Q 82 108 85 109 L 85.5 111 Q 91.1 94.6 103.5 85 L 116.5 77 L 126.5 74 L 139.5 73 L 141 71.5 L 139.5 69 Q 136 66.5 128.5 68 L 128.5 67 Z" />
 <path fill="rgb(21,167,179)" stroke="rgb(21,167,179)" stroke-width="1" d="M 165.5 71 L 168.5 73 Q 170 70.5 171.5 74 L 183 84.5 L 191 99.5 L 192 113.5 Q 189.9 122.4 184.5 128 L 172.5 135 L 147.5 144 Q 136.7 149.2 129.5 158 L 128 155 Q 124.3 156.5 125 153.5 L 122 148.5 L 126 140 L 129 138.5 L 130.5 136 L 140.5 131 L 168.5 122 L 181 112.5 Q 186.7 107.2 185 94.5 L 177 79 L 173.5 80 L 165.5 71 Z" />
 <path fill="rgb(21,167,179)" stroke="rgb(21,167,179)" stroke-width="1" d="M 197.5 100 L 200 104.5 L 202 113.5 L 202 125.5 L 195 144.5 L 168.5 179 L 163.5 180 L 151 171.5 Q 151.8 168.9 148.5 170 L 148.5 168 L 146 167.5 L 146.5 166 L 143 168.5 L 141.5 172 L 141 170.5 Q 144.2 162.2 150.5 157 L 179.5 139 L 190 129.5 L 195 120.5 L 196 112.5 L 198 108.5 L 198 102.5 L 197.5 100 Z" />
 <path fill="rgb(21,167,179)" stroke="rgb(21,167,179)" stroke-width="1" d="M 74.5 118 L 76 124.5 L 75 125.5 L 75 148.5 Q 79.3 172.2 95.5 184 Q 104.4 192.1 122.5 191 L 128 186.5 L 128 180 L 130.5 180 L 137 189.5 L 138 197.5 L 135 203 L 129.5 205 L 125.5 205 L 117.5 201 L 101.5 199 L 90 195 Q 91.3 192 87.5 193 Q 78.2 184.8 73 172.5 L 67 152.5 L 67 134.5 Q 69 124.5 74.5 118 Z" />
 <path fill="rgb(21,167,179)" stroke="rgb(21,167,179)" stroke-width="1" d="M 127.5 172 L 129 175.5 L 128 175.5 L 127.5 172 Z" />
 <path fill="rgb(21,167,179)" stroke="rgb(21,167,179)" stroke-width="1" d="M 140.5 173 L 141 175.5 L 140 175.5 L 140.5 173 Z" />
</svg>