<svg viewBox="0 0 274 274" version="1.1" xmlns="http://www.w3.org/2000/svg" desc="Created with imagetracer-ts 1.0.2" >
 <path fill="rgb(253,253,253)" stroke="rgb(253,253,253)" stroke-width="1" d="M 0 0 L 274 0 L 274 274 L 0 274 L 0 0 Z M 168.5 26 L 168.5 27 L 171 26.5 L 168.5 26 Z M 185.5 26 L 185.5 27 L 188 26.5 L 185.5 26 Z M 123.5 56 L 123.5 57 Q 127.8 56.3 128.5 59 L 132 58.5 Q 129.7 55.3 123.5 56 Z M 146.5 56 L 146.5 57 L 154 56.5 L 146.5 56 Z M 163.5 56 L 159 57 L 157.5 61 L 145.5 60 L 144.5 59 Q 140.3 58.3 139.5 61 L 135.5 60 L 134.5 61 L 126.5 61 L 123.5 60 L 123 61.5 L 110.5 69 L 104.5 69 L 103 71.5 L 99.5 73 L 100 74.5 L 98.5 75 L 98.5 77 L 96.5 74 L 96 76.5 L 98.5 78 L 98 79.5 L 99.5 82 L 103.5 80 Q 106.1 80.7 105 78 L 107.5 77 L 111.5 78 L 114.5 73 L 118.5 74 Q 123.8 75.5 122 71 L 126.5 70 L 133.5 73 Q 137.3 74.3 136 70.5 L 135.5 69 L 145 70 L 144 72.5 L 151 74 L 150 76.5 L 152 77 L 152 86.5 L 146.5 99 L 144.5 98 Q 142 99 143 103.5 L 140 105 L 138.5 108 Q 134.8 107 136 110 L 129.5 111 L 126.5 110 L 119.5 112 L 117.5 112 L 114 114 L 115 116.5 L 111.5 119 L 111.5 117 L 105 118 L 104.5 116 L 104 118.5 L 102.5 118 L 101 121.5 L 97.5 124 L 96 123.5 L 97.5 123 L 98.5 121 Q 92 119.5 90.5 123 Q 87.9 122.3 89 125 L 91 125.5 L 88 126 L 87.5 123 L 87 127 Q 82.8 128 81.5 125 L 81 129 L 78.5 128 Q 77.4 130.8 74 130 L 73 132.5 L 74 135.5 L 72.5 135 Q 67.9 134.4 66.5 137 Q 63.3 138.3 63.5 143 L 62.5 141 L 59 145.5 L 60 149.5 L 59 154 L 61.5 153 L 62 157.5 L 60 165.5 Q 61.3 168.3 62.5 166 L 65 171.5 L 64 174.5 L 66 175.5 L 64 176.5 L 67 182.5 L 67 186.5 Q 68.3 189.3 69.5 187 L 73.5 189 L 76.5 187 Q 82.8 185.1 81 190 L 92.5 186 L 94.5 187 Q 98.3 186 97 189 L 100 189.5 L 97.5 190 L 98 191.5 L 96.5 191 L 92.5 192 Q 89.8 193.3 92 194.5 L 90 198 L 92 198.5 Q 90.8 201.3 89.5 199 L 83 200 L 84.5 203 L 87 202 Q 88 205 85 204 L 84 207.5 L 86 214 L 90.5 214 L 95.5 218 L 100.5 218 L 100.5 219 Q 98.3 218.3 99 220.5 L 110.5 227 L 115.5 226 L 116 228 L 118.5 229 L 127.5 227 L 135.5 227 L 137 231 L 149 232.5 L 142.5 233 L 143.5 235 L 153.5 234 L 158.5 231 L 161.5 232 L 166.5 230 L 170.5 232 Q 175.8 232.8 177.5 230 Q 182.3 231.3 181 228 L 178.5 229 L 174 228.5 L 178.5 226 L 180.5 227 L 183.5 226 L 185.5 226 Q 187.8 226.8 187 224.5 Q 184.8 223.3 187.5 222 L 187 223.5 L 193 225 Q 194 222 191 223 Q 189.5 219.2 192.5 220 L 194 219.5 L 193 223 L 197 223 Q 196 220 199 221 L 198 218.5 L 201 216.5 L 201 214 L 205 214 L 205 212.5 L 206.5 209 L 208.5 210 L 211.5 204 L 212.5 206 L 213 204.5 L 218 202.5 L 214 200.5 L 219 199.5 L 217 196.5 L 219.5 195 L 222 191.5 Q 219.5 190 223 188.5 Q 222.3 185.9 225 187 L 226 180.5 L 227.5 179 Q 230.1 179.8 229 176.5 L 229 174.5 L 230 170.5 L 231.5 171 L 233 170.5 L 231 164.5 L 232 158.5 L 233 155.5 L 232 154.5 L 232 143.5 L 233.5 144 L 234 141.5 L 232.5 142 L 231 139 L 233.5 140 L 234 137.5 Q 232.8 134.8 231.5 137 L 230 134.5 L 232 131.5 L 231 129 L 228 127.5 L 230 122.5 L 226 113.5 Q 228 106.6 224 108 L 222 104.5 Q 221.3 101.9 224 103 Q 225.1 100.3 222.5 101 L 221 101.5 Q 222.1 98.2 219.5 99 L 218 95.5 L 218 93.5 L 217 87.5 L 216 87.5 Q 217.9 92.9 214.5 92 Q 210.3 90.3 213 88.5 L 210 86.5 Q 209.2 83.9 212.5 85 Q 215.5 83.5 212.5 82 Q 206.2 84.2 208 78.5 L 205.5 78 L 203.5 82 L 203 79.5 Q 203.8 77.3 201.5 78 Q 199.7 80.7 198 76.5 Q 198.8 74.3 196.5 75 L 196.5 73 L 191 73 Q 192.5 69.2 189.5 70 L 187.5 70 L 188 68.5 L 182.5 68 L 178.5 65 L 173.5 64 L 170 64 Q 171.7 59.9 167.5 61 L 164.5 60 L 161.5 61 L 161.5 60 Q 163.8 60.8 163 58.5 L 167 56.5 L 163.5 56 Z M 110.5 64 L 109 65.5 Q 108.3 67.8 110.5 67 Q 113.5 65.5 110.5 64 Z M 147.5 75 L 146 76.5 L 148 80.5 L 147 83.5 Q 146.3 86.1 149 85 L 149 76.5 L 147.5 75 Z M 137 101 Q 135.7 104.3 140.5 103 L 142 103.5 L 142 101 L 137 101 Z M 225.5 104 L 224 105.5 L 226 106.5 L 225.5 104 Z M 107.5 114 L 107.5 115 L 110 114.5 L 107.5 114 Z M 234.5 123 L 234 126.5 L 235 126.5 L 234.5 123 Z M 233 145 L 233 146.5 L 235 145.5 L 233 145 Z M 57 154 L 57 163.5 L 59 164 L 59 154.5 L 57 154 Z M 234.5 161 L 234 163.5 L 235 163.5 L 234.5 161 Z M 61.5 169 L 59 170 Q 57.9 173.3 62 172 L 61.5 169 Z M 233.5 173 L 234 176.5 L 235 176.5 Q 236.5 172.1 233.5 173 Z M 88.5 189 L 88.5 190 L 95 189.5 L 88.5 189 Z M 223.5 197 L 219 198.5 L 225 199 Q 226.1 196.3 223.5 197 Z M 122.5 229 L 124 230.5 Q 124.8 228.3 122.5 229 Z M 125.5 229 L 127 230.5 Q 127.8 228.3 125.5 229 Z M 137.5 233 L 137.5 234 L 141 233.5 L 137.5 233 Z M 163.5 233 L 162.5 235 Q 166.3 235.8 167 233.5 L 163.5 233 Z M 123.5 234 L 123.5 235 L 127 234.5 L 123.5 234 Z" />
 <path fill="rgb(253,253,253)" stroke="rgb(253,253,253)" stroke-width="1" d="M 176.5 66 L 182 69.5 L 180.5 70 L 176.5 66 Z" />
 <path fill="rgb(253,253,253)" stroke="rgb(253,253,253)" stroke-width="1" d="M 187 87 Q 190 85.8 189 89.5 L 191 90.5 L 190 88.5 L 192.5 88 L 193.5 91 L 195.5 92 L 196.5 90 L 201 91.5 L 200 93.5 Q 202.2 94.7 201 99.5 L 202.5 101 L 203 96.5 L 202.5 95 L 204.5 94 Q 208.3 96.3 207 103.5 L 206 103.5 L 205.5 102 L 204 104.5 L 207 105 L 205 108.5 L 206 111 L 203.5 112 L 202.5 109 L 199 110 L 198.5 108 L 191 108 L 190.5 110 L 188 106 L 185 107.5 Q 185.8 109.8 183.5 109 L 184 107.5 Q 182.8 102.9 188 105 L 188 96.5 Q 185.8 95.3 187 90.5 L 187 88.5 L 187 87 Z" />
 <path fill="rgb(253,253,253)" stroke="rgb(253,253,253)" stroke-width="1" d="M 186.5 102 L 187 104 L 185 103.5 L 186.5 102 Z" />
 <path fill="rgb(253,253,253)" stroke="rgb(253,253,253)" stroke-width="1" d="M 83.5 129 L 82.5 131 L 83.5 129 Z" />
 <path fill="rgb(253,253,253)" stroke="rgb(253,253,253)" stroke-width="1" d="M 170.5 142 L 184.5 143 L 187 145.5 L 187 149 Q 184.3 147.9 185 150.5 L 182 151.5 L 183 154 Q 180.3 152.9 181 155.5 L 179.5 155 L 178 155.5 L 179 158 L 177 158 L 177 161 L 174 161 Q 175.7 166.2 172 165 L 171.5 163 L 169 169 L 165.5 168 L 164.5 170 L 164 168 L 154.5 168 L 154 170 L 150 170 L 150 171.5 L 147.5 173 Q 146.3 170 142 171 Q 140.9 173.7 143.5 173 L 145 172.5 L 139.5 175 L 139.5 174 L 141 173.5 L 137.5 172 Q 135.3 175.3 130 175.5 L 134 176.5 L 130.5 178 L 124.5 175 L 123.5 178 L 120.5 179 L 118.5 179 L 112 181.5 L 112.5 183 Q 107.3 181.8 106 184.5 L 107 186.5 L 102.5 188 L 98 186 Q 96.5 181.5 101 183 L 103.5 187 L 104 185.5 L 103 183.5 L 104 181.5 L 103.5 180 L 108 181 Q 106.8 178 110.5 179 L 113.5 177 L 115.5 177 L 121 173.5 Q 119.9 170.2 122.5 171 L 127 168.5 L 128.5 166 L 128.5 168 Q 130.8 168.8 130 166.5 L 132 165.5 L 133.5 168 L 134 165.5 L 133.5 164 L 136 163.5 Q 132.3 161.8 135.5 160 L 140.5 161 Q 144 159.5 143.5 154 L 144.5 156 Q 144.4 150.4 148.5 149 L 149 154 Q 151.7 155.1 151 152.5 L 154 151 L 153 146.5 L 154 146.5 L 154.5 148 L 156.5 144 L 158.5 145 L 160.5 145 L 162.5 146 L 163 144 L 161 143.5 L 167.5 143 L 168.5 146 L 173 144.5 L 170.5 142 Z M 157.5 163 Q 158.1 165.8 163 165 Q 164.4 161 157.5 163 Z M 164.5 165 Q 162.7 167.7 165.5 167 L 164.5 165 Z" />
 <path fill="rgb(253,253,253)" stroke="rgb(253,253,253)" stroke-width="1" d="M 217.5 161 Q 220.3 162.3 218 163.5 L 219.5 168 L 221.5 165 L 223 168.5 L 221 174.5 L 218.5 177 Q 216.3 176.3 217 178.5 L 215.5 178 Q 213.3 177.3 214 179.5 Q 211.5 181 215 182.5 L 213.5 184 L 211.5 180 Q 210.2 182.2 209 179.5 L 208 177.5 L 208 175.5 L 209.5 172 L 211 171.5 L 209 170.5 L 214 167.5 L 217.5 161 Z M 217.5 169 L 215 171.5 L 217 172 L 217.5 175 L 219 172.5 L 217.5 169 Z" />
 <path fill="rgb(253,253,253)" stroke="rgb(253,253,253)" stroke-width="1" d="M 179 200 Q 182 199 181 202 L 178.5 203 L 179 201.5 L 179 200 Z" />
 <path fill="rgb(253,253,253)" stroke="rgb(253,253,253)" stroke-width="1" d="M 174.5 204 L 178 205 Q 176.8 208 180.5 207 Q 182 203.5 183.5 206 L 186 207.5 L 183 209.5 Q 183.7 212.1 181 211 L 180.5 208 L 177.5 215 L 177 213 L 171 216.5 Q 171.8 218.8 169.5 218 L 166 220.5 Q 166.9 223.5 162.5 222 L 157 224 L 156 221.5 L 159 221 Q 160.2 217.3 155 219 L 153.5 227 L 152 226.5 L 151.5 228 L 150.5 226 L 145.5 227 L 142 225.5 L 146 223.5 Q 145.1 220.5 149.5 222 L 151.5 222 L 153 221.5 L 152 219 Q 154.7 217.1 161.5 218 L 165 219 Q 166.1 216.3 163.5 217 L 159 214.5 Q 160.2 211.8 161.5 214 L 164.5 215 L 168 212.5 L 166 209.5 L 169.5 209 L 172.5 210 Q 174.8 210.8 174 208.5 L 173 205.5 L 174.5 204 Z" />
 <path fill="rgb(251,251,247)" stroke="rgb(251,251,247)" stroke-width="1" d="M 168.5 26 L 171 26.5 L 168.5 27 L 168.5 26 Z" />
 <path fill="rgb(251,251,247)" stroke="rgb(251,251,247)" stroke-width="1" d="M 185.5 26 L 188 26.5 L 185.5 27 L 185.5 26 Z" />
 <path fill="rgb(251,251,247)" stroke="rgb(251,251,247)" stroke-width="1" d="M 123.5 56 Q 129.7 55.3 132 58.5 L 128.5 59 Q 127.8 56.3 123.5 57 L 123.5 56 Z" />
 <path fill="rgb(251,251,247)" stroke="rgb(251,251,247)" stroke-width="1" d="M 146.5 56 L 154 56.5 L 146.5 57 L 146.5 56 Z" />
 <path fill="rgb(251,251,247)" stroke="rgb(251,251,247)" stroke-width="1" d="M 163.5 56 L 167 56.5 L 163 58.5 Q 163.8 61.1 160.5 60 L 158.5 61 L 159 59.5 Q 157.7 55.3 162.5 57 L 163.5 56 Z" />
 <path fill="rgb(251,251,247)" stroke="rgb(251,251,247)" stroke-width="1" d="M 141.5 59 L 145 59.5 L 140.5 61 L 141.5 59 Z" />
 <path fill="rgb(251,251,247)" stroke="rgb(251,251,247)" stroke-width="1" d="M 123.5 60 L 126.5 61 L 131 61.5 L 123 62 Q 124.1 64.7 121.5 64 L 119.5 65 L 119.5 64 L 123 61.5 L 123.5 60 Z" />
 <path fill="rgb(251,251,247)" stroke="rgb(251,251,247)" stroke-width="1" d="M 164.5 60 L 167.5 61 Q 171.3 59.8 170 63.5 L 166.5 61 L 165.5 62 L 163 61.5 L 164.5 60 Z" />
 <path fill="rgb(251,251,247)" stroke="rgb(251,251,247)" stroke-width="1" d="M 110.5 64 Q 113.5 65.5 110.5 67 Q 108.3 67.8 109 65.5 L 110.5 64 Z" />
 <path fill="rgb(251,251,247)" stroke="rgb(251,251,247)" stroke-width="1" d="M 171.5 64 L 178.5 65 L 182.5 68 L 187.5 68 L 191 70 Q 189.2 75.3 196.5 73 L 196.5 76 L 194.5 74 L 189 72.5 L 189.5 71 Q 187.3 71.8 188 69.5 L 185.5 69 L 182.5 70 L 176.5 66 L 171.5 65 L 171.5 64 Z" />
 <path fill="rgb(251,251,247)" stroke="rgb(251,251,247)" stroke-width="1" d="M 128.5 68 L 130.5 69 Q 132 66.5 137.5 68 L 137.5 69 L 135 69.5 L 136 73 L 126.5 70 L 122 71 Q 123.5 74.8 120.5 74 L 117 72.5 L 128.5 68 Z" />
 <path fill="rgb(251,251,247)" stroke="rgb(251,251,247)" stroke-width="1" d="M 140.5 69 L 144 69.5 L 140.5 70 L 140.5 69 Z" />
 <path fill="rgb(251,251,247)" stroke="rgb(251,251,247)" stroke-width="1" d="M 145.5 70 L 146 72 L 148 72.5 L 144.5 73 L 145 71.5 L 145.5 70 Z" />
 <path fill="rgb(251,251,247)" stroke="rgb(251,251,247)" stroke-width="1" d="M 102.5 72 L 101.5 74 L 99 73.5 L 102.5 72 Z" />
 <path fill="rgb(251,251,247)" stroke="rgb(251,251,247)" stroke-width="1" d="M 96.5 74 L 97.5 76 L 99 75.5 L 96 77 L 96.5 74 Z" />
 <path fill="rgb(251,251,247)" stroke="rgb(251,251,247)" stroke-width="1" d="M 112.5 74 L 113 76.5 Q 111.8 79.3 110.5 77 L 109 76.5 L 112.5 74 Z" />
 <path fill="rgb(251,251,247)" stroke="rgb(251,251,247)" stroke-width="1" d="M 147.5 75 L 149 76.5 L 149 85 Q 146.3 86.1 147 83.5 L 148 80.5 L 146 76.5 L 147.5 75 Z" />
 <path fill="rgb(251,251,247)" stroke="rgb(251,251,247)" stroke-width="1" d="M 201.5 78 Q 203.8 77.3 203 79.5 L 208 78.5 Q 206.2 84.2 212.5 82 Q 215.5 83.5 212.5 85 Q 209.2 83.9 210 86.5 L 209 86.5 Q 209.7 83.9 207 85 L 207 83 Q 203.3 84.5 204 81.5 L 201.5 78 Z" />
 <path fill="rgb(251,251,247)" stroke="rgb(251,251,247)" stroke-width="1" d="M 152 81 Q 154.7 79.9 154 82.5 L 152.5 86 L 152 81 Z" />
 <path fill="rgb(251,251,247)" stroke="rgb(251,251,247)" stroke-width="1" d="M 151.5 87 L 152 89.5 L 150.5 92 L 150 90.5 L 151.5 87 Z" />
 <path fill="rgb(251,251,247)" stroke="rgb(251,251,247)" stroke-width="1" d="M 216.5 87 L 218 94 Q 214.2 94.8 213 91.5 L 214.5 92 L 216 92 L 216.5 87 Z" />
 <path fill="rgb(251,251,247)" stroke="rgb(251,251,247)" stroke-width="1" d="M 186.5 88 Q 189.3 89.3 187 90.5 L 188 105 Q 182.8 107.1 184 102.5 L 186 100.5 L 186.5 88 Z M 186.5 102 L 185 103.5 L 187 104 L 186.5 102 Z" />
 <path fill="rgb(251,251,247)" stroke="rgb(251,251,247)" stroke-width="1" d="M 189.5 88 L 191 90.5 L 189 89.5 L 189.5 88 Z" />
 <path fill="rgb(251,251,247)" stroke="rgb(251,251,247)" stroke-width="1" d="M 192.5 89 L 196 90 L 195.5 92 L 192.5 89 Z" />
 <path fill="rgb(251,251,247)" stroke="rgb(251,251,247)" stroke-width="1" d="M 200.5 92 L 204 94.5 L 202 95.5 L 203 100.5 L 201 99.5 L 200.5 92 Z" />
 <path fill="rgb(251,251,247)" stroke="rgb(251,251,247)" stroke-width="1" d="M 149.5 93 L 148.5 95 L 149.5 93 Z" />
 <path fill="rgb(251,251,247)" stroke="rgb(251,251,247)" stroke-width="1" d="M 144.5 98 L 147 99.5 L 144 101.5 L 145 103.5 L 140.5 106 L 140.5 105 L 142 104.5 Q 140.8 102 137 103 L 137 101 L 142 101 L 142.5 104 Q 141.9 99.4 144.5 98 Z" />
 <path fill="rgb(251,251,247)" stroke="rgb(251,251,247)" stroke-width="1" d="M 207.5 100 L 208 107.5 L 205.5 109 L 207 106.5 Q 207.8 103.9 204.5 105 L 205 103.5 L 205.5 102 L 206.5 104 L 207.5 100 Z" />
 <path fill="rgb(251,251,247)" stroke="rgb(251,251,247)" stroke-width="1" d="M 222.5 101 Q 225.1 100.3 224 103 L 221 102.5 L 222.5 101 Z" />
 <path fill="rgb(251,251,247)" stroke="rgb(251,251,247)" stroke-width="1" d="M 225.5 104 L 226 106.5 L 224 105.5 L 225.5 104 Z" />
 <path fill="rgb(251,251,247)" stroke="rgb(251,251,247)" stroke-width="1" d="M 186.5 106 L 188 106.5 L 185 108.5 L 186.5 106 Z" />
 <path fill="rgb(251,251,247)" stroke="rgb(251,251,247)" stroke-width="1" d="M 139.5 107 L 139 108.5 L 136.5 112 L 133.5 113 L 131.5 113 L 117.5 116 L 115.5 116 Q 112.9 116.7 114 114 L 117.5 112 L 119.5 112 L 126.5 110 L 129.5 111 L 136 110 Q 134.8 107 138.5 108 L 139.5 107 Z" />
 <path fill="rgb(251,251,247)" stroke="rgb(251,251,247)" stroke-width="1" d="M 191.5 108 L 199 108.5 L 195.5 110 L 191.5 109 L 191.5 108 Z" />
 <path fill="rgb(251,251,247)" stroke="rgb(251,251,247)" stroke-width="1" d="M 225.5 108 L 226 110.5 L 225 110.5 L 225.5 108 Z" />
 <path fill="rgb(251,251,247)" stroke="rgb(251,251,247)" stroke-width="1" d="M 202.5 109 L 203 111.5 L 201.5 111 L 200 110.5 L 202.5 109 Z" />
 <path fill="rgb(251,251,247)" stroke="rgb(251,251,247)" stroke-width="1" d="M 107.5 114 L 110 114.5 L 107.5 115 L 107.5 114 Z" />
 <path fill="rgb(251,251,247)" stroke="rgb(251,251,247)" stroke-width="1" d="M 226.5 114 L 230 122.5 L 228.5 127 Q 229.2 120.3 226 117.5 L 226.5 114 Z" />
 <path fill="rgb(251,251,247)" stroke="rgb(251,251,247)" stroke-width="1" d="M 104.5 116 L 105 119.5 L 101 121 L 102.5 118 L 104 118.5 L 104.5 116 Z" />
 <path fill="rgb(251,251,247)" stroke="rgb(251,251,247)" stroke-width="1" d="M 107.5 117 L 112 117.5 L 106.5 120 L 106 118.5 L 107.5 117 Z" />
 <path fill="rgb(251,251,247)" stroke="rgb(251,251,247)" stroke-width="1" d="M 92.5 121 L 99 121.5 L 94.5 124 L 92 123 Q 93.1 126.3 89 125 Q 87.9 122.3 90.5 123 L 92.5 121 Z" />
 <path fill="rgb(251,251,247)" stroke="rgb(251,251,247)" stroke-width="1" d="M 87.5 123 L 88 126.5 L 87 126.5 L 87.5 123 Z" />
 <path fill="rgb(251,251,247)" stroke="rgb(251,251,247)" stroke-width="1" d="M 234.5 123 L 235 126.5 L 234 126.5 L 234.5 123 Z" />
 <path fill="rgb(251,251,247)" stroke="rgb(251,251,247)" stroke-width="1" d="M 81.5 125 L 85 127 Q 86.3 130 82.5 129 L 73.5 133 L 74 131.5 Q 73.2 128.9 76.5 130 Q 78 126.5 79.5 129 L 81 129 L 81.5 125 Z" />
 <path fill="rgb(251,251,247)" stroke="rgb(251,251,247)" stroke-width="1" d="M 228.5 129 Q 231.8 127.9 231 130.5 L 231 132.5 L 230.5 134 L 228.5 129 Z" />
 <path fill="rgb(251,251,247)" stroke="rgb(251,251,247)" stroke-width="1" d="M 69.5 135 L 73 135.5 L 69 137 Q 70.2 140.7 65 139 L 65 142.5 L 64 145 L 60 145.5 Q 63.5 147 61 148.5 L 60 151.5 L 61 154 Q 57.5 152.9 59 160.5 L 59 162.5 Q 59.7 165.1 57 164 L 57 154.5 Q 60 155.5 59 150.5 L 59 148.5 L 59 145.5 L 62.5 141 L 63.5 143 Q 63.3 138.3 66.5 137 L 69.5 135 Z" />
 <path fill="rgb(251,251,247)" stroke="rgb(251,251,247)" stroke-width="1" d="M 232.5 136 L 234 139.5 L 232.5 139 Q 230.3 139.8 231 137.5 L 232.5 136 Z" />
 <path fill="rgb(251,251,247)" stroke="rgb(251,251,247)" stroke-width="1" d="M 233.5 141 L 234 143.5 L 232 142.5 L 233.5 141 Z" />
 <path fill="rgb(251,251,247)" stroke="rgb(251,251,247)" stroke-width="1" d="M 168.5 143 Q 172.3 142.3 173 144.5 Q 171.3 142.9 169.5 146 L 168 145.5 L 168.5 143 Z" />
 <path fill="rgb(251,251,247)" stroke="rgb(251,251,247)" stroke-width="1" d="M 155.5 144 L 156 146.5 Q 153.3 147.6 154 151 L 151 152.5 Q 151.7 155.1 149 154 Q 147.8 149.4 150.5 148 L 152 148.5 L 152.5 146 L 153.5 148 L 155.5 144 Z" />
 <path fill="rgb(251,251,247)" stroke="rgb(251,251,247)" stroke-width="1" d="M 186.5 144 L 190 145.5 L 187 147 L 186.5 144 Z" />
 <path fill="rgb(251,251,247)" stroke="rgb(251,251,247)" stroke-width="1" d="M 233 145 L 235 145.5 L 235 147.5 L 234.5 149 L 233 145 Z" />
 <path fill="rgb(251,251,247)" stroke="rgb(251,251,247)" stroke-width="1" d="M 183.5 150 L 184 152 L 182 151.5 L 183.5 150 Z" />
 <path fill="rgb(251,251,247)" stroke="rgb(251,251,247)" stroke-width="1" d="M 141.5 155 Q 144.5 154.1 143 158.5 L 140.5 161 Q 136 160 135 162.5 L 135.5 164 L 133 164.5 L 134 167.5 L 132 166.5 L 131 163.5 L 136 160.5 L 137.5 158 L 141.5 155 Z" />
 <path fill="rgb(251,251,247)" stroke="rgb(251,251,247)" stroke-width="1" d="M 178.5 155 Q 180.8 154.3 180 156.5 L 178.5 155 Z" />
 <path fill="rgb(251,251,247)" stroke="rgb(251,251,247)" stroke-width="1" d="M 61.5 159 L 62 162.5 L 61 162.5 L 61.5 159 Z" />
 <path fill="rgb(251,251,247)" stroke="rgb(251,251,247)" stroke-width="1" d="M 218.5 159 L 222 164.5 L 219.5 168 L 218 163.5 Q 220.5 162 217 160.5 L 218.5 159 Z" />
 <path fill="rgb(251,251,247)" stroke="rgb(251,251,247)" stroke-width="1" d="M 231.5 159 L 232 162.5 L 231 162.5 L 231.5 159 Z" />
 <path fill="rgb(251,251,247)" stroke="rgb(251,251,247)" stroke-width="1" d="M 234.5 161 L 235 163.5 L 234 163.5 L 234.5 161 Z" />
 <path fill="rgb(251,251,247)" stroke="rgb(251,251,247)" stroke-width="1" d="M 172.5 162 L 172 163.5 L 171.5 165 L 171 163.5 L 172.5 162 Z" />
 <path fill="rgb(251,251,247)" stroke="rgb(251,251,247)" stroke-width="1" d="M 216.5 162 L 217 163.5 L 216.5 166 Q 213.8 164.8 216 163.5 L 216.5 162 Z" />
 <path fill="rgb(251,251,247)" stroke="rgb(251,251,247)" stroke-width="1" d="M 157.5 163 Q 164.4 161 163 165 Q 158.1 165.8 157.5 163 Z" />
 <path fill="rgb(251,251,247)" stroke="rgb(251,251,247)" stroke-width="1" d="M 61.5 164 L 62 166.5 L 60 167.5 L 61.5 164 Z" />
 <path fill="rgb(251,251,247)" stroke="rgb(251,251,247)" stroke-width="1" d="M 129.5 164 Q 132.3 165.3 130 166.5 Q 130.8 168.8 128.5 168 L 126 166.5 L 129.5 164 Z" />
 <path fill="rgb(251,251,247)" stroke="rgb(251,251,247)" stroke-width="1" d="M 164.5 165 L 165.5 167 Q 162.7 167.7 164.5 165 Z" />
 <path fill="rgb(251,251,247)" stroke="rgb(251,251,247)" stroke-width="1" d="M 231.5 165 L 233 170.5 L 231.5 171 L 230 167.5 L 231.5 165 Z" />
 <path fill="rgb(251,251,247)" stroke="rgb(251,251,247)" stroke-width="1" d="M 213.5 166 L 214 167.5 L 211 169.5 L 213.5 166 Z" />
 <path fill="rgb(251,251,247)" stroke="rgb(251,251,247)" stroke-width="1" d="M 123 168 L 127 168.5 L 121 171 L 119.5 175 L 114.5 178 L 112.5 178 L 108 179 L 108 181 L 104 181 L 104 182.5 L 103 184.5 L 105 187.5 L 98.5 192 L 96.5 192 Q 93.9 191.2 95 194.5 L 91 196 L 90.5 198 L 90 196.5 L 92.5 192 L 100 189.5 L 97 189 Q 98.3 186 94.5 187 L 92.5 186 L 91 186.5 L 107.5 178 L 112.5 177 L 123 170 L 123 168 Z M 98 183 L 98 186 L 103.5 188 L 101 184.5 Q 101.7 181.5 98 183 Z" />
 <path fill="rgb(251,251,247)" stroke="rgb(251,251,247)" stroke-width="1" d="M 154 168 L 164 168.5 L 160.5 170 L 156.5 171 Q 155 168.5 153.5 172 Q 148.7 173.3 150 170 Q 155.2 171.7 154 168 Z" />
 <path fill="rgb(251,251,247)" stroke="rgb(251,251,247)" stroke-width="1" d="M 61.5 169 L 62 172 Q 57.9 173.3 59 170 L 61.5 169 Z" />
 <path fill="rgb(251,251,247)" stroke="rgb(251,251,247)" stroke-width="1" d="M 217.5 169 L 219 172.5 L 217.5 175 L 217 172 L 215 171.5 L 217.5 169 Z" />
 <path fill="rgb(251,251,247)" stroke="rgb(251,251,247)" stroke-width="1" d="M 222.5 169 L 223 171.5 L 222 171.5 L 222.5 169 Z" />
 <path fill="rgb(251,251,247)" stroke="rgb(251,251,247)" stroke-width="1" d="M 142.5 171 L 146 171.5 L 143.5 173 L 142.5 171 Z" />
 <path fill="rgb(251,251,247)" stroke="rgb(251,251,247)" stroke-width="1" d="M 135.5 172 L 138.5 173 L 141 173.5 L 138.5 175 Q 137 172.5 135.5 176 L 130 175.5 L 136 173.5 L 135.5 172 Z" />
 <path fill="rgb(251,251,247)" stroke="rgb(251,251,247)" stroke-width="1" d="M 233.5 173 Q 236.5 172.1 235 176.5 L 234 176.5 L 233.5 173 Z" />
 <path fill="rgb(251,251,247)" stroke="rgb(251,251,247)" stroke-width="1" d="M 124.5 175 Q 128.5 174.5 129 177.5 L 127.5 178 L 125.5 178 L 123 176.5 L 124.5 175 Z" />
 <path fill="rgb(251,251,247)" stroke="rgb(251,251,247)" stroke-width="1" d="M 207.5 175 L 208.5 177 L 207.5 175 Z" />
 <path fill="rgb(251,251,247)" stroke="rgb(251,251,247)" stroke-width="1" d="M 229.5 175 L 229 176.5 Q 230.1 179.8 227.5 179 L 226 179.5 L 229.5 175 Z" />
 <path fill="rgb(251,251,247)" stroke="rgb(251,251,247)" stroke-width="1" d="M 64.5 176 L 67 177.5 L 71.5 187 L 76 187.5 L 73.5 189 L 69.5 187 Q 68.3 189.3 67 186.5 L 67 182.5 L 65 180.5 L 64.5 176 Z" />
 <path fill="rgb(251,251,247)" stroke="rgb(251,251,247)" stroke-width="1" d="M 205.5 176 L 209 178 L 210.5 181 L 212 180.5 L 211 182.5 L 215 184 L 213 180.5 L 214 178 L 216.5 179 L 217 177 L 219 177.5 L 214.5 185 L 211.5 187 L 210 184.5 L 210 182.5 L 208.5 180 Q 206.3 180.8 207 178.5 L 205.5 176 Z" />
 <path fill="rgb(251,251,247)" stroke="rgb(251,251,247)" stroke-width="1" d="M 120.5 177 L 123 178.5 L 122 181 L 116.5 182 L 115 181.5 L 112.5 185 L 107.5 187 L 106 184.5 Q 107.6 181.6 113 182.5 L 112.5 181 L 120.5 177 Z" />
 <path fill="rgb(251,251,247)" stroke="rgb(251,251,247)" stroke-width="1" d="M 224.5 185 L 225 187 L 223 186.5 L 224.5 185 Z" />
 <path fill="rgb(251,251,247)" stroke="rgb(251,251,247)" stroke-width="1" d="M 81 187 L 88 187.5 L 81 190 L 81 187 Z" />
 <path fill="rgb(251,251,247)" stroke="rgb(251,251,247)" stroke-width="1" d="M 222.5 188 L 221.5 190 L 222.5 188 Z" />
 <path fill="rgb(251,251,247)" stroke="rgb(251,251,247)" stroke-width="1" d="M 88.5 189 L 95 189.5 L 88.5 190 L 88.5 189 Z" />
 <path fill="rgb(251,251,247)" stroke="rgb(251,251,247)" stroke-width="1" d="M 221.5 191 L 222 193 Q 219.3 191.9 220 194.5 L 219 194.5 L 221.5 191 Z" />
 <path fill="rgb(251,251,247)" stroke="rgb(251,251,247)" stroke-width="1" d="M 225.5 195 L 226 196.5 L 225 199 L 216.5 200 L 217.5 198 L 219.5 198 L 225 197 L 225.5 195 Z" />
 <path fill="rgb(251,251,247)" stroke="rgb(251,251,247)" stroke-width="1" d="M 86.5 199 L 88.5 200 L 90 199.5 L 84.5 203 L 83 200 L 86.5 199 Z" />
 <path fill="rgb(251,251,247)" stroke="rgb(251,251,247)" stroke-width="1" d="M 181.5 201 L 183 204 Q 187.1 202.3 186 206.5 L 184.5 206 L 182.5 205 Q 181.4 207.8 178 207 Q 179.3 204 175.5 205 L 176.5 203 L 181.5 201 Z" />
 <path fill="rgb(251,251,247)" stroke="rgb(251,251,247)" stroke-width="1" d="M 213 201 L 218 202.5 L 213 204.5 L 211.5 208 L 211 206.5 L 213 201 Z" />
 <path fill="rgb(251,251,247)" stroke="rgb(251,251,247)" stroke-width="1" d="M 85 204 Q 88 202.8 87 206.5 L 88 209.5 Q 85.8 210.8 88.5 212 L 90.5 212 L 98 217.5 L 95.5 218 L 90.5 214 L 86 214 L 84 207.5 L 85 204 Z" />
 <path fill="rgb(251,251,247)" stroke="rgb(251,251,247)" stroke-width="1" d="M 175.5 206 L 174 208.5 Q 174.8 210.8 172.5 210 L 169.5 209 L 168 208.5 L 169.5 208 L 170.5 209 L 175.5 206 Z" />
 <path fill="rgb(251,251,247)" stroke="rgb(251,251,247)" stroke-width="1" d="M 180.5 208 L 181 211 Q 183.7 212.1 183 209.5 L 187 208 L 185.5 211 L 178.5 214 L 178 211.5 L 180.5 208 Z" />
 <path fill="rgb(251,251,247)" stroke="rgb(251,251,247)" stroke-width="1" d="M 166.5 210 L 168 212.5 L 163.5 215 L 161 213.5 L 163.5 212 Q 164.8 214.3 166 211.5 L 166.5 210 Z" />
 <path fill="rgb(251,251,247)" stroke="rgb(251,251,247)" stroke-width="1" d="M 206.5 210 L 205 212.5 Q 205.8 215.1 202.5 214 L 204.5 211 L 206.5 210 Z" />
 <path fill="rgb(251,251,247)" stroke="rgb(251,251,247)" stroke-width="1" d="M 175.5 213 Q 177.8 212.3 177 214.5 Q 179.3 215.8 176.5 217 L 169 220 Q 170.3 223 166.5 222 L 163.5 223 L 163.5 222 Q 166.8 223.1 166 220.5 L 171 218 L 172.5 215 L 175.5 213 Z" />
 <path fill="rgb(251,251,247)" stroke="rgb(251,251,247)" stroke-width="1" d="M 200.5 214 L 201 216.5 L 196 219.5 L 197 223 L 193 223 Q 194.1 225.7 191.5 225 L 187 224 Q 188.1 226.7 185.5 226 Q 184.3 228.3 183 225.5 L 190.5 221 L 191 223 L 193 223 L 193 220 Q 195.7 221.1 195 218.5 Q 196.2 215.3 200 216 L 200.5 214 Z" />
 <path fill="rgb(251,251,247)" stroke="rgb(251,251,247)" stroke-width="1" d="M 158.5 215 L 165 217 Q 166.3 220 162.5 219 Q 160.8 216.2 154.5 218 L 152 219 L 153 221.5 L 150.5 223 L 146 222 L 144.5 225 L 142 225.5 Q 144.1 227.9 149.5 227 L 151 226.5 Q 151.8 229.1 148.5 228 L 145.5 229 L 141.5 227 L 140 231 Q 135.9 232.7 137 228.5 L 133 226.5 L 138.5 224 L 140 224.5 Q 139.3 222.3 141.5 223 L 158.5 215 Z" />
 <path fill="rgb(251,251,247)" stroke="rgb(251,251,247)" stroke-width="1" d="M 99 219 Q 106.5 220.8 111.5 226 L 115 226.5 L 110.5 227 L 99 220.5 L 99 219 Z" />
 <path fill="rgb(251,251,247)" stroke="rgb(251,251,247)" stroke-width="1" d="M 155 219 Q 160.2 217.3 159 221 L 156 221.5 L 157 224 L 159 224.5 Q 157.8 227.8 154 227 L 155 219 Z" />
 <path fill="rgb(251,251,247)" stroke="rgb(251,251,247)" stroke-width="1" d="M 116.5 227 L 119 228.5 L 117.5 228 L 116.5 227 Z" />
 <path fill="rgb(251,251,247)" stroke="rgb(251,251,247)" stroke-width="1" d="M 179.5 228 Q 182.1 227.3 181 230 L 170.5 232 L 167 230.5 L 169.5 229 L 172.5 230 L 179.5 228 Z" />
 <path fill="rgb(251,251,247)" stroke="rgb(251,251,247)" stroke-width="1" d="M 122.5 229 Q 124.8 228.3 124 230.5 L 122.5 229 Z" />
 <path fill="rgb(251,251,247)" stroke="rgb(251,251,247)" stroke-width="1" d="M 125.5 229 Q 127.8 228.3 127 230.5 L 125.5 229 Z" />
 <path fill="rgb(251,251,247)" stroke="rgb(251,251,247)" stroke-width="1" d="M 149.5 232 L 151.5 233 L 154.5 232 L 153.5 234 L 143.5 235 L 140.5 234 L 137 233.5 L 140.5 233 L 142.5 233 Q 148 234.5 149.5 232 Z" />
 <path fill="rgb(251,251,247)" stroke="rgb(251,251,247)" stroke-width="1" d="M 163.5 233 L 167 233.5 Q 166.3 235.8 162.5 235 L 163.5 233 Z" />
 <path fill="rgb(251,251,247)" stroke="rgb(251,251,247)" stroke-width="1" d="M 123.5 234 L 127 234.5 L 123.5 235 L 123.5 234 Z" />
 <path fill="rgb(97,177,95)" stroke="rgb(97,177,95)" stroke-width="1" d="M 136.5 62 L 157.5 62 L 168.5 65 Q 171.3 69.2 178 69.5 L 177.5 71 Q 179.8 70.3 179 72.5 L 182 75.5 L 186 85.5 L 185 86.5 L 185 96.5 L 180 108.5 L 183 109.5 L 178 112.5 Q 170.1 129.1 156.5 140 L 154 141.5 L 155 143.5 Q 152.7 141.7 150.5 146 L 148.5 147 L 149.5 145 L 151 144.5 L 150 142.5 L 150.5 141 Q 145.1 142.9 146 139.5 L 139.5 132 L 137 130.5 L 135.5 128 L 132 127 Q 133.8 122.5 128.5 124 L 122.5 128 L 122.5 127 L 125 125.5 L 126.5 123 L 127.5 124 L 137 114.5 L 136.5 113 Q 137.7 115.2 139 112.5 L 151 95.5 L 155 80.5 Q 153.6 72.4 147.5 69 Q 140.6 65.4 128.5 67 Q 111.7 70.2 100.5 79 L 100 77.5 L 111.5 69 L 125.5 64 L 136.5 62 Z" />
 <path fill="rgb(97,177,95)" stroke="rgb(97,177,95)" stroke-width="1" d="M 198.5 79 L 204 83 L 205.5 86 L 211 90.5 Q 219 99.5 224 111.5 L 226 118.5 L 226 129.5 L 227 130.5 L 223 146.5 L 218 155.5 L 219.5 158 L 217.5 157 Q 210.5 170.5 199.5 180 L 196.5 181 L 196.5 179 L 194.5 179 L 188 173.5 Q 188.8 171.3 186.5 172 L 183.5 168 Q 179.1 169.5 180 166.5 L 179 164 L 168.5 172 L 186 153.5 L 192 144.5 L 191.5 143 Q 192.8 145.3 194 142.5 Q 191.8 141.3 194.5 140 L 196 139.5 Q 193.5 138 197 136.5 L 207 115.5 L 206.5 114 L 208 114.5 L 209 97.5 Q 205.7 85.2 198.5 79 Z" />
 <path fill="rgb(97,177,95)" stroke="rgb(97,177,95)" stroke-width="1" d="M 189.5 110 L 192 110.5 L 189.5 111 L 189.5 110 Z" />
 <path fill="rgb(97,177,95)" stroke="rgb(97,177,95)" stroke-width="1" d="M 120.5 128 L 121 129.5 L 118 131.5 L 120.5 128 Z" />
 <path fill="rgb(97,177,95)" stroke="rgb(97,177,95)" stroke-width="1" d="M 116.5 131 L 117 132.5 L 115 133.5 L 116.5 131 Z" />
 <path fill="rgb(97,177,95)" stroke="rgb(97,177,95)" stroke-width="1" d="M 112 134 L 114 134.5 L 112 135.5 L 112 134 Z" />
 <path fill="rgb(97,177,95)" stroke="rgb(97,177,95)" stroke-width="1" d="M 109 136 L 111 136.5 L 109 137.5 L 109 136 Z" />
 <path fill="rgb(97,177,95)" stroke="rgb(97,177,95)" stroke-width="1" d="M 104.5 139 L 105 141 L 101.5 142 L 101.5 141 L 104.5 139 Z" />
 <path fill="rgb(97,177,95)" stroke="rgb(97,177,95)" stroke-width="1" d="M 68.5 140 L 64.5 145 L 68.5 140 Z" />
 <path fill="rgb(97,177,95)" stroke="rgb(97,177,95)" stroke-width="1" d="M 171.5 141 L 177 141.5 L 171.5 142 L 171.5 141 Z" />
 <path fill="rgb(97,177,95)" stroke="rgb(97,177,95)" stroke-width="1" d="M 97.5 143 L 99 143.5 L 96.5 145 L 97.5 143 Z" />
 <path fill="rgb(97,177,95)" stroke="rgb(97,177,95)" stroke-width="1" d="M 93.5 145 L 95 145.5 L 91.5 147 L 91.5 146 L 93.5 145 Z" />
 <path fill="rgb(97,177,95)" stroke="rgb(97,177,95)" stroke-width="1" d="M 231.5 147 L 232 149.5 L 231 149.5 L 231.5 147 Z" />
 <path fill="rgb(97,177,95)" stroke="rgb(97,177,95)" stroke-width="1" d="M 146.5 148 L 143.5 152 L 146.5 148 Z" />
 <path fill="rgb(97,177,95)" stroke="rgb(97,177,95)" stroke-width="1" d="M 139.5 154 L 138.5 156 L 139.5 154 Z" />
 <path fill="rgb(97,177,95)" stroke="rgb(97,177,95)" stroke-width="1" d="M 135.5 157 L 133.5 160 L 135.5 157 Z" />
 <path fill="rgb(97,177,95)" stroke="rgb(97,177,95)" stroke-width="1" d="M 229.5 159 L 230 163.5 Q 224.4 188.9 208.5 204 L 204 197.5 L 209 191 L 216 185.5 L 225 170.5 L 224 168 L 227 166.5 L 229.5 159 Z" />
 <path fill="rgb(97,177,95)" stroke="rgb(97,177,95)" stroke-width="1" d="M 124.5 165 L 123.5 167 L 124.5 165 Z" />
 <path fill="rgb(97,177,95)" stroke="rgb(97,177,95)" stroke-width="1" d="M 121.5 167 L 120.5 169 L 121.5 167 Z" />
 <path fill="rgb(97,177,95)" stroke="rgb(97,177,95)" stroke-width="1" d="M 159.5 171 L 162 171.5 L 159.5 172 L 159.5 171 Z" />
 <path fill="rgb(97,177,95)" stroke="rgb(97,177,95)" stroke-width="1" d="M 162.5 174 L 165 174.5 L 162.5 177 L 160 176.5 L 162.5 174 Z" />
 <path fill="rgb(97,177,95)" stroke="rgb(97,177,95)" stroke-width="1" d="M 159.5 178 L 157.5 181 L 155 180.5 L 159.5 178 Z" />
 <path fill="rgb(97,177,95)" stroke="rgb(97,177,95)" stroke-width="1" d="M 204.5 178 L 206.5 181 L 204.5 178 Z" />
 <path fill="rgb(97,177,95)" stroke="rgb(97,177,95)" stroke-width="1" d="M 196.5 182 L 195.5 184 L 196.5 182 Z" />
 <path fill="rgb(97,177,95)" stroke="rgb(97,177,95)" stroke-width="1" d="M 74.5 185 L 83 185.5 L 74.5 186 L 74.5 185 Z" />
 <path fill="rgb(97,177,95)" stroke="rgb(97,177,95)" stroke-width="1" d="M 94.5 197 L 90.5 202 L 94.5 197 Z" />
 <path fill="rgb(97,177,95)" stroke="rgb(97,177,95)" stroke-width="1" d="M 127.5 198 L 128.5 200 L 127.5 198 Z" />
 <path fill="rgb(97,177,95)" stroke="rgb(97,177,95)" stroke-width="1" d="M 177.5 199 L 176.5 201 L 177.5 199 Z" />
 <path fill="rgb(97,177,95)" stroke="rgb(97,177,95)" stroke-width="1" d="M 202.5 199 L 204 199.5 L 187.5 212 L 187 210 L 189.5 210 L 200 202 Q 198.9 199.3 201.5 200 L 202.5 199 Z" />
 <path fill="rgb(97,177,95)" stroke="rgb(97,177,95)" stroke-width="1" d="M 123.5 200 L 124.5 202 L 123.5 200 Z" />
 <path fill="rgb(97,177,95)" stroke="rgb(97,177,95)" stroke-width="1" d="M 117.5 203 L 118 205 L 114.5 206 L 115.5 204 L 117.5 203 Z" />
 <path fill="rgb(97,177,95)" stroke="rgb(97,177,95)" stroke-width="1" d="M 170.5 204 L 169.5 206 L 170.5 204 Z" />
 <path fill="rgb(97,177,95)" stroke="rgb(97,177,95)" stroke-width="1" d="M 112.5 205 L 111.5 207 L 110 206.5 L 112.5 205 Z" />
 <path fill="rgb(97,177,95)" stroke="rgb(97,177,95)" stroke-width="1" d="M 167.5 206 L 166.5 208 L 167.5 206 Z" />
 <path fill="rgb(97,177,95)" stroke="rgb(97,177,95)" stroke-width="1" d="M 106.5 207 L 109 207.5 L 106.5 208 L 106.5 207 Z" />
 <path fill="rgb(97,177,95)" stroke="rgb(97,177,95)" stroke-width="1" d="M 93.5 211 L 94.5 213 L 93.5 211 Z" />
 <path fill="rgb(97,177,95)" stroke="rgb(97,177,95)" stroke-width="1" d="M 200.5 211 L 198.5 214 L 200.5 211 Z" />
 <path fill="rgb(97,177,95)" stroke="rgb(97,177,95)" stroke-width="1" d="M 183.5 214 L 182.5 216 L 183.5 214 Z" />
 <path fill="rgb(97,177,95)" stroke="rgb(97,177,95)" stroke-width="1" d="M 195.5 215 L 194.5 217 L 195.5 215 Z" />
 <path fill="rgb(97,177,95)" stroke="rgb(97,177,95)" stroke-width="1" d="M 153.5 230 L 158 230.5 L 153.5 231 L 153.5 230 Z" />
 <path fill="rgb(240,248,242)" stroke="rgb(240,248,242)" stroke-width="1" d="M 141.5 60 L 155 60.5 L 141.5 61 L 141.5 60 Z" />
 <path fill="rgb(240,248,242)" stroke="rgb(240,248,242)" stroke-width="1" d="M 160.5 60 L 163 61.5 L 161.5 62 L 159 61.5 L 160.5 60 Z" />
 <path fill="rgb(240,248,242)" stroke="rgb(240,248,242)" stroke-width="1" d="M 131.5 61 L 137 61.5 L 131.5 62 L 131.5 61 Z" />
 <path fill="rgb(240,248,242)" stroke="rgb(240,248,242)" stroke-width="1" d="M 166.5 61 L 171 64.5 L 168.5 65 L 164 62.5 L 166.5 61 Z" />
 <path fill="rgb(240,248,242)" stroke="rgb(240,248,242)" stroke-width="1" d="M 123 62 L 126.5 63 L 128 62.5 Q 126.8 65.3 125.5 63 L 123.5 64 L 123 62 Z" />
 <path fill="rgb(240,248,242)" stroke="rgb(240,248,242)" stroke-width="1" d="M 117.5 65 L 120 65.5 L 116.5 67 L 117.5 65 Z" />
 <path fill="rgb(240,248,242)" stroke="rgb(240,248,242)" stroke-width="1" d="M 174.5 66 L 177 67.5 L 175.5 67 L 174.5 66 Z" />
 <path fill="rgb(240,248,242)" stroke="rgb(240,248,242)" stroke-width="1" d="M 112.5 67 L 111.5 69 L 112.5 67 Z" />
 <path fill="rgb(240,248,242)" stroke="rgb(240,248,242)" stroke-width="1" d="M 130.5 67 L 133 67.5 L 129.5 69 L 130.5 67 Z" />
 <path fill="rgb(240,248,242)" stroke="rgb(240,248,242)" stroke-width="1" d="M 138.5 68 L 142 68.5 L 138.5 69 L 138.5 68 Z" />
 <path fill="rgb(240,248,242)" stroke="rgb(240,248,242)" stroke-width="1" d="M 104.5 69 L 109 69.5 L 104 71.5 L 101.5 75 L 99.5 76 L 100.5 74 L 103 72.5 L 104.5 69 Z" />
 <path fill="rgb(240,248,242)" stroke="rgb(240,248,242)" stroke-width="1" d="M 146.5 69 L 147 71 L 152 74.5 L 151.5 76 L 149.5 73 L 146 72 L 146.5 69 Z" />
 <path fill="rgb(240,248,242)" stroke="rgb(240,248,242)" stroke-width="1" d="M 184.5 69 L 189 71.5 L 187.5 71 Q 183.7 71.5 184.5 69 Z" />
 <path fill="rgb(240,248,242)" stroke="rgb(240,248,242)" stroke-width="1" d="M 118.5 70 L 122 70.5 L 115.5 73 L 116.5 71 L 118.5 70 Z" />
 <path fill="rgb(240,248,242)" stroke="rgb(240,248,242)" stroke-width="1" d="M 110.5 74 L 112 74.5 L 105.5 78 L 106.5 76 L 110.5 74 Z" />
 <path fill="rgb(240,248,242)" stroke="rgb(240,248,242)" stroke-width="1" d="M 198.5 74 L 198 75.5 L 197.5 77 L 197 75.5 L 198.5 74 Z" />
 <path fill="rgb(240,248,242)" stroke="rgb(240,248,242)" stroke-width="1" d="M 99.5 77 L 100 78.5 L 99.5 80 L 103.5 79 L 103.5 80 L 99.5 81 Q 96.8 79.8 99 78.5 L 99.5 77 Z" />
 <path fill="rgb(240,248,242)" stroke="rgb(240,248,242)" stroke-width="1" d="M 152.5 77 L 154 81 L 152 80.5 L 152 78.5 L 152.5 77 Z" />
 <path fill="rgb(240,248,242)" stroke="rgb(240,248,242)" stroke-width="1" d="M 201.5 79 L 202.5 81 L 201.5 79 Z" />
 <path fill="rgb(240,248,242)" stroke="rgb(240,248,242)" stroke-width="1" d="M 203.5 82 L 207 84.5 L 205.5 85 L 203.5 82 Z" />
 <path fill="rgb(240,248,242)" stroke="rgb(240,248,242)" stroke-width="1" d="M 208.5 85 L 209 87 L 211 87.5 L 209.5 88 L 208.5 85 Z" />
 <path fill="rgb(240,248,242)" stroke="rgb(240,248,242)" stroke-width="1" d="M 194.5 88 L 193.5 90 L 194.5 88 Z" />
 <path fill="rgb(240,248,242)" stroke="rgb(240,248,242)" stroke-width="1" d="M 197.5 90 L 200 90.5 L 197.5 91 L 197.5 90 Z" />
 <path fill="rgb(240,248,242)" stroke="rgb(240,248,242)" stroke-width="1" d="M 212.5 90 L 215.5 94 Q 217.8 93.3 217 95.5 L 217.5 97 L 212 91.5 L 212.5 90 Z" />
 <path fill="rgb(240,248,242)" stroke="rgb(240,248,242)" stroke-width="1" d="M 201.5 91 L 202.5 93 Q 199.7 93.7 201.5 91 Z" />
 <path fill="rgb(240,248,242)" stroke="rgb(240,248,242)" stroke-width="1" d="M 149.5 94 L 148.5 96 L 149.5 94 Z" />
 <path fill="rgb(240,248,242)" stroke="rgb(240,248,242)" stroke-width="1" d="M 205.5 94 L 208 95 L 207.5 100 L 207 96 Q 203.8 97 205.5 94 Z" />
 <path fill="rgb(240,248,242)" stroke="rgb(240,248,242)" stroke-width="1" d="M 185.5 96 L 186 100.5 L 184 101.5 L 185.5 96 Z" />
 <path fill="rgb(240,248,242)" stroke="rgb(240,248,242)" stroke-width="1" d="M 147 97 L 149 97.5 L 145.5 103 L 145 100 Q 148.3 101.1 147 97 Z" />
 <path fill="rgb(240,248,242)" stroke="rgb(240,248,242)" stroke-width="1" d="M 143.5 104 L 139.5 109 L 140 107.5 Q 139.3 105.3 141.5 106 L 143.5 104 Z" />
 <path fill="rgb(240,248,242)" stroke="rgb(240,248,242)" stroke-width="1" d="M 183.5 104 L 184 105.5 L 183 109 L 181 108.5 L 183.5 104 Z" />
 <path fill="rgb(240,248,242)" stroke="rgb(240,248,242)" stroke-width="1" d="M 187.5 107 L 189 109.5 L 187.5 109 L 186 108.5 L 187.5 107 Z" />
 <path fill="rgb(240,248,242)" stroke="rgb(240,248,242)" stroke-width="1" d="M 207.5 108 L 208 110.5 L 205 112.5 L 207.5 108 Z" />
 <path fill="rgb(240,248,242)" stroke="rgb(240,248,242)" stroke-width="1" d="M 192.5 109 L 195 109.5 L 192.5 110 L 192.5 109 Z" />
 <path fill="rgb(240,248,242)" stroke="rgb(240,248,242)" stroke-width="1" d="M 197 109 L 202 111.5 L 198.5 112 L 197 109 Z" />
 <path fill="rgb(240,248,242)" stroke="rgb(240,248,242)" stroke-width="1" d="M 138.5 110 L 139 111.5 L 137 112.5 L 138.5 110 Z" />
 <path fill="rgb(240,248,242)" stroke="rgb(240,248,242)" stroke-width="1" d="M 127.5 113 L 128 115 L 124 114.5 L 127.5 113 Z" />
 <path fill="rgb(240,248,242)" stroke="rgb(240,248,242)" stroke-width="1" d="M 109 118 L 111 118.5 L 109 119.5 L 109 118 Z" />
 <path fill="rgb(240,248,242)" stroke="rgb(240,248,242)" stroke-width="1" d="M 227.5 120 L 229 128.5 Q 226.5 130 230 131.5 L 229.5 133 L 227 130.5 L 227.5 120 Z" />
 <path fill="rgb(240,248,242)" stroke="rgb(240,248,242)" stroke-width="1" d="M 92 123 Q 95 122 94 125 L 90.5 127 L 92 124.5 L 92 123 Z" />
 <path fill="rgb(240,248,242)" stroke="rgb(240,248,242)" stroke-width="1" d="M 88.5 126 L 87.5 128 L 85.5 129 L 85 127 L 88.5 126 Z" />
 <path fill="rgb(240,248,242)" stroke="rgb(240,248,242)" stroke-width="1" d="M 71.5 136 L 70.5 138 L 69 137.5 L 71.5 136 Z" />
 <path fill="rgb(240,248,242)" stroke="rgb(240,248,242)" stroke-width="1" d="M 65 139 L 68 139.5 L 64.5 144 L 65 142.5 L 65 139 Z" />
 <path fill="rgb(240,248,242)" stroke="rgb(240,248,242)" stroke-width="1" d="M 159.5 143 L 162 144.5 L 160.5 144 L 158.5 145 L 159.5 143 Z" />
 <path fill="rgb(240,248,242)" stroke="rgb(240,248,242)" stroke-width="1" d="M 188.5 144 L 191 145.5 L 189 149 L 184 152.5 L 183.5 155 L 183 152.5 L 187 147 L 190 145.5 L 188.5 144 Z" />
 <path fill="rgb(240,248,242)" stroke="rgb(240,248,242)" stroke-width="1" d="M 60.5 145 L 63 145.5 Q 59.5 147 62 148.5 L 60.5 152 L 61 150.5 L 60 147.5 L 60.5 145 Z" />
 <path fill="rgb(240,248,242)" stroke="rgb(240,248,242)" stroke-width="1" d="M 151.5 145 L 151.5 148 Q 148.5 146.5 151.5 145 Z" />
 <path fill="rgb(240,248,242)" stroke="rgb(240,248,242)" stroke-width="1" d="M 231.5 153 L 232 155.5 L 231 155.5 L 231.5 153 Z" />
 <path fill="rgb(240,248,242)" stroke="rgb(240,248,242)" stroke-width="1" d="M 141.5 154 L 140.5 156 L 139 155.5 L 141.5 154 Z" />
 <path fill="rgb(240,248,242)" stroke="rgb(240,248,242)" stroke-width="1" d="M 180.5 156 L 177.5 160 L 180.5 156 Z" />
 <path fill="rgb(240,248,242)" stroke="rgb(240,248,242)" stroke-width="1" d="M 218.5 157 L 219.5 159 L 217 160.5 L 216.5 162 L 216 160.5 L 218.5 157 Z" />
 <path fill="rgb(240,248,242)" stroke="rgb(240,248,242)" stroke-width="1" d="M 134.5 160 L 133.5 162 L 134.5 160 Z" />
 <path fill="rgb(240,248,242)" stroke="rgb(240,248,242)" stroke-width="1" d="M 219.5 160 L 222 161.5 L 221.5 164 L 219.5 160 Z" />
 <path fill="rgb(240,248,242)" stroke="rgb(240,248,242)" stroke-width="1" d="M 62.5 161 L 63 162.5 L 61 163.5 L 62.5 161 Z" />
 <path fill="rgb(240,248,242)" stroke="rgb(240,248,242)" stroke-width="1" d="M 174 161 L 176 161.5 L 175.5 164 L 174 161 Z" />
 <path fill="rgb(240,248,242)" stroke="rgb(240,248,242)" stroke-width="1" d="M 215.5 163 L 215 164.5 Q 215.8 166.8 213.5 166 L 210.5 170 L 210 168.5 L 215.5 163 Z" />
 <path fill="rgb(240,248,242)" stroke="rgb(240,248,242)" stroke-width="1" d="M 230.5 163 L 231 166.5 L 230 166.5 L 230.5 163 Z" />
 <path fill="rgb(240,248,242)" stroke="rgb(240,248,242)" stroke-width="1" d="M 124.5 167 L 127 167.5 L 124.5 168 L 124.5 167 Z" />
 <path fill="rgb(240,248,242)" stroke="rgb(240,248,242)" stroke-width="1" d="M 223.5 167 L 224 171.5 L 222 172.5 L 223.5 167 Z" />
 <path fill="rgb(240,248,242)" stroke="rgb(240,248,242)" stroke-width="1" d="M 229.5 169 L 230 171 L 228 170.5 L 229.5 169 Z" />
 <path fill="rgb(240,248,242)" stroke="rgb(240,248,242)" stroke-width="1" d="M 208.5 171 L 209 172.5 L 207 175.5 L 208 177.5 L 207 180 L 210 181.5 L 210.5 183 L 212.5 182 L 212.5 183 L 210 184.5 L 210.5 186 Q 207.8 184.8 210 183.5 L 206 179.5 L 205 177.5 L 206 175.5 L 205 174.5 L 208.5 171 Z" />
 <path fill="rgb(240,248,242)" stroke="rgb(240,248,242)" stroke-width="1" d="M 64.5 172 Q 66.8 171.3 66 173.5 L 66.5 175 L 64.5 172 Z" />
 <path fill="rgb(240,248,242)" stroke="rgb(240,248,242)" stroke-width="1" d="M 228.5 172 L 229 175.5 L 226.5 179 L 226 177.5 L 228.5 172 Z" />
 <path fill="rgb(240,248,242)" stroke="rgb(240,248,242)" stroke-width="1" d="M 115.5 173 L 117 173.5 L 110.5 178 L 107.5 178 L 107.5 177 L 115.5 173 Z" />
 <path fill="rgb(240,248,242)" stroke="rgb(240,248,242)" stroke-width="1" d="M 137.5 174 L 136.5 176 L 137.5 174 Z" />
 <path fill="rgb(240,248,242)" stroke="rgb(240,248,242)" stroke-width="1" d="M 221.5 174 L 220.5 176 L 221.5 174 Z" />
 <path fill="rgb(240,248,242)" stroke="rgb(240,248,242)" stroke-width="1" d="M 219.5 177 L 219 178.5 L 217.5 181 L 218 179.5 L 219.5 177 Z" />
 <path fill="rgb(240,248,242)" stroke="rgb(240,248,242)" stroke-width="1" d="M 123.5 178 L 125 178.5 L 122.5 180 L 123.5 178 Z" />
 <path fill="rgb(240,248,242)" stroke="rgb(240,248,242)" stroke-width="1" d="M 115.5 181 L 116 182.5 L 114 183.5 L 115.5 181 Z" />
 <path fill="rgb(240,248,242)" stroke="rgb(240,248,242)" stroke-width="1" d="M 117 181 L 120 181.5 L 117.5 183 L 117 181 Z" />
 <path fill="rgb(240,248,242)" stroke="rgb(240,248,242)" stroke-width="1" d="M 225.5 181 L 226 182.5 L 223.5 186 L 224 184.5 L 225.5 181 Z" />
 <path fill="rgb(240,248,242)" stroke="rgb(240,248,242)" stroke-width="1" d="M 96.5 183 L 95.5 185 L 87.5 187 L 87.5 186 L 96.5 183 Z" />
 <path fill="rgb(240,248,242)" stroke="rgb(240,248,242)" stroke-width="1" d="M 70.5 185 L 73 186.5 L 71.5 187 L 70.5 185 Z" />
 <path fill="rgb(240,248,242)" stroke="rgb(240,248,242)" stroke-width="1" d="M 213.5 185 L 215 185.5 L 211.5 188 L 213.5 185 Z" />
 <path fill="rgb(240,248,242)" stroke="rgb(240,248,242)" stroke-width="1" d="M 105.5 187 L 108 187.5 L 105 188.5 L 105.5 190 L 104 189.5 Q 104.8 191.8 102.5 191 L 100.5 192 L 101.5 190 L 105.5 187 Z" />
 <path fill="rgb(240,248,242)" stroke="rgb(240,248,242)" stroke-width="1" d="M 222.5 187 L 221.5 189 L 222.5 187 Z" />
 <path fill="rgb(240,248,242)" stroke="rgb(240,248,242)" stroke-width="1" d="M 220.5 191 L 220.5 194 Q 217.5 192.5 220.5 191 Z" />
 <path fill="rgb(240,248,242)" stroke="rgb(240,248,242)" stroke-width="1" d="M 95 192 Q 97.7 190.9 97 193.5 L 95 194.5 L 95 192 Z" />
 <path fill="rgb(240,248,242)" stroke="rgb(240,248,242)" stroke-width="1" d="M 217 194 L 219 194.5 L 215.5 200 L 213.5 201 L 214 199.5 L 214.5 198 L 216 198.5 L 217 194 Z" />
 <path fill="rgb(240,248,242)" stroke="rgb(240,248,242)" stroke-width="1" d="M 91 196 L 95 196.5 L 93 197 L 90.5 201 L 88.5 202 Q 85.5 200.5 88.5 199 L 90.5 200 Q 93.3 198.8 91 197.5 L 91 196 Z" />
 <path fill="rgb(240,248,242)" stroke="rgb(240,248,242)" stroke-width="1" d="M 178.5 201 L 177.5 203 L 178.5 201 Z" />
 <path fill="rgb(240,248,242)" stroke="rgb(240,248,242)" stroke-width="1" d="M 185.5 202 L 186 204 L 183 203.5 L 185.5 202 Z" />
 <path fill="rgb(240,248,242)" stroke="rgb(240,248,242)" stroke-width="1" d="M 187.5 205 L 188 208 Q 185.3 209.1 186 206.5 L 187.5 205 Z" />
 <path fill="rgb(240,248,242)" stroke="rgb(240,248,242)" stroke-width="1" d="M 171.5 206 L 173 206.5 Q 171 211 169 207.5 L 171.5 206 Z" />
 <path fill="rgb(240,248,242)" stroke="rgb(240,248,242)" stroke-width="1" d="M 87.5 210 L 90 211.5 L 88.5 212 L 87.5 210 Z" />
 <path fill="rgb(240,248,242)" stroke="rgb(240,248,242)" stroke-width="1" d="M 163.5 211 L 166 211.5 Q 163.9 214.8 163.5 211 Z" />
 <path fill="rgb(240,248,242)" stroke="rgb(240,248,242)" stroke-width="1" d="M 91.5 212 L 92.5 214 L 91.5 212 Z" />
 <path fill="rgb(240,248,242)" stroke="rgb(240,248,242)" stroke-width="1" d="M 179.5 213 L 178.5 215 L 179.5 213 Z" />
 <path fill="rgb(240,248,242)" stroke="rgb(240,248,242)" stroke-width="1" d="M 94.5 214 L 99 216.5 L 96.5 217 L 94.5 214 Z" />
 <path fill="rgb(240,248,242)" stroke="rgb(240,248,242)" stroke-width="1" d="M 174.5 217 L 176 217.5 L 169.5 221 L 169.5 220 L 174.5 217 Z" />
 <path fill="rgb(240,248,242)" stroke="rgb(240,248,242)" stroke-width="1" d="M 101.5 219 L 104 220.5 L 102.5 221 L 101.5 219 Z" />
 <path fill="rgb(240,248,242)" stroke="rgb(240,248,242)" stroke-width="1" d="M 148.5 219 L 150 219.5 L 147.5 221 L 148.5 219 Z" />
 <path fill="rgb(240,248,242)" stroke="rgb(240,248,242)" stroke-width="1" d="M 108.5 223 L 113 225.5 L 111.5 226 L 108.5 223 Z" />
 <path fill="rgb(240,248,242)" stroke="rgb(240,248,242)" stroke-width="1" d="M 158.5 225 L 157.5 227 L 158.5 225 Z" />
 <path fill="rgb(240,248,242)" stroke="rgb(240,248,242)" stroke-width="1" d="M 140.5 229 Q 143.8 227.9 143 230.5 L 141.5 230 L 140.5 229 Z" />
 <path fill="rgb(185,218,209)" stroke="rgb(185,218,209)" stroke-width="1" d="M 137.5 61 L 157 61.5 L 137.5 62 L 137.5 61 Z" />
 <path fill="rgb(185,218,209)" stroke="rgb(185,218,209)" stroke-width="1" d="M 132.5 62 L 136 62.5 L 132.5 63 L 132.5 62 Z" />
 <path fill="rgb(185,218,209)" stroke="rgb(185,218,209)" stroke-width="1" d="M 158.5 62 Q 163.3 61.3 165 63.5 L 162.5 64 L 158.5 63 L 158.5 62 Z" />
 <path fill="rgb(185,218,209)" stroke="rgb(185,218,209)" stroke-width="1" d="M 127.5 63 L 130 63.5 L 127.5 64 L 127.5 63 Z" />
 <path fill="rgb(185,218,209)" stroke="rgb(185,218,209)" stroke-width="1" d="M 169.5 65 L 176 68.5 L 174.5 69 Q 169.9 67.8 169.5 65 Z" />
 <path fill="rgb(185,218,209)" stroke="rgb(185,218,209)" stroke-width="1" d="M 137.5 67 L 142 67.5 L 137.5 68 L 137.5 67 Z" />
 <path fill="rgb(185,218,209)" stroke="rgb(185,218,209)" stroke-width="1" d="M 123.5 68 L 126 68.5 L 123.5 69 L 123.5 68 Z" />
 <path fill="rgb(185,218,209)" stroke="rgb(185,218,209)" stroke-width="1" d="M 147.5 69 Q 153.2 71.3 154 78.5 L 153 78.5 L 152 74.5 L 147.5 69 Z" />
 <path fill="rgb(185,218,209)" stroke="rgb(185,218,209)" stroke-width="1" d="M 108.5 70 L 107.5 72 L 100.5 77 L 103.5 73 L 108.5 70 Z" />
 <path fill="rgb(185,218,209)" stroke="rgb(185,218,209)" stroke-width="1" d="M 114.5 71 L 116 71.5 L 107.5 76 L 108.5 74 L 114.5 71 Z" />
 <path fill="rgb(185,218,209)" stroke="rgb(185,218,209)" stroke-width="1" d="M 195.5 76 L 197.5 79 L 195.5 76 Z" />
 <path fill="rgb(185,218,209)" stroke="rgb(185,218,209)" stroke-width="1" d="M 103.5 77 L 102.5 79 L 101 78.5 L 103.5 77 Z" />
 <path fill="rgb(185,218,209)" stroke="rgb(185,218,209)" stroke-width="1" d="M 154.5 80 L 155 83.5 L 154 83.5 L 154.5 80 Z" />
 <path fill="rgb(185,218,209)" stroke="rgb(185,218,209)" stroke-width="1" d="M 200.5 80 L 202.5 83 L 200.5 80 Z" />
 <path fill="rgb(185,218,209)" stroke="rgb(185,218,209)" stroke-width="1" d="M 204.5 84 L 212 90.5 L 219 100.5 L 217 99.5 L 206.5 86 L 204.5 84 Z" />
 <path fill="rgb(185,218,209)" stroke="rgb(185,218,209)" stroke-width="1" d="M 153.5 85 L 154 87.5 L 153 87.5 L 153.5 85 Z" />
 <path fill="rgb(185,218,209)" stroke="rgb(185,218,209)" stroke-width="1" d="M 185.5 86 L 186 94.5 L 185 94.5 L 185.5 86 Z" />
 <path fill="rgb(185,218,209)" stroke="rgb(185,218,209)" stroke-width="1" d="M 202.5 91 L 205 92.5 L 203.5 92 L 202.5 91 Z" />
 <path fill="rgb(185,218,209)" stroke="rgb(185,218,209)" stroke-width="1" d="M 206.5 93 L 207.5 95 L 206.5 93 Z" />
 <path fill="rgb(185,218,209)" stroke="rgb(185,218,209)" stroke-width="1" d="M 150.5 94 L 151 95.5 L 149 96.5 L 150.5 94 Z" />
 <path fill="rgb(185,218,209)" stroke="rgb(185,218,209)" stroke-width="1" d="M 208.5 97 L 209 109.5 L 208 109.5 L 208.5 97 Z" />
 <path fill="rgb(185,218,209)" stroke="rgb(185,218,209)" stroke-width="1" d="M 147.5 100 L 146.5 102 L 147.5 100 Z" />
 <path fill="rgb(185,218,209)" stroke="rgb(185,218,209)" stroke-width="1" d="M 183.5 100 L 184 102.5 L 183 102.5 L 183.5 100 Z" />
 <path fill="rgb(185,218,209)" stroke="rgb(185,218,209)" stroke-width="1" d="M 219.5 102 L 224 110.5 L 223 110.5 L 219.5 102 Z" />
 <path fill="rgb(185,218,209)" stroke="rgb(185,218,209)" stroke-width="1" d="M 145.5 103 L 144 105.5 L 139.5 111 L 143 106.5 L 145.5 103 Z" />
 <path fill="rgb(185,218,209)" stroke="rgb(185,218,209)" stroke-width="1" d="M 182.5 104 L 183 105.5 L 180.5 109 L 181 107.5 L 182.5 104 Z" />
 <path fill="rgb(185,218,209)" stroke="rgb(185,218,209)" stroke-width="1" d="M 183.5 109 L 188 109.5 L 183.5 110 L 183.5 109 Z" />
 <path fill="rgb(185,218,209)" stroke="rgb(185,218,209)" stroke-width="1" d="M 192.5 110 L 195 110.5 L 192.5 111 L 192.5 110 Z" />
 <path fill="rgb(185,218,209)" stroke="rgb(185,218,209)" stroke-width="1" d="M 135.5 112 L 137.5 113 L 139 112.5 L 127 123.5 L 136.5 113 L 135.5 112 Z" />
 <path fill="rgb(185,218,209)" stroke="rgb(185,218,209)" stroke-width="1" d="M 201.5 112 L 204 112.5 L 201.5 113 L 201.5 112 Z" />
 <path fill="rgb(185,218,209)" stroke="rgb(185,218,209)" stroke-width="1" d="M 207.5 112 L 208 114.5 L 207 114.5 L 207.5 112 Z" />
 <path fill="rgb(185,218,209)" stroke="rgb(185,218,209)" stroke-width="1" d="M 224.5 112 L 226 117.5 L 225 117.5 L 224.5 112 Z" />
 <path fill="rgb(185,218,209)" stroke="rgb(185,218,209)" stroke-width="1" d="M 226.5 121 L 227 129.5 L 226 129.5 L 226.5 121 Z" />
 <path fill="rgb(185,218,209)" stroke="rgb(185,218,209)" stroke-width="1" d="M 124.5 125 L 123.5 127 L 124.5 125 Z" />
 <path fill="rgb(185,218,209)" stroke="rgb(185,218,209)" stroke-width="1" d="M 118.5 130 L 117.5 132 L 118.5 130 Z" />
 <path fill="rgb(185,218,209)" stroke="rgb(185,218,209)" stroke-width="1" d="M 227.5 131 L 229 133.5 L 228 133.5 L 227.5 131 Z" />
 <path fill="rgb(185,218,209)" stroke="rgb(185,218,209)" stroke-width="1" d="M 79.5 132 L 78.5 134 L 79.5 132 Z" />
 <path fill="rgb(185,218,209)" stroke="rgb(185,218,209)" stroke-width="1" d="M 73.5 136 L 72.5 138 L 69.5 140 L 71.5 137 L 73.5 136 Z" />
 <path fill="rgb(185,218,209)" stroke="rgb(185,218,209)" stroke-width="1" d="M 161.5 142 L 167 142.5 L 161.5 143 L 161.5 142 Z" />
 <path fill="rgb(185,218,209)" stroke="rgb(185,218,209)" stroke-width="1" d="M 180.5 142 L 186 142.5 L 180.5 143 L 180.5 142 Z" />
 <path fill="rgb(185,218,209)" stroke="rgb(185,218,209)" stroke-width="1" d="M 193.5 142 L 192.5 144 L 193.5 142 Z" />
 <path fill="rgb(185,218,209)" stroke="rgb(185,218,209)" stroke-width="1" d="M 153.5 143 L 152.5 145 L 153.5 143 Z" />
 <path fill="rgb(185,218,209)" stroke="rgb(185,218,209)" stroke-width="1" d="M 231.5 143 L 232 146.5 L 231 146.5 L 231.5 143 Z" />
 <path fill="rgb(185,218,209)" stroke="rgb(185,218,209)" stroke-width="1" d="M 191.5 145 L 190 147.5 L 178.5 161 L 185 153.5 L 191.5 145 Z" />
 <path fill="rgb(185,218,209)" stroke="rgb(185,218,209)" stroke-width="1" d="M 149.5 146 L 146.5 150 L 149.5 146 Z" />
 <path fill="rgb(185,218,209)" stroke="rgb(185,218,209)" stroke-width="1" d="M 62.5 150 L 63 155.5 L 62 155.5 L 62.5 150 Z" />
 <path fill="rgb(185,218,209)" stroke="rgb(185,218,209)" stroke-width="1" d="M 231.5 150 L 232 152.5 L 231 152.5 L 231.5 150 Z" />
 <path fill="rgb(185,218,209)" stroke="rgb(185,218,209)" stroke-width="1" d="M 142.5 152 L 140.5 155 L 142.5 152 Z" />
 <path fill="rgb(185,218,209)" stroke="rgb(185,218,209)" stroke-width="1" d="M 137.5 156 L 135.5 159 L 137.5 156 Z" />
 <path fill="rgb(185,218,209)" stroke="rgb(185,218,209)" stroke-width="1" d="M 217.5 157 L 217 158.5 L 215.5 161 L 216 159.5 L 217.5 157 Z" />
 <path fill="rgb(185,218,209)" stroke="rgb(185,218,209)" stroke-width="1" d="M 230.5 157 L 231 162.5 L 230 162.5 L 230.5 157 Z" />
 <path fill="rgb(185,218,209)" stroke="rgb(185,218,209)" stroke-width="1" d="M 220.5 159 L 221.5 161 L 220.5 159 Z" />
 <path fill="rgb(185,218,209)" stroke="rgb(185,218,209)" stroke-width="1" d="M 63.5 160 L 64 162.5 L 63 162.5 L 63.5 160 Z" />
 <path fill="rgb(185,218,209)" stroke="rgb(185,218,209)" stroke-width="1" d="M 132.5 160 L 131.5 162 L 132.5 160 Z" />
 <path fill="rgb(185,218,209)" stroke="rgb(185,218,209)" stroke-width="1" d="M 129.5 162 L 127.5 165 L 124.5 167 L 126.5 164 L 129.5 162 Z" />
 <path fill="rgb(185,218,209)" stroke="rgb(185,218,209)" stroke-width="1" d="M 214.5 162 L 214 163.5 L 210.5 168 L 213 164.5 L 214.5 162 Z" />
 <path fill="rgb(185,218,209)" stroke="rgb(185,218,209)" stroke-width="1" d="M 174.5 164 L 165.5 174 L 142.5 191 L 143.5 189 Q 156.3 181.8 166 171.5 L 163 170.5 L 166.5 170 L 167.5 171 L 174.5 164 Z" />
 <path fill="rgb(185,218,209)" stroke="rgb(185,218,209)" stroke-width="1" d="M 229.5 164 L 230 166.5 L 229 166.5 L 229.5 164 Z" />
 <path fill="rgb(185,218,209)" stroke="rgb(185,218,209)" stroke-width="1" d="M 64.5 165 L 65 167.5 L 64 167.5 L 64.5 165 Z" />
 <path fill="rgb(185,218,209)" stroke="rgb(185,218,209)" stroke-width="1" d="M 209.5 169 L 207.5 172 L 209.5 169 Z" />
 <path fill="rgb(185,218,209)" stroke="rgb(185,218,209)" stroke-width="1" d="M 117.5 170 L 116.5 172 L 117.5 170 Z" />
 <path fill="rgb(185,218,209)" stroke="rgb(185,218,209)" stroke-width="1" d="M 224.5 170 L 225 171.5 L 222.5 175 L 223 173.5 L 224.5 170 Z" />
 <path fill="rgb(185,218,209)" stroke="rgb(185,218,209)" stroke-width="1" d="M 155.5 171 L 159 171.5 L 155.5 172 L 155.5 171 Z" />
 <path fill="rgb(185,218,209)" stroke="rgb(185,218,209)" stroke-width="1" d="M 112.5 173 L 111.5 175 L 112.5 173 Z" />
 <path fill="rgb(185,218,209)" stroke="rgb(185,218,209)" stroke-width="1" d="M 145.5 173 L 148 173.5 L 145.5 174 L 145.5 173 Z" />
 <path fill="rgb(185,218,209)" stroke="rgb(185,218,209)" stroke-width="1" d="M 204.5 175 L 204 176.5 L 203.5 178 L 203 176.5 L 204.5 175 Z" />
 <path fill="rgb(185,218,209)" stroke="rgb(185,218,209)" stroke-width="1" d="M 221.5 176 L 221 177.5 L 210.5 191 L 215 185.5 L 221.5 176 Z" />
 <path fill="rgb(185,218,209)" stroke="rgb(185,218,209)" stroke-width="1" d="M 225.5 177 L 226 179.5 Q 221.8 190.3 214.5 198 L 216 195.5 L 225.5 177 Z" />
 <path fill="rgb(185,218,209)" stroke="rgb(185,218,209)" stroke-width="1" d="M 69.5 180 L 72.5 185 L 74 185.5 L 72.5 186 L 69 181.5 L 69.5 180 Z" />
 <path fill="rgb(185,218,209)" stroke="rgb(185,218,209)" stroke-width="1" d="M 207.5 181 L 208.5 183 L 207.5 181 Z" />
 <path fill="rgb(185,218,209)" stroke="rgb(185,218,209)" stroke-width="1" d="M 83.5 185 L 86 185.5 L 83.5 186 L 83.5 185 Z" />
 <path fill="rgb(185,218,209)" stroke="rgb(185,218,209)" stroke-width="1" d="M 140.5 191 L 139.5 193 L 132.5 197 L 133.5 195 L 140.5 191 Z" />
 <path fill="rgb(185,218,209)" stroke="rgb(185,218,209)" stroke-width="1" d="M 100.5 192 L 99.5 194 L 100.5 192 Z" />
 <path fill="rgb(185,218,209)" stroke="rgb(185,218,209)" stroke-width="1" d="M 96.5 195 L 95.5 197 L 96.5 195 Z" />
 <path fill="rgb(185,218,209)" stroke="rgb(185,218,209)" stroke-width="1" d="M 130.5 197 L 129.5 199 L 122.5 202 L 122.5 201 L 130.5 197 Z" />
 <path fill="rgb(185,218,209)" stroke="rgb(185,218,209)" stroke-width="1" d="M 213.5 199 L 201.5 212 L 213.5 199 Z" />
 <path fill="rgb(185,218,209)" stroke="rgb(185,218,209)" stroke-width="1" d="M 175.5 201 L 174.5 203 L 175.5 201 Z" />
 <path fill="rgb(185,218,209)" stroke="rgb(185,218,209)" stroke-width="1" d="M 172.5 203 L 171.5 205 L 172.5 203 Z" />
 <path fill="rgb(185,218,209)" stroke="rgb(185,218,209)" stroke-width="1" d="M 168.5 206 L 167.5 208 L 168.5 206 Z" />
 <path fill="rgb(185,218,209)" stroke="rgb(185,218,209)" stroke-width="1" d="M 88.5 207 L 92.5 212 L 88.5 207 Z" />
 <path fill="rgb(185,218,209)" stroke="rgb(185,218,209)" stroke-width="1" d="M 163.5 209 L 162.5 211 L 163.5 209 Z" />
 <path fill="rgb(185,218,209)" stroke="rgb(185,218,209)" stroke-width="1" d="M 186.5 211 L 187 213 L 184.5 214 L 186.5 211 Z" />
 <path fill="rgb(185,218,209)" stroke="rgb(185,218,209)" stroke-width="1" d="M 158.5 212 L 157.5 214 L 158.5 212 Z" />
 <path fill="rgb(185,218,209)" stroke="rgb(185,218,209)" stroke-width="1" d="M 94.5 213 L 97 214.5 L 95.5 214 L 94.5 213 Z" />
 <path fill="rgb(185,218,209)" stroke="rgb(185,218,209)" stroke-width="1" d="M 182.5 214 L 181.5 216 L 182.5 214 Z" />
 <path fill="rgb(185,218,209)" stroke="rgb(185,218,209)" stroke-width="1" d="M 197.5 214 L 195.5 217 L 197.5 214 Z" />
 <path fill="rgb(185,218,209)" stroke="rgb(185,218,209)" stroke-width="1" d="M 153.5 215 L 152.5 217 L 151 216.5 L 153.5 215 Z" />
 <path fill="rgb(185,218,209)" stroke="rgb(185,218,209)" stroke-width="1" d="M 179.5 216 L 178.5 218 L 176.5 219 L 177.5 217 L 179.5 216 Z" />
 <path fill="rgb(185,218,209)" stroke="rgb(185,218,209)" stroke-width="1" d="M 149.5 217 L 148.5 219 L 149.5 217 Z" />
 <path fill="rgb(185,218,209)" stroke="rgb(185,218,209)" stroke-width="1" d="M 193.5 217 L 192.5 219 L 190.5 220 L 191.5 218 L 193.5 217 Z" />
 <path fill="rgb(185,218,209)" stroke="rgb(185,218,209)" stroke-width="1" d="M 104.5 219 L 105.5 221 L 104.5 219 Z" />
 <path fill="rgb(185,218,209)" stroke="rgb(185,218,209)" stroke-width="1" d="M 174.5 219 L 173.5 221 L 171.5 222 L 172.5 220 L 174.5 219 Z" />
 <path fill="rgb(185,218,209)" stroke="rgb(185,218,209)" stroke-width="1" d="M 186.5 221 L 185.5 223 L 182.5 224 L 182.5 223 L 186.5 221 Z" />
 <path fill="rgb(185,218,209)" stroke="rgb(185,218,209)" stroke-width="1" d="M 111.5 223 L 114 224.5 L 112.5 224 L 111.5 223 Z" />
 <path fill="rgb(185,218,209)" stroke="rgb(185,218,209)" stroke-width="1" d="M 129.5 225 L 132 225.5 L 129.5 226 L 129.5 225 Z" />
 <path fill="rgb(185,218,209)" stroke="rgb(185,218,209)" stroke-width="1" d="M 124.5 226 L 127 226.5 L 124.5 227 L 124.5 226 Z" />
 <path fill="rgb(185,218,209)" stroke="rgb(185,218,209)" stroke-width="1" d="M 154.5 227 L 157 227.5 L 154.5 228 L 154.5 227 Z" />
 <path fill="rgb(185,218,209)" stroke="rgb(185,218,209)" stroke-width="1" d="M 167.5 228 L 170 228.5 L 167.5 229 L 167.5 228 Z" />
 <path fill="rgb(185,218,209)" stroke="rgb(185,218,209)" stroke-width="1" d="M 143 229 L 149 229.5 L 143.5 231 L 143 229 Z" />
 <path fill="rgb(185,218,209)" stroke="rgb(185,218,209)" stroke-width="1" d="M 158.5 230 L 162 230.5 L 158.5 231 L 158.5 230 Z" />
 <path fill="rgb(185,218,209)" stroke="rgb(185,218,209)" stroke-width="1" d="M 145.5 231 L 152 231.5 L 145.5 232 L 145.5 231 Z" />
 <path fill="rgb(11,96,141)" stroke="rgb(11,96,141)" stroke-width="1" d="M 177.5 70 Q 195.5 73 204 85.5 L 207 92.5 L 205.5 92 L 185 84.5 L 184 79.5 L 179 71 L 177.5 70 Z" />
 <path fill="rgb(11,96,141)" stroke="rgb(11,96,141)" stroke-width="1" d="M 180.5 110 L 188.5 110 L 199.5 112 L 207 115.5 Q 201.4 131.3 193 143 L 171.5 141 L 170.5 142 L 160.5 142 L 154 143 L 155.5 140 L 166 130.5 L 180.5 110 Z" />
 <path fill="rgb(11,96,141)" stroke="rgb(11,96,141)" stroke-width="1" d="M 135.5 113 L 136 114.5 L 122 127.5 L 123.5 128 L 128.5 124 L 132 124 Q 130.5 127.7 133.5 127 L 137 129.5 L 138.5 132 L 142 134.5 L 146 141 L 151 141.5 L 150 143.5 L 150.5 145 L 148 146.5 Q 148.8 148.8 146.5 148 Q 131.9 162.4 113.5 173 L 89.5 184 Q 82.8 186.3 72.5 185 Q 62.6 170.9 63 146.5 L 74.5 136 L 95.5 125 L 115.5 118 L 135.5 113 Z M 120.5 128 L 116.5 131 L 114.5 134 L 122 128.5 L 120.5 128 Z M 112.5 134 L 111.5 136 L 114 134.5 L 112.5 134 Z M 109.5 136 L 108.5 138 L 111 136.5 L 109.5 136 Z M 104.5 139 L 103.5 141 L 106 139.5 L 104.5 139 Z" />
 <path fill="rgb(11,96,141)" stroke="rgb(11,96,141)" stroke-width="1" d="M 226.5 131 L 231 142.5 L 231 154.5 L 225.5 168 Q 222.5 168.9 224 164.5 L 218 155.5 Q 225.1 146.1 226.5 131 Z" />
 <path fill="rgb(11,96,141)" stroke="rgb(11,96,141)" stroke-width="1" d="M 177.5 164 Q 179.8 163.3 179 165.5 L 180 168 Q 183.8 167 185 169.5 L 186.5 172 Q 188.8 171.3 188 173.5 L 197 179.5 L 196.5 181 L 202.5 177 Q 209.4 180.6 210 190.5 L 204 197.5 L 208 202.5 L 208 204.5 Q 197.3 216.8 181.5 224 L 161.5 230 L 145.5 231 L 145.5 230 L 149.5 230 L 163.5 226 Q 178.3 219.8 190 210.5 L 188 210 L 189 206.5 L 185.5 201 Q 183.2 198.3 177.5 199 Q 155.5 219 121.5 227 Q 102 220.5 89 207.5 L 90 202.5 L 97.5 195 L 112.5 186 L 134.5 177 L 153.5 172 L 165.5 171 L 163.5 174 L 153 182.5 L 154.5 183 L 177.5 164 Z M 151.5 183 Q 139.8 193.8 123.5 200 L 122.5 202 Q 140.2 195.2 153 183.5 L 151.5 183 Z M 203.5 198 L 200 200 L 200.5 202 L 204 199.5 L 203.5 198 Z M 119.5 202 L 115.5 204 L 115.5 205 L 122 202.5 L 119.5 202 Z M 198.5 202 L 196.5 205 L 200 202.5 L 198.5 202 Z M 112.5 205 L 112.5 206 L 115 205.5 L 112.5 205 Z M 106.5 207 L 106.5 208 L 109 207.5 L 106.5 207 Z" />
 <path fill="rgb(233,249,247)" stroke="rgb(233,249,247)" stroke-width="1" d="M 126.5 62 L 125.5 64 L 124 63.5 L 126.5 62 Z" />
 <path fill="rgb(233,249,247)" stroke="rgb(233,249,247)" stroke-width="1" d="M 128.5 62 L 132 62.5 L 128.5 63 L 128.5 62 Z" />
 <path fill="rgb(233,249,247)" stroke="rgb(233,249,247)" stroke-width="1" d="M 170.5 65 L 178 68.5 L 176.5 69 L 170.5 66 L 170.5 65 Z" />
 <path fill="rgb(233,249,247)" stroke="rgb(233,249,247)" stroke-width="1" d="M 114.5 66 L 116 66.5 L 113.5 68 L 114.5 66 Z" />
 <path fill="rgb(233,249,247)" stroke="rgb(233,249,247)" stroke-width="1" d="M 133.5 67 L 137 67.5 L 133.5 68 L 133.5 67 Z" />
 <path fill="rgb(233,249,247)" stroke="rgb(233,249,247)" stroke-width="1" d="M 105.5 70 L 108 70.5 L 104.5 73 L 104 71.5 L 105.5 70 Z" />
 <path fill="rgb(233,249,247)" stroke="rgb(233,249,247)" stroke-width="1" d="M 183.5 70 L 189 72.5 L 187.5 72 Q 182.7 72 183.5 70 Z" />
 <path fill="rgb(233,249,247)" stroke="rgb(233,249,247)" stroke-width="1" d="M 100.5 75 L 98.5 78 L 100.5 75 Z" />
 <path fill="rgb(233,249,247)" stroke="rgb(233,249,247)" stroke-width="1" d="M 194.5 75 L 203 81.5 L 199.5 79 L 194.5 76 L 194.5 75 Z" />
 <path fill="rgb(233,249,247)" stroke="rgb(233,249,247)" stroke-width="1" d="M 104.5 77 L 103.5 79 L 104.5 77 Z" />
 <path fill="rgb(233,249,247)" stroke="rgb(233,249,247)" stroke-width="1" d="M 193.5 88 L 198 89.5 L 194.5 90 L 193.5 88 Z" />
 <path fill="rgb(233,249,247)" stroke="rgb(233,249,247)" stroke-width="1" d="M 210.5 88 L 211.5 90 L 210.5 88 Z" />
 <path fill="rgb(233,249,247)" stroke="rgb(233,249,247)" stroke-width="1" d="M 203.5 92 L 207 94.5 L 205.5 94 Q 201.5 95 203.5 92 Z" />
 <path fill="rgb(233,249,247)" stroke="rgb(233,249,247)" stroke-width="1" d="M 149.5 95 L 148.5 97 L 149.5 95 Z" />
 <path fill="rgb(233,249,247)" stroke="rgb(233,249,247)" stroke-width="1" d="M 216.5 96 L 221 102.5 L 219 101.5 L 216.5 96 Z" />
 <path fill="rgb(233,249,247)" stroke="rgb(233,249,247)" stroke-width="1" d="M 184.5 98 L 185 100.5 L 184 100.5 L 184.5 98 Z" />
 <path fill="rgb(233,249,247)" stroke="rgb(233,249,247)" stroke-width="1" d="M 221.5 104 L 225 111.5 L 224 111.5 L 221.5 104 Z" />
 <path fill="rgb(233,249,247)" stroke="rgb(233,249,247)" stroke-width="1" d="M 142.5 106 L 139.5 110 L 142.5 106 Z" />
 <path fill="rgb(233,249,247)" stroke="rgb(233,249,247)" stroke-width="1" d="M 207.5 111 L 207 112.5 L 206.5 114 L 206 112.5 L 207.5 111 Z" />
 <path fill="rgb(233,249,247)" stroke="rgb(233,249,247)" stroke-width="1" d="M 115.5 116 L 114.5 118 L 115.5 116 Z" />
 <path fill="rgb(233,249,247)" stroke="rgb(233,249,247)" stroke-width="1" d="M 117.5 116 L 120 116.5 L 117.5 117 L 117.5 116 Z" />
 <path fill="rgb(233,249,247)" stroke="rgb(233,249,247)" stroke-width="1" d="M 104.5 120 L 106 120.5 L 102.5 122 L 102.5 121 L 104.5 120 Z" />
 <path fill="rgb(233,249,247)" stroke="rgb(233,249,247)" stroke-width="1" d="M 94.5 124 L 96 124.5 L 92.5 126 L 92.5 125 L 94.5 124 Z" />
 <path fill="rgb(233,249,247)" stroke="rgb(233,249,247)" stroke-width="1" d="M 84.5 129 L 83.5 131 L 84.5 129 Z" />
 <path fill="rgb(233,249,247)" stroke="rgb(233,249,247)" stroke-width="1" d="M 81.5 130 L 80.5 132 L 76.5 133 L 76.5 132 L 81.5 130 Z" />
 <path fill="rgb(233,249,247)" stroke="rgb(233,249,247)" stroke-width="1" d="M 74 134 L 76 134.5 L 74 135.5 L 74 134 Z" />
 <path fill="rgb(233,249,247)" stroke="rgb(233,249,247)" stroke-width="1" d="M 69.5 138 L 67.5 141 L 69.5 138 Z" />
 <path fill="rgb(233,249,247)" stroke="rgb(233,249,247)" stroke-width="1" d="M 185.5 143 L 189 143.5 L 185.5 144 L 185.5 143 Z" />
 <path fill="rgb(233,249,247)" stroke="rgb(233,249,247)" stroke-width="1" d="M 153.5 144 L 152.5 146 L 153.5 144 Z" />
 <path fill="rgb(233,249,247)" stroke="rgb(233,249,247)" stroke-width="1" d="M 149.5 147 L 151 147.5 L 143 153 L 142.5 155 L 142 153.5 L 149.5 147 Z" />
 <path fill="rgb(233,249,247)" stroke="rgb(233,249,247)" stroke-width="1" d="M 187.5 149 L 185 152.5 L 184.5 154 L 184 152.5 L 187.5 149 Z" />
 <path fill="rgb(233,249,247)" stroke="rgb(233,249,247)" stroke-width="1" d="M 182.5 154 L 183 155.5 L 176 161.5 L 182.5 154 Z" />
 <path fill="rgb(233,249,247)" stroke="rgb(233,249,247)" stroke-width="1" d="M 62.5 156 L 63 160.5 L 62 160.5 L 62.5 156 Z" />
 <path fill="rgb(233,249,247)" stroke="rgb(233,249,247)" stroke-width="1" d="M 138.5 156 L 140 156.5 L 132.5 162 L 134.5 159 L 138.5 156 Z" />
 <path fill="rgb(233,249,247)" stroke="rgb(233,249,247)" stroke-width="1" d="M 215.5 161 L 216 162.5 L 214 163.5 L 215.5 161 Z" />
 <path fill="rgb(233,249,247)" stroke="rgb(233,249,247)" stroke-width="1" d="M 130.5 162 L 129.5 164 L 130.5 162 Z" />
 <path fill="rgb(233,249,247)" stroke="rgb(233,249,247)" stroke-width="1" d="M 63.5 163 L 64 166.5 L 62 165.5 L 63.5 163 Z" />
 <path fill="rgb(233,249,247)" stroke="rgb(233,249,247)" stroke-width="1" d="M 126.5 165 L 128 165.5 L 125.5 167 L 126.5 165 Z" />
 <path fill="rgb(233,249,247)" stroke="rgb(233,249,247)" stroke-width="1" d="M 171.5 165 L 173 165.5 L 167 170.5 L 171.5 165 Z" />
 <path fill="rgb(233,249,247)" stroke="rgb(233,249,247)" stroke-width="1" d="M 123.5 167 L 121.5 170 L 108.5 177 L 108.5 176 L 123.5 167 Z" />
 <path fill="rgb(233,249,247)" stroke="rgb(233,249,247)" stroke-width="1" d="M 64.5 168 L 66 171.5 L 65 171.5 L 64.5 168 Z" />
 <path fill="rgb(233,249,247)" stroke="rgb(233,249,247)" stroke-width="1" d="M 159.5 170 L 163 170.5 L 159.5 171 L 159.5 170 Z" />
 <path fill="rgb(233,249,247)" stroke="rgb(233,249,247)" stroke-width="1" d="M 149.5 172 L 152 172.5 L 149.5 173 L 149.5 172 Z" />
 <path fill="rgb(233,249,247)" stroke="rgb(233,249,247)" stroke-width="1" d="M 66.5 175 L 72 185.5 L 69 183.5 L 66.5 175 Z" />
 <path fill="rgb(233,249,247)" stroke="rgb(233,249,247)" stroke-width="1" d="M 205.5 175 L 205 176.5 L 206 178.5 L 204 177.5 L 205.5 175 Z" />
 <path fill="rgb(233,249,247)" stroke="rgb(233,249,247)" stroke-width="1" d="M 221.5 175 L 220.5 177 L 219 176.5 L 221.5 175 Z" />
 <path fill="rgb(233,249,247)" stroke="rgb(233,249,247)" stroke-width="1" d="M 106.5 177 L 107 179 L 93.5 184 L 93.5 183 L 106.5 177 Z" />
 <path fill="rgb(233,249,247)" stroke="rgb(233,249,247)" stroke-width="1" d="M 127.5 178 L 129 178.5 L 123.5 181 L 124.5 179 L 127.5 178 Z" />
 <path fill="rgb(233,249,247)" stroke="rgb(233,249,247)" stroke-width="1" d="M 115.5 183 L 114.5 185 L 115.5 183 Z" />
 <path fill="rgb(233,249,247)" stroke="rgb(233,249,247)" stroke-width="1" d="M 88.5 184 L 91 184.5 L 86.5 186 L 86.5 185 L 88.5 184 Z" />
 <path fill="rgb(233,249,247)" stroke="rgb(233,249,247)" stroke-width="1" d="M 73.5 186 L 85 186.5 L 73.5 187 L 73.5 186 Z" />
 <path fill="rgb(233,249,247)" stroke="rgb(233,249,247)" stroke-width="1" d="M 210.5 186 L 212 188.5 L 210 189.5 L 210.5 186 Z" />
 <path fill="rgb(233,249,247)" stroke="rgb(233,249,247)" stroke-width="1" d="M 105.5 188 L 107 188.5 L 104.5 190 L 105.5 188 Z" />
 <path fill="rgb(233,249,247)" stroke="rgb(233,249,247)" stroke-width="1" d="M 220.5 190 L 219.5 192 L 220.5 190 Z" />
 <path fill="rgb(233,249,247)" stroke="rgb(233,249,247)" stroke-width="1" d="M 97 192 L 100 192.5 L 95.5 196 L 97 193.5 L 97 192 Z" />
 <path fill="rgb(233,249,247)" stroke="rgb(233,249,247)" stroke-width="1" d="M 177.5 200 L 179 200.5 Q 173.7 206.5 166 209 Q 167.3 212 163.5 211 L 162 211.5 L 177.5 200 Z" />
 <path fill="rgb(233,249,247)" stroke="rgb(233,249,247)" stroke-width="1" d="M 181.5 200 L 185 201 Q 186.1 203.7 183.5 203 L 181.5 200 Z" />
 <path fill="rgb(233,249,247)" stroke="rgb(233,249,247)" stroke-width="1" d="M 89.5 201 L 89 202.5 L 87.5 205 L 87 202 L 89.5 201 Z" />
 <path fill="rgb(233,249,247)" stroke="rgb(233,249,247)" stroke-width="1" d="M 210.5 203 L 212 203.5 L 209 205 L 207.5 209 L 202 212 Q 203.1 214.7 200.5 214 Q 192.2 222.2 179.5 226 L 179.5 225 L 185.5 223 L 200 214 Q 198.9 211.3 201.5 212 L 210.5 203 Z" />
 <path fill="rgb(233,249,247)" stroke="rgb(233,249,247)" stroke-width="1" d="M 88.5 208 L 94 212 L 93.5 214 L 88 209.5 L 88.5 208 Z" />
 <path fill="rgb(233,249,247)" stroke="rgb(233,249,247)" stroke-width="1" d="M 186.5 210 L 183.5 214 L 178.5 217 L 178 215.5 L 184.5 211 L 186.5 210 Z" />
 <path fill="rgb(233,249,247)" stroke="rgb(233,249,247)" stroke-width="1" d="M 159.5 212 L 161 212.5 L 149.5 219 L 150.5 217 L 152.5 217 L 159.5 212 Z" />
 <path fill="rgb(233,249,247)" stroke="rgb(233,249,247)" stroke-width="1" d="M 95.5 214 L 100 217.5 L 98.5 218 L 95.5 214 Z" />
 <path fill="rgb(233,249,247)" stroke="rgb(233,249,247)" stroke-width="1" d="M 176.5 217 L 175.5 219 L 169.5 222 L 169.5 221 L 176.5 217 Z" />
 <path fill="rgb(233,249,247)" stroke="rgb(233,249,247)" stroke-width="1" d="M 101.5 218 L 105 220.5 L 103.5 220 L 101.5 218 Z" />
 <path fill="rgb(233,249,247)" stroke="rgb(233,249,247)" stroke-width="1" d="M 147.5 219 L 146.5 221 L 134.5 225 L 132.5 227 L 118.5 228 L 116 226.5 L 118.5 226 Q 120.3 228.8 126.5 227 L 147.5 219 Z" />
 <path fill="rgb(233,249,247)" stroke="rgb(233,249,247)" stroke-width="1" d="M 198.5 219 L 199 221 L 197 220.5 L 198.5 219 Z" />
 <path fill="rgb(233,249,247)" stroke="rgb(233,249,247)" stroke-width="1" d="M 106.5 221 L 109 222.5 L 107.5 223 L 106.5 221 Z" />
 <path fill="rgb(233,249,247)" stroke="rgb(233,249,247)" stroke-width="1" d="M 166.5 222 L 168 222.5 L 164.5 224 L 164.5 223 L 166.5 222 Z" />
 <path fill="rgb(233,249,247)" stroke="rgb(233,249,247)" stroke-width="1" d="M 110.5 223 L 115 225.5 L 113.5 226 L 110.5 223 Z" />
 <path fill="rgb(233,249,247)" stroke="rgb(233,249,247)" stroke-width="1" d="M 160.5 223 Q 164.3 222 163 225 L 159 226 L 160.5 223 Z" />
 <path fill="rgb(233,249,247)" stroke="rgb(233,249,247)" stroke-width="1" d="M 175.5 226 L 178 226.5 L 173.5 229 L 173 227 L 175.5 226 Z" />
 <path fill="rgb(233,249,247)" stroke="rgb(233,249,247)" stroke-width="1" d="M 148.5 228 L 152 228.5 L 148.5 229 L 148.5 228 Z" />
 <path fill="rgb(233,249,247)" stroke="rgb(233,249,247)" stroke-width="1" d="M 165.5 229 L 169 229.5 L 162.5 231 L 162.5 230 L 165.5 229 Z" />
 <path fill="rgb(233,249,247)" stroke="rgb(233,249,247)" stroke-width="1" d="M 152.5 231 L 158 231.5 L 152.5 232 L 152.5 231 Z" />
</svg>